<?xml version="1.0" encoding="UTF-8"?>
<svg width="40px" height="40px" viewBox="0 0 40 40" version="1.1" xmlns="http://www.w3.org/2000/svg" xmlns:xlink="http://www.w3.org/1999/xlink">
    <!-- Generator: Sketch 62 (91390) - https://sketch.com -->
    <title>ai-copilot</title>
    <desc>Created with Sketch.</desc>
    <g id="Page-1" stroke="none" stroke-width="1" fill="none" fill-rule="evenodd">
        <g id="ai-copilot" fill-rule="nonzero">
            <g id="Group" transform="translate(20.000000, 20.000000) scale(-1, 1) rotate(-180.000000) translate(-20.000000, -20.000000) translate(0.000000, -0.000000)" fill="#38A98B">
                <path d="M9.66489795,39.827523 C9.17387755,39.540469 9.10204082,39.1335373 9.10204082,36.4897045 L9.10204082,33.9771663 L8.21591837,33.9771663 C7.50938775,33.9771663 7.26979593,33.9294597 6.9465306,33.7137615 C6.22816327,33.2232415 6.04816328,32.864424 6.00040818,31.8116208 L5.9644898,30.8664628 L3.4489796,30.8664628 C0.095510204,30.8664628 -2.32013955e-16,30.8187562 -2.32013955e-16,29.0719675 C-2.32013955e-16,28.1508665 0.0240816326,28.079103 0.34734694,27.7439348 L0.694693878,27.396942 L3.3412245,27.396942 L5.9877551,27.396942 L5.9877551,26.0929662 L5.9877551,24.7767584 L3.2812245,24.7408767 L0.574693878,24.7049949 L0.28734694,24.3702344 C0.0359183672,24.070948 -2.32013955e-16,23.9155963 -2.32013955e-16,23.0181448 C-2.32013955e-16,22.0489297 0.0118367347,21.9771662 0.34734694,21.6424057 L0.694693878,21.2954129 L3.3412245,21.2954129 L5.9877551,21.2954129 L5.9877551,19.9796127 L5.9877551,18.6634047 L3.3412245,18.6634047 L0.694693878,18.6634047 L0.34734694,18.3164118 C0.0118367347,17.9816514 -2.32013955e-16,17.9098879 -2.32013955e-16,16.9406728 C-2.32013955e-16,16.0432212 0.0359183672,15.8878695 0.28734694,15.5885831 L0.574693878,15.2538226 L3.2812245,15.2179409 L5.9877551,15.1820591 L5.9877551,13.8658512 L5.9877551,12.5618756 L3.3412245,12.5618756 L0.694693878,12.5618756 L0.34734694,12.2148828 C0.0240816326,11.8801223 -2.32013955e-16,11.8083588 -2.32013955e-16,10.8868502 C-2.32013955e-16,9.14006115 0.0959183672,9.09235475 3.47306122,9.09235475 L5.98816327,9.09235475 L5.98816327,8.20713558 C5.98816327,7.50132517 6.03591837,7.26197758 6.26367348,6.9390418 C6.74285715,6.22140673 7.10204082,6.04159022 8.15591837,5.9938838 L9.10204082,5.95800205 L9.10204082,3.4454638 C9.10204082,0.095412844 9.16204083,0 10.9702041,0 C11.8085714,0 11.9044898,0.0240570846 12.2277551,0.346992865 L12.575102,0.69398573 L12.575102,3.3382263 L12.575102,5.98205913 L13.8804082,5.98205913 L15.1979592,5.98205913 L15.2338775,3.27828745 L15.2697959,0.5745158 L15.6053061,0.287461773 C15.904898,0.0362895005 16.0604082,0.000407747197 16.9587755,0.000407747197 C17.9289796,0.000407747197 18.0008163,0.0122324159 18.3359184,0.347400613 L18.6832653,0.694393475 L18.6832653,3.33863405 L18.6832653,5.98246688 L20,5.98246688 L21.317551,5.98246688 L21.317551,3.33863405 L21.317551,0.694393475 L21.664898,0.347400613 C22,0.0122324159 22.0718367,0.000407747197 23.0420408,0.000407747197 C23.9404082,0.000407747197 24.0959184,0.0362895005 24.3955102,0.287461773 L24.7306123,0.5745158 L24.7665306,3.27828745 L24.802449,5.98205913 L26.12,5.98205913 L27.425306,5.98205913 L27.425306,3.3382263 L27.425306,0.69398573 L27.772653,0.346992865 C28.0959183,0.0240570846 28.1918368,0 29.030204,0 C30.8383672,0 30.8983672,0.0958205913 30.8983672,3.4454638 L30.8983672,5.95800205 L31.8444898,5.9938838 C32.862449,6.04159022 33.209796,6.2091743 33.7008163,6.86727828 C33.892245,7.11845055 33.9640817,7.417737 34,8.14719675 L34.0359183,9.09235475 L36.5510205,9.09235475 C39.9044898,9.09235475 40,9.15229357 40,10.9586137 C40,11.7961264 39.9759182,11.891947 39.652653,12.2148828 L39.305306,12.5618756 L36.6583672,12.5618756 L34.0118368,12.5618756 L34.0118368,13.8658512 L34.0118368,15.1820591 L36.7183673,15.2179409 L39.424898,15.2538226 L39.712245,15.5885831 C39.9636735,15.8878695 39.9995918,16.0432212 39.9995918,16.9406728 C39.9995918,17.9098879 39.987755,17.9816514 39.652245,18.3164118 L39.304898,18.6634047 L36.6579592,18.6634047 L34.0114285,18.6634047 L34.0114285,19.9796127 L34.0114285,21.2958206 L36.6579592,21.2958206 L39.304898,21.2958206 L39.652245,21.6428135 C39.987755,21.9779817 39.9995918,22.0497451 39.9995918,23.0185525 C39.9995918,23.9160041 39.9636735,24.0713557 39.712245,24.3706422 L39.424898,24.7054027 L36.7183673,24.7412844 L34.0118368,24.7771661 L34.0118368,26.093374 L34.0118368,27.3973498 L36.6583672,27.3973498 L39.305306,27.3973498 L39.652653,27.7443425 C39.9759182,28.0795108 40,28.1512743 40,29.0723753 C40,30.819164 39.9040817,30.8668705 36.5269387,30.8668705 L34.0118368,30.8668705 L34.0118368,31.7520897 C34.0118368,32.4579 33.9640817,32.6972478 33.7363265,33.032416 C33.2571427,33.750051 32.7783672,33.977574 31.7840817,33.977574 L30.8979593,33.977574 L30.8979593,36.4901123 C30.8979593,39.8638125 30.850204,39.959633 29.1016328,39.959633 C28.1795918,39.959633 28.107755,39.935576 27.772245,39.6126403 L27.424898,39.2656473 L27.424898,36.6218145 L27.424898,33.9779818 L26.1195917,33.9779818 L24.8020408,33.9779818 L24.7661225,36.6817532 L24.7302041,39.385525 L24.395102,39.672579 C24.0955102,39.9237513 23.94,39.959633 23.0416327,39.959633 C22.0714286,39.959633 21.9995918,39.9478083 21.6644898,39.6126403 L21.3171429,39.2656473 L21.3171429,36.6218145 L21.3171429,33.9779818 L20,33.9779818 L18.682449,33.9779818 L18.682449,36.6218145 L18.682449,39.2656473 L18.335102,39.6126403 C17.9995918,39.9474005 17.9277551,39.959633 16.9579592,39.959633 C16.0595918,39.959633 15.9040816,39.9237513 15.6044898,39.672579 L15.2689796,39.385525 L15.2330612,36.6817532 L15.1971429,33.9779818 L13.8795918,33.9779818 L12.5742857,33.9779818 L12.5742857,36.6218145 L12.5742857,39.2656473 L12.2269388,39.6126403 C11.8914286,39.935576 11.8195918,39.959633 10.8734694,39.959633 C10.3232653,39.9592253 9.7844898,39.8992865 9.66489795,39.827523 Z" id="Shape"></path>
            </g>
            <path d="M20.214,24 C20.4846667,24 20.6876667,23.895 20.823,23.685 C20.9583333,23.475 20.9746667,23.2393333 20.872,22.978 L20.872,22.978 L16.924,13.556 C16.8026667,13.2293333 16.574,13.066 16.238,13.066 C15.9206667,13.066 15.692,13.2293333 15.552,13.556 L15.552,13.556 L11.618,22.95 C11.506,23.202 11.52,23.44 11.66,23.664 C11.8,23.888 12.0006667,24 12.262,24 C12.3926667,24 12.521,23.9626667 12.647,23.888 C12.773,23.8133333 12.8686667,23.7013333 12.934,23.552 L12.934,23.552 L13.735,21.593 L18.753,21.593 L19.542,23.552 C19.584,23.657 19.6456875,23.7449375 19.7270625,23.8158125 L19.815,23.881 C19.941,23.9603333 20.074,24 20.214,24 Z M18.268,20.388 L14.228,20.388 L16.264,15.412 L18.268,20.388 Z M27.816,25.428 C28.0026667,25.428 28.166,25.358 28.306,25.218 C28.446,25.078 28.516,24.91 28.516,24.714 C28.516,24.5086667 28.446,24.3383333 28.306,24.203 C28.166,24.0676667 28.0026667,24 27.816,24 L27.816,24 L21.25,24 C21.0446667,24 20.8743333,24.0676667 20.739,24.203 C20.6036667,24.3383333 20.536,24.5086667 20.536,24.714 C20.536,24.91 20.6036667,25.078 20.739,25.218 C20.8743333,25.358 21.0446667,25.428 21.25,25.428 L21.25,25.428 L27.816,25.428 Z" id="A_" fill="#FFFFFF"></path>
        </g>
    </g>
</svg>