<?xml version="1.0" encoding="UTF-8"?>
<svg width="18px" height="18px" viewBox="0 0 18 18" version="1.1" xmlns="http://www.w3.org/2000/svg" xmlns:xlink="http://www.w3.org/1999/xlink">
    <!-- Generator: Sketch 62 (91390) - https://sketch.com -->
    <title>edit-circle-svgrepo-com</title>
    <desc>Created with Sketch.</desc>
    <g id="Page-1" stroke="none" stroke-width="1" fill="none" fill-rule="evenodd">
        <g id="edit-circle-svgrepo-com" transform="translate(1.000000, 1.000000)">
            <path d="M15.7700387,6.43007186 C15.5837318,5.48462453 15.2174007,4.58381042 14.6909895,3.77667219 L9.53454947,8.93311222 L7.07573245,8.87119956 L7.07573245,6.41238253 L12.2321725,1.25594251 C11.4250342,0.729531266 10.5242201,0.363200191 9.5787728,0.176893311 C6.13979523,-0.507585683 2.65794792,1.13882664 1.00484316,4.23112722 C-0.648261607,7.32342781 -0.0832443445,11.1332427 2.3961788,13.6126659 C4.87560194,16.092089 8.68541686,16.6571063 11.7777174,15.0040015 C14.870018,13.3508967 16.5164303,9.86904944 15.8319514,6.43007186 L15.7700387,6.43007186 Z" id="secondary" fill="#48A178" fill-rule="nonzero"></path>
            <path d="M9.53454947,8.91542289 L7.07573245,8.87119956 L7.07573245,6.41238253 L12.7628524,0.725262576 C13.1078275,0.382334023 13.6649752,0.382334023 14.0099502,0.725262576 L15.2658928,1.98120509 C15.6088213,2.32618017 15.6088213,2.88332785 15.2658928,3.22830293 L9.53454947,8.91542289 Z" id="primary" stroke="#6D7278" stroke-linecap="round" stroke-linejoin="round"></path>
            <path d="M15.920398,7.986733 C15.920398,12.3830295 12.3564955,15.946932 7.960199,15.946932 C3.56390249,15.946932 -1.50828309e-15,12.3830295 -1.50828309e-15,7.986733 C-1.50828309e-15,3.59043649 3.56390249,0.0265339967 7.960199,0.0265339967" id="primary-2" stroke="#6D7278" stroke-linecap="round" stroke-linejoin="round"></path>
        </g>
    </g>
</svg>