<?xml version="1.0" encoding="UTF-8"?>
<svg width="16px" height="16px" viewBox="0 0 17 17" version="1.1" xmlns="http://www.w3.org/2000/svg" xmlns:xlink="http://www.w3.org/1999/xlink">
    <!-- Generator: Sketch 62 (91390) - https://sketch.com -->
    <title>input-field-svgrepo-com</title>
    <desc>Created with Sketch.</desc>
    <g id="Page-1" stroke="none" stroke-width="1" fill="none" fill-rule="evenodd">
        <g id="input-field-svgrepo-com" transform="translate(0.666667, 0.666667)">
            <path d="M4.7976012,0.7996002 C4.7976012,0.357997001 5.1555982,0 5.5972014,0 L10.3948026,0 C10.8364218,0 11.1944028,0.357997001 11.1944028,0.7996002 C11.1944028,1.24121139 10.8364218,1.5992004 10.3948026,1.5992004 L8.7956022,1.5992004 L8.7956022,14.3928036 L10.3948026,14.3928036 C10.8364218,14.3928036 11.1944028,14.7507846 11.1944028,15.1924038 C11.1944028,15.634023 10.8364218,15.992004 10.3948026,15.992004 L5.5972014,15.992004 C5.1555982,15.992004 4.7976012,15.634023 4.7976012,15.1924038 C4.7976012,14.7507846 5.1555982,14.3928036 5.5972014,14.3928036 L7.1964018,14.3928036 L7.1964018,1.5992004 L5.5972014,1.5992004 C5.1555982,1.5992004 4.7976012,1.2412034 4.7976012,0.7996002 Z" id="Path" fill="#48A178"></path>
            <path d="M4.62808596,3.19840056 L4.7976012,3.19840056 C5.23921239,3.19840056 5.5972014,3.5563978 5.5972014,3.998001 C5.5972014,4.4396042 5.23921239,4.7976012 4.7976012,4.7976012 L4.66166917,4.7976012 C3.9652014,4.7976012 3.49174213,4.79824088 3.125997,4.82861769 C2.76982309,4.8581949 2.58801,4.91178411 2.4612094,4.97764718 C2.16913143,5.12937131 1.93097851,5.36752424 1.77924638,5.65961019 C1.71338331,5.78641079 1.6597941,5.96822389 1.63021689,6.3243978 C1.59984008,6.69017491 1.5992004,7.16361819 1.5992004,7.86006997 L1.5992004,8.13193403 C1.5992004,8.82838581 1.59984008,9.30182909 1.63021689,9.66756622 C1.6597941,10.0237881 1.71338331,10.2056172 1.77924638,10.3323538 C1.93097851,10.6244478 2.16913143,10.8626487 2.4612094,11.0143328 C2.58801,11.0802199 2.76983108,11.1337931 3.125997,11.1633783 C3.49174213,11.1937631 3.9652014,11.1944028 4.66166917,11.1944028 L4.7976012,11.1944028 C5.23921239,11.1944028 5.5972014,11.5523838 5.5972014,11.994003 C5.5972014,12.4356222 5.23921239,12.7936032 4.7976012,12.7936032 L4.62806997,12.7936032 C3.97358121,12.7936032 3.43342729,12.7936032 2.99364718,12.7570615 C2.5367956,12.7191604 2.11713343,12.6376812 1.72401799,12.4335432 C1.13985407,12.130095 0.663548226,11.6537731 0.36009995,11.0695852 C0.155890055,10.6765017 0.0744427786,10.2567916 0.0365017491,9.79998001 C-2.36613676e-07,9.3601999 -2.36613676e-07,8.81999 -2.36613676e-07,8.16551724 L-2.36613676e-07,7.82648676 C-2.36613676e-07,7.17201399 -2.36613676e-07,6.6318041 0.0365017491,6.19204798 C0.0744427786,5.7351964 0.155890055,5.31553423 0.36009995,4.92241879 C0.663548226,4.33825487 1.13985407,3.86194903 1.72401799,3.55850075 C2.11713343,3.35429085 2.5367956,3.27284358 2.99364718,3.23490255 C3.43342729,3.19840056 3.97358921,3.19840056 4.62808596,3.19840056 Z" id="Path" fill="#6D7278"></path>
            <path d="M12.865967,4.82861769 C12.5002299,4.79824088 12.0267866,4.7976012 11.3303348,4.7976012 L11.1944028,4.7976012 C10.7527836,4.7976012 10.3948026,4.4396042 10.3948026,3.998001 C10.3948026,3.5563978 10.7527836,3.19840056 11.1944028,3.19840056 L11.363918,3.19840056 C12.0183908,3.19840056 12.5586007,3.19840056 12.9983808,3.23490255 C13.4551924,3.27284358 13.8749025,3.35429085 14.267986,3.55850075 C14.8521739,3.86194903 15.3284958,4.33825487 15.631944,4.92241879 C15.836082,5.31553423 15.9175612,5.7351964 15.9554623,6.19204798 C15.992004,6.6318041 15.992004,7.17201399 15.992004,7.82648676 L15.992004,8.16551724 C15.992004,8.81999 15.992004,9.3601999 15.9554623,9.79998001 C15.9175612,10.2567916 15.836082,10.6765017 15.631944,11.0695852 C15.3284958,11.6537731 14.8521739,12.130095 14.267986,12.4335432 C13.8749025,12.6376812 13.4551924,12.7191604 12.9983808,12.7570615 C12.5586007,12.7936032 12.0183908,12.7936032 11.363918,12.7936032 L11.1944028,12.7936032 C10.7527836,12.7936032 10.3948026,12.4356222 10.3948026,11.994003 C10.3948026,11.5523838 10.7527836,11.1944028 11.1944028,11.1944028 L11.3303348,11.1944028 C12.0267866,11.1944028 12.5002299,11.1937631 12.865967,11.1633783 C13.2221889,11.1337931 13.404018,11.0802199 13.5307546,11.0143328 C13.8228486,10.8626487 14.0610495,10.6244478 14.2127336,10.3323538 C14.2786207,10.2056172 14.3321939,10.0237881 14.3617791,9.66756622 C14.3921639,9.30182909 14.3928036,8.82838581 14.3928036,8.13193403 L14.3928036,7.86006997 C14.3928036,7.16361819 14.3921639,6.69017491 14.3617791,6.3243978 C14.3321939,5.96822389 14.2786207,5.78641079 14.2127336,5.65961019 C14.0610495,5.36753223 13.8228486,5.12937131 13.5307546,4.97764718 C13.404018,4.91178411 13.2221889,4.8581949 12.865967,4.82861769 Z" id="Path" fill="#6D7278"></path>
        </g>
    </g>
</svg>