<?xml version="1.0" encoding="UTF-8"?>
<svg width="16px" height="17px" viewBox="0 0 16 17" version="1.1" xmlns="http://www.w3.org/2000/svg" xmlns:xlink="http://www.w3.org/1999/xlink">
    <!-- Generator: Sketch 62 (91390) - https://sketch.com -->
    <desc>Created with Sketch.</desc>
    <g id="Page-1" stroke="none" stroke-width="1" fill="none" fill-rule="evenodd">
        <g id="magic-stick-3-svgrepo-com" transform="translate(0.000000, 0.666667)" fill-rule="nonzero">
            <path d="M0.710435331,1.5516551 C-0.236811777,2.4988938 -0.236811777,4.03468349 0.710435331,4.98192219 L2.04607361,6.31756046 C2.05610095,6.30596845 2.51264774,6.74069401 2.52365931,6.72966562 L5.88853838,3.36478654 C5.89955836,3.35380021 5.46477392,2.89728707 5.47633228,2.88728496 L4.14070242,1.5516551 C3.19346372,0.604407992 1.65767403,0.604407992 0.710435331,1.5516551 Z" id="Path" fill="#1C274C" opacity="0.5"></path>
            <path d="M1.79449001,11.1942797 C1.92987592,10.8497161 2.41570557,10.8497161 2.55109148,11.1942797 L2.68309569,11.5301788 C2.72443323,11.6354154 2.80739432,11.7186961 2.91220189,11.7601682 L3.246898,11.8926604 C3.59018297,12.0285174 3.59018297,12.5161725 3.246898,12.6520294 L2.91220189,12.7845216 C2.80739432,12.8259937 2.72443323,12.9092744 2.68309569,13.014511 L2.55109148,13.3504101 C2.41570557,13.6949737 1.92987592,13.6949737 1.79449001,13.3504101 L1.6624858,13.014511 C1.62114826,12.9092744 1.53818717,12.8259937 1.4333796,12.7845216 L1.09868349,12.6520294 C0.755398528,12.5161725 0.755398528,12.0285174 1.09868349,11.8926604 L1.4333796,11.7601682 C1.53818717,11.7186961 1.62114826,11.6354154 1.6624858,11.5301788 L1.79449001,11.1942797 Z" id="Path" fill="#1C274C" opacity="0.5"></path>
            <path d="M14.2731441,5.99743428 C14.4084963,5.65288749 14.8943849,5.65288749 15.0297371,5.99743428 L15.1617245,6.33337539 C15.2031125,6.43856993 15.2860568,6.52184227 15.3908728,6.56332282 L15.72551,6.69581493 C16.0688118,6.83171399 16.0688118,7.31936909 15.72551,7.45522608 L15.3908728,7.58771819 C15.2860568,7.62919033 15.2031125,7.71247108 15.1617245,7.81762355 L15.0297371,8.15360673 C14.8943849,8.49817035 14.4084963,8.49817035 14.2731441,8.15360673 L14.1411567,7.81762355 C14.0997687,7.71247108 14.0168244,7.62919033 13.9120084,7.58771819 L13.5772871,7.45522608 C13.2340694,7.31936909 13.2340694,6.83171399 13.5772871,6.69581493 L13.9120084,6.56332282 C14.0168244,6.52184227 14.0997687,6.43856993 14.1411567,6.33337539 L14.2731441,5.99743428 Z" id="Path" fill="#087D18" opacity="0.2"></path>
            <path d="M11.019979,0.258414301 C11.1554154,-0.0861409043 11.6412198,-0.0861409043 11.776572,0.258414301 L12.138633,1.17978549 C12.180021,1.28498002 12.2629653,1.36825237 12.3677813,1.40974132 L13.2857203,1.77312303 C13.6290221,1.90901367 13.6290221,2.39663512 13.2857203,2.53252576 L12.3677813,2.89591588 C12.2629653,2.93740484 12.180021,3.02066877 12.138633,3.1258633 L11.7766562,4.04723449 C11.6412198,4.3917897 11.1554154,4.3917897 11.019979,4.0472429 L10.6580021,3.1258633 C10.6166141,3.02066877 10.5336698,2.93740484 10.4288538,2.89591588 L9.51091483,2.53252576 C9.16761304,2.39663512 9.16761304,1.90901367 9.51091483,1.77312303 L10.4288538,1.40974132 C10.5336698,1.36825237 10.6166141,1.28498002 10.6580021,1.17978549 L11.019979,0.258414301 Z" id="Path" fill="#DA4167" opacity="0.7"></path>
            <path d="M6.36643533,3.77706835 C6.35642482,3.78862671 5.8997266,3.35369085 5.88870662,3.36466877 L2.5238612,6.72954784 C2.51284963,6.74052576 2.94775184,7.1973081 2.93615983,7.20731861 L11.0014721,15.2725973 C11.9486856,16.2198948 13.4845005,16.2198948 14.431714,15.2725973 C15.3790116,14.3253838 15.3790116,12.7895689 14.431714,11.8423554 L6.36643533,3.77706835 Z" id="Path" fill="#48A178"></path>
        </g>
    </g>
</svg>