<?xml version="1.0" encoding="UTF-8"?>
<svg width="16px" height="17px" viewBox="0 0 16 17" version="1.1" xmlns="http://www.w3.org/2000/svg" xmlns:xlink="http://www.w3.org/1999/xlink">
    <!-- Generator: Sketch 62 (91390) - https://sketch.com -->
    <title>general-office-repair-2-svgrepo-com</title>
    <desc>Created with Sketch.</desc>
    <g id="Page-1" stroke="none" stroke-width="1" fill="none" fill-rule="evenodd">
        <g id="general-office-repair-2-svgrepo-com" transform="translate(0.000000, 0.791209)" fill-rule="nonzero">
            <path d="M6.7652964,9.68051013 L6.88657285,9.56030063 L6.88301635,9.55745544 C6.72635279,9.39901363 7.76929467,8.3384671 7.76929467,8.3384671 L6.32553591,6.89488615 L1.39890249,11.6789042 C1.04805435,12.0304636 0.879654353,12.5155694 0.926244426,13.0456648 C0.969278004,13.5423292 1.1988497,14.0219225 1.60429002,14.4275406 C2.03640405,14.8585877 2.5917506,15.078379 3.12166822,15.078379 C3.5699643,15.078379 3.99976661,14.9202929 4.32127367,14.5998527 L7.92364652,10.9971242 L7.01478446,10.0777705 C6.90097665,9.96254011 6.82042206,9.82668204 6.7652964,9.68051013" id="Path" fill-opacity="0.5" fill="#000000"></path>
            <path d="M15.449188,2.76330698 L15.1609341,2.07139106 L13.3047999,3.92805879 C12.9888054,4.24405329 12.7115767,4.40427335 12.4805824,4.40427335 C12.3041803,4.40427335 12.123866,4.30878148 11.9211459,4.1065948 L11.8877148,4.07387505 C11.585235,3.77139523 11.3513955,3.41681277 12.072119,2.6957336 L13.9296759,0.838354566 L13.2374043,0.550100721 C11.8277879,-0.0370764507 10.3509537,-0.409085731 9.09675609,0.846001028 L7.94854198,1.99314819 C6.78325669,3.15985607 6.38172851,4.48447229 6.75729429,5.79806338 L7.91493311,6.97988636 L8.8197052,6.07511427 C8.8197052,6.07511427 9.39727984,6.37528237 9.80983315,6.64095247 L12.2771509,9.14134563 C12.8813993,8.95765271 13.4621747,8.59737986 14.0077409,8.05145802 L15.1531098,6.90413304 C16.4090857,5.65011322 16.0377877,4.17256776 15.449188,2.76330698" id="Path" fill-opacity="0.5" fill="#000000"></path>
            <path d="M14.1016324,12.1729012 L9.54487434,7.55514928 C9.39550159,7.40310915 9.20736305,7.28361095 8.98508217,7.20021117 L8.71656687,7.09920674 L7.90248538,7.91364388 L3.59681583,3.60815215 L3.99425404,3.21035829 C4.10130451,3.10366347 4.15429627,2.95446854 4.13882552,2.80438449 C4.1235326,2.65394479 4.04155541,2.51862019 3.91512205,2.43557605 L1.5868632,0.905750129 C1.38787736,0.775226796 1.12416332,0.802256151 0.955407677,0.97083397 L0.158397355,1.76926689 C-0.00964699018,1.93766688 -0.0364985204,2.20102527 0.0942026368,2.39965546 L1.62349509,4.72809214 C1.70618358,4.8545255 1.841686,4.93685834 1.99194788,4.95215126 C2.00901905,4.95392951 2.02591239,4.95464081 2.04298357,4.95464081 C2.17564079,4.95464081 2.30349676,4.90218252 2.39827732,4.8077576 L2.75748322,4.44837388 L7.06279713,8.75368778 L6.24693739,9.56990317 L6.34865312,9.83877412 C6.43027466,10.0534085 6.54763896,10.2388797 6.69807866,10.3909198 L11.2583932,15.0115169 C11.5585613,15.311685 11.970759,15.4768842 12.419055,15.4768842 L12.4194107,15.4768842 C12.9518178,15.4768842 13.4895597,15.2441116 13.9014018,14.831914 L13.9250524,14.8071963 C14.2908379,14.4424779 14.5150748,13.9753324 14.5568636,13.4920048 C14.6013198,12.9796919 14.438788,12.5107681 14.1016324,12.1729012 Z M13.2880844,14.1837429 L13.2637224,14.2095275 C13.024726,14.4485239 12.7167336,14.5859824 12.419055,14.5859824 C12.2700379,14.5859824 12.0564705,14.5502396 11.8893152,14.3834401 L7.33166808,9.76497687 C7.32811159,9.76142037 7.32473292,9.75804171 7.32117642,9.75448521 L8.90257151,8.17273447 C8.90470541,8.17522402 8.90666148,8.17753574 8.90879538,8.17966964 L13.4691099,12.8004446 C13.619194,12.9512399 13.6906795,13.1696086 13.6691627,13.4148289 C13.6451564,13.6895681 13.5124991,13.9596838 13.2880844,14.1837429 Z" id="Shape" fill="#48A178"></path>
        </g>
    </g>
</svg>