<?xml version="1.0" encoding="UTF-8"?>
<svg width="16px" height="16px" viewBox="0 0 16 16" version="1.1" xmlns="http://www.w3.org/2000/svg" xmlns:xlink="http://www.w3.org/1999/xlink">
    <!-- Generator: Sketch 62 (91390) - https://sketch.com -->
    <title>command</title>
    <desc>Created with Sketch.</desc>
    <defs>
        <linearGradient x1="50%" y1="0%" x2="50%" y2="100%" id="linearGradient-1">
            <stop stop-color="#48A178" offset="0%"></stop>
            <stop stop-color="#011C32" offset="100%"></stop>
        </linearGradient>
    </defs>
    <g id="Page-1" stroke="none" stroke-width="1" fill="none" fill-rule="evenodd">
        <g id="command" fill-rule="nonzero">
            <path d="M3.86595917,15.9310093 C3.66955103,15.8161876 3.64081632,15.6534149 3.64081632,14.5958818 L3.64081632,13.5908665 L3.28636735,13.5908665 C3.0037551,13.5908665 2.90791837,13.5717839 2.77861224,13.4855046 C2.49126531,13.2892966 2.41926531,13.1457696 2.40016328,12.7246484 L2.38579593,12.3465851 L1.37959184,12.3465851 C0.0382040816,12.3465851 0,12.3275025 0,11.628787 C0,11.2603466 0.00963265304,11.2316412 0.138938776,11.0975739 L0.277877551,10.9587768 L1.3364898,10.9587768 L2.39510204,10.9587768 L2.39510204,10.4371865 L2.39510204,9.91070336 L1.3124898,9.89635068 L0.229877551,9.88199796 L0.114938776,9.74809376 C0.0143673469,9.6283792 0,9.56623853 0,9.20725793 C0,8.81957188 0.00473469388,8.79086648 0.138938776,8.65696228 L0.277877551,8.51816516 L1.3364898,8.51816516 L2.39510204,8.51816516 L2.39510204,7.99184508 L2.39510204,7.46536188 L1.3364898,7.46536188 L0.277877551,7.46536188 L0.138938776,7.32656473 C0.00473469388,7.19266056 0,7.16395516 0,6.77626913 C0,6.41728848 0.0143673469,6.3551478 0.114938776,6.23543324 L0.229877551,6.10152904 L1.3124898,6.08717636 L2.39510204,6.07282364 L2.39510204,5.54634048 L2.39510204,5.02475024 L1.3364898,5.02475024 L0.277877551,5.02475024 L0.138938776,4.88595313 C0.00963265304,4.75204893 0,4.72334353 0,4.35474008 C0,3.65602446 0.0383673469,3.6369419 1.38922449,3.6369419 L2.39526531,3.6369419 L2.39526531,3.28285424 C2.39526531,3.00053006 2.41436735,2.90479104 2.50546939,2.77561673 C2.69714286,2.48856269 2.84081633,2.41663609 3.26236735,2.39755353 L3.64081632,2.38320083 L3.64081632,1.37818553 C3.64081632,0.0381651376 3.66481634,1.77635684e-15 4.38808164,1.77635684e-15 C4.72342856,1.77635684e-15 4.76179593,0.00962283384 4.89110204,0.138797146 L5.0300408,0.277594293 L5.0300408,1.33529053 L5.0300408,2.39282365 L5.55216327,2.39282365 L6.07918368,2.39282365 L6.093551,1.31131498 L6.10791836,0.22980632 L6.24212244,0.114984709 C6.3619592,0.0145158003 6.42416327,0.000163098879 6.7835102,0.000163098879 C7.17159184,0.000163098879 7.20032653,0.00489296636 7.33436736,0.138960245 L7.47330612,0.27775739 L7.47330612,1.33545363 L7.47330612,2.39298675 L8,2.39298675 L8.5270204,2.39298675 L8.5270204,1.33545363 L8.5270204,0.27775739 L8.6659592,0.138960245 C8.8,0.00489296636 8.82873467,0.000163098879 9.21681632,0.000163098879 C9.57616328,0.000163098879 9.63836736,0.0145158003 9.75820408,0.114984709 L9.89224492,0.22980632 L9.90661224,1.31131498 L9.9209796,2.39282365 L10.448,2.39282365 L10.9701224,2.39282365 L10.9701224,1.33529053 L10.9701224,0.277594293 L11.1090612,0.138797146 C11.2383673,0.00962283384 11.2767347,1.77635684e-15 11.6120816,1.77635684e-15 C12.3353469,1.77635684e-15 12.3593469,0.0383282365 12.3593469,1.37818553 L12.3593469,2.38320083 L12.7377959,2.39755353 C13.1449796,2.41663609 13.2839184,2.48366973 13.4803265,2.74691131 C13.556898,2.84738023 13.5856326,2.9670948 13.6,3.2588787 L13.6143674,3.6369419 L14.6204083,3.6369419 C15.9617959,3.6369419 16,3.66091743 16,4.38344548 C16,4.71845056 15.9903673,4.7567788 15.8610613,4.88595313 L15.7221224,5.02475024 L14.6633469,5.02475024 L13.6047348,5.02475024 L13.6047348,5.54634048 L13.6047348,6.07282364 L14.6873469,6.08717636 L15.7699592,6.10152904 L15.884898,6.23543324 C15.9854694,6.3551478 15.9998368,6.41728848 15.9998368,6.77626913 C15.9998368,7.16395516 15.995102,7.19266056 15.860898,7.32656473 L15.7219592,7.46536188 L14.6631836,7.46536188 L13.6045714,7.46536188 L13.6045714,7.99184508 L13.6045714,8.51832824 L14.6631836,8.51832824 L15.7219592,8.51832824 L15.860898,8.6571254 C15.995102,8.79119268 15.9998368,8.81989804 15.9998368,9.207421 C15.9998368,9.56640164 15.9854694,9.62854228 15.884898,9.74825688 L15.7699592,9.88216108 L14.6873469,9.89651376 L13.6047348,9.91086644 L13.6047348,10.4373496 L13.6047348,10.9589399 L14.6633469,10.9589399 L15.7221224,10.9589399 L15.8610613,11.097737 C15.9903673,11.2318043 16,11.2605097 16,11.6289501 C16,12.3276656 15.9616326,12.3467482 14.6107755,12.3467482 L13.6047348,12.3467482 L13.6047348,12.7008359 C13.6047348,12.98316 13.5856326,13.0788991 13.4945306,13.2129664 C13.3028571,13.5000204 13.1113469,13.5910296 12.7136326,13.5910296 L12.3591837,13.5910296 L12.3591837,14.5960449 C12.3591837,15.945525 12.3400816,15.9838533 11.6406531,15.9838533 C11.2718367,15.9838533 11.243102,15.9742304 11.108898,15.8450561 L10.9699592,15.7062589 L10.9699592,14.6487258 L10.9699592,13.5911928 L10.4478367,13.5911928 L9.92081633,13.5911928 L9.906449,14.6727013 L9.89208164,15.75421 L9.7580408,15.8690316 C9.63820408,15.9695005 9.576,15.9838533 9.21665307,15.9838533 C8.82857144,15.9838533 8.79983673,15.9791234 8.66579592,15.8450561 L8.52685716,15.7062589 L8.52685716,14.6487258 L8.52685716,13.5911928 L8,13.5911928 L7.4729796,13.5911928 L7.4729796,14.6487258 L7.4729796,15.7062589 L7.3340408,15.8450561 C7.19983672,15.9789603 7.17110204,15.9838533 6.78318368,15.9838533 C6.42383673,15.9838533 6.36163264,15.9695005 6.24179592,15.8690316 L6.10759184,15.75421 L6.09322448,14.6727013 L6.07885716,13.5911928 L5.55183673,13.5911928 L5.02971427,13.5911928 L5.02971427,14.6487258 L5.02971427,15.7062589 L4.89077552,15.8450561 C4.75657144,15.9742304 4.72783673,15.9838533 4.34938776,15.9838533 C4.12930613,15.9836901 3.91379593,15.9597146 3.86595917,15.9310093 Z" id="Shape" fill="url(#linearGradient-1)"></path>
            <path d="M10.5104167,8.64583333 L9.5625,8.64583333 L9.5625,6.47916667 L10.5104167,6.47916667 C11.3317188,6.47916667 12,5.81088542 12,4.98958333 C12,4.16828125 11.3317188,3.5 10.5104167,3.5 C9.68911458,3.5 9.02083333,4.16828125 9.02083333,4.98958333 L9.02083333,5.9375 L6.85416667,5.9375 L6.85416667,4.98958333 C6.85416667,4.16828125 6.18588542,3.5 5.36458333,3.5 C4.54328125,3.5 3.875,4.16828125 3.875,4.98958333 C3.875,5.81088542 4.54328125,6.47916667 5.36458333,6.47916667 L6.3125,6.47916667 L6.3125,8.64583333 L5.36458333,8.64583333 C4.54328125,8.64583333 3.875,9.31411458 3.875,10.1354167 C3.875,10.9567188 4.54328125,11.625 5.36458333,11.625 C6.18588542,11.625 6.85416667,10.9567188 6.85416667,10.1354167 L6.85416667,9.1875 L9.02083333,9.1875 L9.02083333,10.1354167 C9.02083333,10.9567188 9.68911458,11.625 10.5104167,11.625 C11.3317188,11.625 12,10.9567188 12,10.1354167 C12,9.31411458 11.3317188,8.64583333 10.5104167,8.64583333 Z M9.5625,4.98958333 C9.5625,4.46701042 9.98770833,4.04166667 10.5104167,4.04166667 C11.033125,4.04166667 11.4583333,4.46701042 11.4583333,4.98958333 C11.4583333,5.51215625 11.033125,5.9375 10.5104167,5.9375 L9.5625,5.9375 L9.5625,4.98958333 Z M5.36458333,5.9375 C4.841875,5.9375 4.41666667,5.51215625 4.41666667,4.98958333 C4.41666667,4.46701042 4.841875,4.04166667 5.36458333,4.04166667 C5.88729167,4.04166667 6.3125,4.46701042 6.3125,4.98958333 L6.3125,5.9375 L5.36458333,5.9375 Z M6.3125,10.1354167 C6.3125,10.6579896 5.88729167,11.0833333 5.36458333,11.0833333 C4.841875,11.0833333 4.41666667,10.6579896 4.41666667,10.1354167 C4.41666667,9.61284375 4.841875,9.1875 5.36458333,9.1875 L6.3125,9.1875 L6.3125,10.1354167 Z M6.85416667,8.64583333 L6.85416667,6.47916667 L9.02083333,6.47916667 L9.02083333,8.64583333 L6.85416667,8.64583333 Z M10.5104167,11.0833333 C9.98770833,11.0833333 9.5625,10.6579896 9.5625,10.1354167 L9.5625,9.1875 L10.5104167,9.1875 C11.033125,9.1875 11.4583333,9.61284375 11.4583333,10.1354167 C11.4583333,10.6579896 11.033125,11.0833333 10.5104167,11.0833333 Z" id="Shape" fill="#FFFFFF"></path>
        </g>
    </g>
</svg>