<?xml version="1.0" encoding="UTF-8"?>
<svg width="16px" height="14px" viewBox="0 0 16 14" version="1.1" xmlns="http://www.w3.org/2000/svg" xmlns:xlink="http://www.w3.org/1999/xlink">
    <!-- Generator: Sketch 62 (91390) - https://sketch.com -->
    <title>clickprompt-light</title>
    <desc>Created with Sketch.</desc>
    <g id="Page-1" stroke="none" stroke-width="1" fill="none" fill-rule="evenodd">
        <g id="clickprompt-light" fill-rule="nonzero">
            <g id="Group" transform="translate(1.142857, 0.285714)">
                <path d="M8.21239048,0.895657143 C4.18213333,0.895657143 0.912990476,4.15406667 0.912990476,8.17108571 L0.912990476,8.86811429 C0.912990476,10.3657143 1.89598095,11.06 3.11207619,11.06 L10.052,11.06 C12.1668571,11.06 13.88,9.35238095 13.88,7.24451429 L13.88,6.54188571 C13.88,3.4234381 11.3439048,0.895657143 8.2152,0.895657143 L8.21239048,0.895657143 Z" id="Vector" fill="#FFFFFF"></path>
                <path d="M10.0491429,11.9389524 L3.11207619,11.9389524 C1.26967619,11.9389524 0.031112674,10.7044762 0.031112674,8.86811429 L0.031112674,8.17108571 C0.0283047619,3.67258095 3.69906667,0.0138752381 8.21239048,0.0138752381 C11.8241905,0.0138752381 14.7619048,2.9419619 14.7619048,6.54188571 L14.7619048,7.24451429 C14.7619048,9.83390476 12.6470476,11.9418095 10.0491429,11.9418095 L10.0491429,11.9389524 Z M8.21239048,1.77464762 C4.67362857,1.77464762 1.79768571,4.64394286 1.79768571,8.16828571 L1.79768571,8.86531429 C1.79768571,9.73590476 2.23862857,10.1754286 3.11207619,10.1754286 L10.052,10.1754286 C11.6753333,10.1754286 12.9953333,8.85971429 12.9953333,7.24171429 L12.9953333,6.53908571 C12.9953333,3.91052381 10.849619,1.77464762 8.2152,1.77464762 L8.21239048,1.77464762 Z" id="Vector_2" fill="#231815"></path>
            </g>
            <path d="M5.6451619,9.14542857 C5.1312,9.14542857 4.71273333,8.72833333 4.71273333,8.21605714 L4.71273333,7.19990476 C4.71273333,6.68762857 5.1312,6.27053333 5.6451619,6.27053333 C6.15912381,6.27053333 6.5776,6.68762857 6.5776,7.19990476 L6.5776,8.21605714 C6.5776,8.72833333 6.15912381,9.14542857 5.6451619,9.14542857 Z" id="Vector_3" fill="#231815"></path>
            <path d="M1.40426667,10.3855238 C1.46324762,10.6234286 0.0365110476,12.9049524 0.0365110476,12.9049524 C-0.0477451429,13.0057143 0.0365110476,13.1764762 0.154469524,13.1372381 C0.154469524,13.1372381 4.04429524,12.2359048 4.58915238,12.2246667" id="Vector_4" fill="#231815"></path>
            <path d="M9.8692381,0.324780952 C11.7509524,0.55992381 13.2057143,0.386365714 14.351619,0.0980363429 C14.478,0.0672438095 14.5847619,0.196012381 14.5314286,0.31358381 L14.219619,0.988219048 C13.8404762,1.92599048 14.1578095,2.38227619 14.1578095,2.38227619" id="Vector_5" fill="#231815"></path>
        </g>
    </g>
</svg>