<?xml version="1.0" encoding="UTF-8"?>
<svg width="17px" height="17px" viewBox="0 0 17 17" version="1.1" xmlns="http://www.w3.org/2000/svg" xmlns:xlink="http://www.w3.org/1999/xlink">
    <!-- Generator: Sketch 62 (91390) - https://sketch.com -->
    <title>comment-download-svgrepo-com</title>
    <desc>Created with Sketch.</desc>
    <g id="Page-1" stroke="none" stroke-width="1" fill="none" fill-rule="evenodd">
        <g id="comment-download-svgrepo-com" transform="translate(0.666667, 0.666667)" fill="#000000" fill-rule="nonzero">
            <path d="M13.5932034,9.5952024 C13.3874814,9.54180813 13.1689661,9.57251405 12.9859266,9.68053737 C12.8028871,9.78856069 12.6703857,9.96501216 12.6176912,10.1709145 C11.9886807,12.6523627 9.75633059,14.39083 7.1964018,14.3928036 L2.72663668,14.3928036 L3.23838081,13.8890555 C3.54840467,13.5771814 3.54840467,13.0734932 3.23838081,12.7616192 C1.63168963,11.1615822 1.14908934,8.75026186 2.01622832,6.65511394 C2.8833673,4.55996602 4.92890027,3.19498843 7.1964018,3.1984008 C7.43079349,3.18623695 7.66565829,3.18623695 7.90004998,3.1984008 C8.18571961,3.23268116 8.46797759,3.11195457 8.64050007,2.88169759 C8.81302255,2.65144061 8.84959926,2.34663473 8.7364521,2.08209739 C8.62330494,1.81756005 8.37762366,1.63348076 8.09195402,1.5992004 C7.79377548,1.57908507 7.49458034,1.57908507 7.1964018,1.5992004 C4.43476033,1.60827832 1.92190683,3.19694327 0.729289965,5.68780878 C-0.463326901,8.1786743 -0.125315508,11.1323224 1.5992004,13.2893553 L0.231884058,14.6246877 C0.00500184936,14.8546212 -0.0612467607,15.1984831 0.063968016,15.4962519 C0.186629564,15.794843 0.476800091,15.9903927 0.7996002,15.9920055 L7.1964018,15.9920055 C10.4796715,15.9941151 13.3480986,13.7737157 14.1689155,10.5947026 C14.2297085,10.3856858 14.2026584,10.160918 14.0940103,9.97229285 C13.9853622,9.78366772 13.8045083,9.6474909 13.5932034,9.5952024 Z M15.7601199,4.20589705 C15.6099817,4.05452262 15.4056072,3.96937665 15.1924038,3.96937665 C14.9792004,3.96937665 14.7748259,4.05452262 14.6246877,4.20589705 L13.5932034,5.26936532 L13.5932034,0.7996002 C13.5932034,0.357993204 13.2352102,0 12.7936032,0 C12.3519962,0 11.994003,0.357993204 11.994003,0.7996002 L11.994003,5.26936532 L10.9625187,4.22988506 C10.7596933,4.02705961 10.4640688,3.94784725 10.1870041,4.02208651 C9.90993935,4.09632577 9.69352717,4.31273795 9.61928791,4.58980266 C9.54504864,4.86686737 9.624261,5.1624919 9.82708646,5.36531734 L12.2258871,7.76411794 C12.301932,7.83691405 12.3916031,7.8939775 12.4897551,7.93203398 C12.6832903,8.01757264 12.9039161,8.01757264 13.0974513,7.93203398 C13.1956033,7.8939775 13.2852744,7.83691405 13.3613193,7.76411794 L15.7601199,5.36531734 C15.9114944,5.21517913 15.9966403,5.01080463 15.9966403,4.7976012 C15.9966403,4.58439777 15.9114944,4.38002327 15.7601199,4.22988506 L15.7601199,4.20589705 Z" id="Shape"></path>
        </g>
    </g>
</svg>