<?xml version="1.0" encoding="UTF-8"?>
<svg width="20px" height="20px" viewBox="0 0 20 20" version="1.1" xmlns="http://www.w3.org/2000/svg" xmlns:xlink="http://www.w3.org/1999/xlink">
    <!-- Generator: Sketch 62 (91390) - https://sketch.com -->
    <title>dislike</title>
    <desc>Created with Sketch.</desc>
    <g id="Page-1" stroke="none" stroke-width="1" fill="none" fill-rule="evenodd">
        <g id="dislike" fill-rule="nonzero">
            <path d="M13.1631064,0.493531915 L18.6099149,0.493531915 C19.1114894,0.493531915 19.5177021,0.899787234 19.5177021,1.40131915 L19.5177021,8.43676596 C19.5177021,9.06089362 19.0070638,9.57153191 18.3829362,9.57153191 L13.1631064,9.57153191 L13.1631064,0.493531915 Z" id="Path" fill="#D94452"></path>
            <rect id="Rectangle" fill="#FFFFFF" x="9.98582979" y="0.493531915" width="3.17731915" height="9.078"></rect>
            <path d="M0.453914894,5.03255319 C0.453914894,5.78468085 1.06348936,6.39425532 1.81561702,6.39425532 L2.26953191,6.39425532 C1.51740426,6.39425532 0.907829787,7.00382979 0.907829787,7.75595745 C0.907829787,8.50808511 1.51740426,9.11765957 2.26953191,9.11765957 L5.9007234,9.11765957 L5.9007234,13.0629787 C5.9007234,13.7669787 6.4712766,14.3375319 7.1752766,14.3375319 C7.75991489,14.3375319 8.26961702,13.9394468 8.41170213,13.3720851 L8.62412766,11.2737021 L9.53191489,9.11765957 L9.98582979,9.11765957 L9.98582979,0.947446809 L2.26948936,0.947446809 C1.5173617,0.947446809 0.907787234,1.55702128 0.907787234,2.30914894 C0.907787234,3.0612766 1.5173617,3.67085106 2.26948936,3.67085106 L1.81561702,3.67085106 C1.06348936,3.67085106 0.453914894,4.28042553 0.453914894,5.03255319 Z" id="Path" fill="#F7C76A"></path>
            <path d="M18.6099149,0.0396595745 L9.98582979,0.0396595745 C9.7352766,0.0396595745 9.53191489,0.242553191 9.53191489,0.493531915 L2.26948936,0.493531915 C1.26817021,0.493531915 0.45387234,1.30782979 0.45387234,2.30914894 C0.45387234,2.75353191 0.614553191,3.16110638 0.880085106,3.47659574 C0.353148936,3.79476596 0,4.37348936 0,5.03255319 C0,5.69161702 0.353148936,6.27034043 0.88012766,6.58851064 C0.614595745,6.90395745 0.453914894,7.31157447 0.453914894,7.75595745 C0.453914894,8.7572766 1.26821277,9.57157447 2.26953191,9.57157447 L5.44680851,9.57157447 L5.44680851,13.0629787 C5.44680851,14.0161702 6.22208511,14.7914468 7.1752766,14.7914468 C7.96961702,14.7914468 8.65953191,14.2526809 8.852,13.4819574 C8.85744681,13.4610638 8.86106383,13.4392766 8.8633617,13.4174894 L9.06897872,11.3871915 L9.69080851,9.91021277 C9.77068085,9.97965957 9.87191489,10.0254894 9.98582979,10.0254894 L18.3829787,10.0254894 C19.2590213,10.0254894 19.971617,9.31285106 19.971617,8.43685106 L19.971617,1.4013617 C19.971617,0.650595745 19.3606809,0.0396595745 18.6099149,0.0396595745 Z M9.11340426,8.94153191 L8.20561702,11.0975745 C8.18838298,11.1388936 8.17702128,11.1828936 8.17246809,11.2278298 L7.96365957,13.2899149 C7.86289362,13.641234 7.54242553,13.883617 7.17523404,13.883617 C6.72268085,13.883617 6.35459574,13.5154894 6.35459574,13.0629787 L6.35459574,9.11765957 C6.35459574,8.8666383 6.15123404,8.66374468 5.90068085,8.66374468 L2.26948936,8.66374468 C1.76885106,8.66374468 1.36170213,8.25659574 1.36170213,7.75595745 C1.36170213,7.25531915 1.76885106,6.84817021 2.26948936,6.84817021 C2.52004255,6.84817021 2.72340426,6.6452766 2.72340426,6.39425532 C2.72340426,6.14323404 2.52004255,5.94034043 2.26948936,5.94034043 L1.81561702,5.94034043 C1.31497872,5.94034043 0.907829787,5.53319149 0.907829787,5.03255319 C0.907829787,4.53191489 1.31497872,4.12476596 1.81561702,4.12476596 L2.26953191,4.12476596 C2.52004255,4.12476596 2.72340426,3.92187234 2.72340426,3.67085106 C2.72340426,3.41982979 2.52004255,3.21693617 2.26948936,3.21693617 C1.76885106,3.21693617 1.36170213,2.80978723 1.36170213,2.30914894 C1.36170213,1.80851064 1.76885106,1.4013617 2.26948936,1.4013617 L9.53191489,1.4013617 L9.53191489,8.66378723 C9.34944681,8.66374468 9.18421277,8.77314894 9.11340426,8.94153191 Z M10.4397021,0.947446809 L12.7091915,0.947446809 L12.7091915,9.11765957 L10.4397021,9.11765957 L10.4397021,0.947446809 Z M19.0638298,8.43680851 C19.0638298,8.81217021 18.7583404,9.11765957 18.3829787,9.11765957 L13.6170213,9.11765957 L13.6170213,0.947446809 L18.6099149,0.947446809 C18.8604681,0.947446809 19.0638298,1.15080851 19.0638298,1.4013617 L19.0638298,8.43680851 L19.0638298,8.43680851 Z" id="Shape" fill="#000000"></path>
            <circle id="Oval" fill="#000000" cx="15.2056596" cy="2.30914894" r="1"></circle>
            <path d="M10.5922128,14.9266809 C10.3598298,14.8231915 10.243617,14.5789787 10.3044255,14.3724681 C10.3648085,14.1650213 10.5935745,14.0206809 10.8386809,14.0551915 C11.0901277,14.0910638 11.2562553,14.3484255 11.1768511,14.6234894 C11.0960426,14.8971915 10.8173617,15.0279149 10.5922128,14.9266809 Z" id="Path" fill="#000000"></path>
            <path d="M9.38757447,16.4831064 C9.24187234,16.2851915 9.25731915,16.0119574 9.41391489,15.8626383 C9.56280851,15.7069362 9.84195745,15.7014894 10.0366809,15.8517447 C10.2386809,16.0078723 10.2468511,16.3070213 10.0489362,16.5117021 C9.84191489,16.7091489 9.53961702,16.6887234 9.38757447,16.4831064 Z" id="Path" fill="#000000"></path>
            <path d="M7.57468085,17.2456596 C7.54425532,16.992383 7.69676596,16.7804255 7.90374468,16.7173191 C8.1152766,16.672383 8.3512766,16.7781277 8.45068085,17.0164255 C8.54553191,17.2402128 8.41438298,17.5320426 8.13523404,17.5951489 C7.85974468,17.6759574 7.6032766,17.4902979 7.57468085,17.2456596 Z" id="Path" fill="#000000"></path>
            <path d="M5.6206383,17.0164255 C5.72004255,16.7781277 5.95608511,16.672383 6.16757447,16.7173191 C6.37455319,16.7804255 6.52706383,16.992383 6.4966383,17.2456596 C6.46804255,17.4898723 6.21157447,17.6754894 5.93651064,17.5951489 C5.65697872,17.5320851 5.52578723,17.2406809 5.6206383,17.0164255 Z" id="Path" fill="#000000"></path>
            <path d="M4.03425532,15.8517447 C4.22851064,15.7014894 4.50765957,15.7065106 4.65702128,15.8626383 C4.81361702,16.0119574 4.82906383,16.285234 4.6833617,16.4831064 C4.53131915,16.6887234 4.22902128,16.7091489 4.02246809,16.5117021 C3.82412766,16.3069787 3.83229787,16.0083404 4.03425532,15.8517447 Z" id="Path" fill="#000000"></path>
            <path d="M3.23268085,14.0551915 C3.47778723,14.0206809 3.70655319,14.1650213 3.76693617,14.3724681 C3.82774468,14.5789787 3.71110638,14.8231915 3.47914894,14.9266809 C3.25357447,15.0279149 2.97531915,14.897617 2.89451064,14.6234894 C2.81510638,14.3484255 2.98123404,14.0910638 3.23268085,14.0551915 Z" id="Path" fill="#000000"></path>
            <path d="M12.9842979,14.8758298 C12.7391915,14.8131915 12.600766,14.5857872 12.6261702,14.3579149 C12.6624681,14.1318723 12.891234,13.9639149 13.1349787,13.9820851 C13.3914468,14.001617 13.5648085,14.2358298 13.5217021,14.5054468 C13.4894894,14.7764255 13.224383,14.9375745 12.9842979,14.8758298 Z" id="Path" fill="#000000"></path>
            <path d="M12.251234,16.6342553 C12.0347234,16.497617 11.9743404,16.238 12.0733191,16.0319149 C12.1722553,15.8258298 12.4414468,15.7364255 12.6733617,15.8317447 C12.9052766,15.9270638 12.9983404,16.2039574 12.8794468,16.4494894 C12.759617,16.6946383 12.4582128,16.7663404 12.251234,16.6342553 Z" id="Path" fill="#000000"></path>
            <path d="M11.0143404,18.0844681 C10.8541277,17.892 10.8604681,17.6101277 11.0306809,17.4567234 C11.1872766,17.2901277 11.4650638,17.2819574 11.6575319,17.4449362 C11.8481702,17.6060851 11.8577021,17.9038298 11.6702553,18.1012766 C11.4687234,18.2855319 11.1745957,18.2773617 11.0143404,18.0844681 Z" id="Path" fill="#000000"></path>
            <path d="M9.39212766,19.0862128 C9.30089362,18.8592766 9.39029787,18.5851064 9.59685106,18.4870638 C9.80744681,18.3962979 10.0620851,18.4516596 10.1982553,18.6708936 C10.3271489,18.8769787 10.2572766,19.185617 10.007617,19.2968085 C9.76114894,19.414383 9.48744681,19.3245106 9.39212766,19.0862128 Z" id="Path" fill="#000000"></path>
            <path d="M7.53838298,19.5319574 C7.52204255,19.2873191 7.6927234,19.0685106 7.91829787,19.0276596 C8.14617021,19.0008936 8.374,19.1497447 8.43391489,19.391234 C8.4947234,19.6363404 8.32995745,19.8909787 8.05855319,19.9245532 C7.78940426,19.9717872 7.55561702,19.7874894 7.53838298,19.5319574 Z" id="Path" fill="#000000"></path>
            <path d="M5.63744681,19.3908085 C5.6973617,19.1493191 5.92523404,19.0008936 6.15306383,19.027234 C6.3786383,19.0680851 6.54931915,19.2868511 6.53297872,19.5315319 C6.5152766,19.7866383 6.28195745,19.9713617 6.01280851,19.9241702 C5.74140426,19.8909787 5.5766383,19.6359149 5.63744681,19.3908085 Z" id="Path" fill="#000000"></path>
            <path d="M3.87314894,18.6708936 C4.00931915,18.4516596 4.26395745,18.3962979 4.47455319,18.4870638 C4.68106383,18.5846383 4.77051064,18.8588085 4.6792766,19.0862128 C4.58348936,19.3245106 4.30978723,19.414383 4.06378723,19.2968085 C3.81365957,19.185617 3.74421277,18.8774468 3.87314894,18.6708936 Z" id="Path" fill="#000000"></path>
            <path d="M2.41382979,17.4449362 C2.60582979,17.2824255 2.88408511,17.2901702 3.04068085,17.4567234 C3.21042553,17.6101277 3.21723404,17.8915745 3.05702128,18.0844681 C2.89680851,18.2769362 2.60268085,18.2851064 2.40157447,18.1012766 C2.21365957,17.9038298 2.22319149,17.6060426 2.41382979,17.4449362 Z" id="Path" fill="#000000"></path>
            <path d="M1.39757447,15.8317447 C1.62953191,15.7364255 1.89868085,15.8258298 1.99761702,16.0319149 C2.09702128,16.238 2.03621277,16.4971489 1.81970213,16.6342553 C1.6127234,16.7658723 1.31089362,16.6941702 1.19148936,16.4495319 C1.07255319,16.2039574 1.16561702,15.9270638 1.39757447,15.8317447 Z" id="Path" fill="#000000"></path>
            <path d="M0.935489362,13.9821277 C1.17923404,13.9639574 1.408,14.1319149 1.44429787,14.3579574 C1.46970213,14.5858298 1.33174468,14.813234 1.08617021,14.8758723 C0.846042553,14.937617 0.580978723,14.7764681 0.548297872,14.5054894 C0.505659574,14.2358298 0.679489362,14.001617 0.935489362,13.9821277 Z" id="Path" fill="#000000"></path>
        </g>
    </g>
</svg>