<?xml version="1.0" encoding="UTF-8"?>
<svg width="16px" height="16px" viewBox="0 0 16 16" version="1.1" xmlns="http://www.w3.org/2000/svg" xmlns:xlink="http://www.w3.org/1999/xlink">
    <!-- Generator: Sketch 62 (91390) - https://sketch.com -->
    <title>virus-problem-svgrepo-com</title>
    <desc>Created with Sketch.</desc>
    <g id="Page-1" stroke="none" stroke-width="1" fill="none" fill-rule="evenodd">
        <g id="virus-problem-svgrepo-com" fill-rule="nonzero">
            <g id="Group" transform="translate(0.332500, 0.332500)">
                <g fill="#565164">
                    <path d="M12.646375,8.8610625 C12.6132389,8.89473597 12.5799056,8.92804501 12.546375,8.9610625 C12.5641922,8.94356979 12.581878,8.9259313 12.5996952,8.90814705 L12.646375,8.8610625 L12.646375,8.8610625 Z M9.66659375,4.34006248 C10.1320938,4.34006248 10.5975313,4.5175625 10.9526875,4.87275 C11.1869688,5.10709375 11.3440313,5.389375 11.4234062,5.6881875 C11.5059687,5.99615625 11.5059687,6.32159375 11.4234062,6.62965625 C11.3440312,6.92840625 11.1869688,7.21075 10.9526875,7.44503125 C10.5975312,7.8001875 10.132,7.97778125 9.66653125,7.97778125 C9.20109375,7.97771875 8.73565625,7.8001875 8.3805,7.44503125 C8.14625,7.2106875 7.9891875,6.92834375 7.90975,6.62959375 C7.82725,6.321625 7.82725,5.996125 7.90975,5.688125 C7.9891875,5.389375 8.14625,5.107125 8.3805,4.87275 C8.73565625,4.5175625 9.20109375,4.34 9.66659375,4.34006248 L9.66659375,4.34006248 Z M9.7479375,9.99915625 C10.809875,9.9794375 11.79325,9.57403125 12.546375,8.9039375 C12.5396875,8.91 12.5328125,8.9159375 12.5260312,8.92190625 C11.7755937,9.5813125 10.8003125,9.9795625 9.7479375,9.99915625 L9.7479375,9.99915625 Z M9.66665625,11.3325938 C8.342625,11.3325938 7.124625,10.878375 6.1600625,10.1170938 C5.81028125,9.841 5.49378125,9.5245625 5.2176875,9.17471875 C4.4565,8.21028125 4.00225,6.99234375 4.00225,5.66834375 C4.00225,2.54003125 6.53828125,0.004 9.66665625,0.004 C12.7948437,0.004 15.3309375,2.54003125 15.3309375,5.66834375 C15.3309375,8.79675 12.7949375,11.3325938 9.66665625,11.3325938 Z" id="Shape"></path>
                    <path d="M5.19003125,11.0871875 L4.24765625,10.1448125 L4.01209375,9.9091875 L0.295625,13.6256875 C-0.093125,14.0144375 -0.093125,14.6505 0.295625,15.03925 C0.6844375,15.4280937 1.32053125,15.4280937 1.70921875,15.03925 L5.42575,11.3228125 L5.19003125,11.0871875 Z" id="Path"></path>
                </g>
                <path d="M5.2176875,9.1746875 L4.24765625,10.1448125 L5.19003125,11.0871875 L6.1600625,10.1170625 C5.8103125,9.841 5.49378125,9.5245625 5.2176875,9.1746875 Z" id="Path" fill="#FFCD85"></path>
                <path d="M5.33496875,5.66834375 C5.33496875,8.0605625 7.27428125,9.999875 9.66653125,9.999875 C9.66921875,9.999875 9.67203125,9.999875 9.67465625,9.999875 C10.7765313,9.99784375 11.7982188,9.58040625 12.57175,8.88128125 C12.5791563,8.8745625 12.5865,8.86784375 12.5939375,8.8610625 C12.8405625,8.635 13.0615938,8.38003125 13.25125,8.10065625 C13.7170938,7.41540625 13.9916563,6.58965625 13.9980938,5.70015625 L13.9980938,5.6901875 L13.9981875,5.668375 C13.9981875,3.27609375 12.058875,1.3368125 9.6665625,1.3368125 C8.4705,1.3368125 7.38759375,1.821625 6.60375,2.60546875 C5.82675,3.38240625 5.343625,4.45303125 5.335125,5.63659375 L5.33496875,5.66834375 L5.33496875,5.66834375 Z M8.38046875,4.87275 C8.73565625,4.5175625 9.20109375,4.34 9.66659375,4.34006248 C10.1320937,4.34006248 10.5975312,4.5175625 10.9526875,4.87275 C11.1869687,5.10709375 11.3440313,5.389375 11.4234062,5.6881875 C11.5059687,5.99615625 11.5059687,6.32159375 11.4236875,6.62971875 C11.3440625,6.928375 11.1869687,7.21071875 10.9526875,7.445 C10.5975312,7.80015625 10.132,7.97775 9.66653125,7.97775 C9.20109375,7.9776875 8.73565625,7.80015625 8.3805,7.445 C8.14625,7.21065625 7.9891875,6.9283125 7.90975,6.6295625 C7.82725,6.32159375 7.82725,5.99609375 7.9094375,5.68803125 C7.98915625,5.38934375 8.14621875,5.10709375 8.38046875,4.87275 Z" id="Shape" fill="#A7E2DE"></path>
                <g transform="translate(7.843750, 4.323750)" fill="#DD2645" id="Path">
                    <path d="M0.06596875,2.30578125 C0.14540625,2.60453125 0.30246875,2.886875 0.53671875,3.12121875 C0.89190625,3.476375 1.35734375,3.65390625 1.82275,3.65384377 L1.8228125,0.0163124835 C1.3573125,0.01625 0.891875,0.1938125 0.5366875,0.549 C0.3024375,0.78334375 0.145375,1.065625 0.0659375,1.364375 C-0.0165625,1.6723125 -0.0165625,1.99784375 0.06596875,2.30578125 Z"></path>
                    <path d="M1.82284375,0.0163125 L1.82278125,3.65384382 C2.28825,3.65396875 2.75378125,3.476375 3.1089375,3.12121875 C3.34321875,2.8869375 3.50028125,2.60459375 3.57965625,2.30584375 C3.66221875,1.9978125 3.66221875,1.672375 3.57965625,1.364375 C3.50028125,1.0655625 3.34321875,0.78328125 3.1089375,0.5489375 C2.75378125,0.1938125 2.28834375,0.0163125 1.82284375,0.0163125 Z"></path>
                </g>
            </g>
            <g id="Group" fill="#000003">
                <path d="M9.99915625,3.125e-05 C6.69025,3.125e-05 3.99825,2.69196875 3.99825,6.000875 C3.99825,7.294 4.40940625,8.492875 5.1078125,9.4736875 L4.58003125,10.0015 C4.51715625,9.939875 4.4326875,9.90521875 4.3445625,9.90521875 C4.2553125,9.90521875 4.1696875,9.9406875 4.1065625,10.0038125 L0.3901875,13.7202188 C0.1385625,13.97175 0,14.3073125 0,14.665 C0,15.0226875 0.1385625,15.3581875 0.3901875,15.6097812 C0.64178125,15.8614062 0.97728125,16 1.335,16 C1.69265625,16 2.02821875,15.8614062 2.27975,15.6097812 L5.99621875,11.8933437 C6.05934375,11.83025 6.09484375,11.744625 6.09484375,11.6553438 C6.09484375,11.5671875 6.06015625,11.4826875 5.9985,11.4197812 L6.52615625,10.8920625 C7.5070625,11.5905625 8.70603125,12.0017813 9.9991875,12.0017813 C13.3080313,12.00175 16,9.30978125 16,6.00084375 C16,2.69196875 13.308,3.125e-05 9.99915625,3.125e-05 Z M1.80371875,15.1338438 C1.6793125,15.2582813 1.5128125,15.3268438 1.335,15.3268438 C1.157125,15.3268438 0.99059375,15.2582812 0.86609375,15.1338125 C0.607625,14.8753125 0.607625,14.4546562 0.86615625,14.1961875 L4.3445625,10.7177187 L5.28221875,11.655375 L1.80371875,15.1338438 Z M5.52259375,10.9436875 L5.05615625,10.4773125 L5.5311875,10.00225 C5.6780625,10.1660937 5.83375,10.3217813 5.99759375,10.4686563 L5.52259375,10.9436875 Z M9.99915625,11.328625 C7.06140625,11.328625 4.671375,8.93859375 4.671375,6.00084375 C4.671375,3.06315625 7.06140625,0.673125 9.99915625,0.673125 C12.9368437,0.673125 15.326875,3.063125 15.326875,6.00084375 C15.326875,8.9385625 12.936875,11.328625 9.99915625,11.328625 Z" id="Shape"></path>
                <path d="M6.69825,2.6999375 C6.07621875,3.32190625 5.64390625,4.10415625 5.44809375,4.962 C5.4066875,5.14321875 5.52009375,5.323625 5.70128125,5.36503125 C5.72646875,5.37078125 5.751625,5.37353125 5.77646875,5.37353125 C5.92996875,5.37353125 6.0686875,5.26778125 6.10428125,5.1118125 C6.27184375,4.377625 6.64184375,3.70825 7.1741875,3.1759375 C7.305625,3.04453125 7.30565625,2.8314375 7.1741875,2.69996875 C7.04278125,2.5685625 6.8296875,2.56853125 6.69825,2.6999375 Z" id="Path"></path>
                <path d="M14.2969062,6.636625 C14.1156562,6.59521875 13.93525,6.70865625 13.893875,6.88984375 C13.4764687,8.71859375 11.8748438,9.99578125 9.9990625,9.99578125 C9.8131875,9.99578125 9.6625,10.1465 9.6625,10.3323438 C9.6625,10.5182188 9.8131875,10.6689063 9.9990625,10.6689063 C11.0524062,10.6689063 12.0860312,10.3072188 12.9095625,9.6505 C13.7330938,8.99371875 14.3157188,8.0665 14.550125,7.03959375 C14.5914688,6.85840625 14.478125,6.67796875 14.2969062,6.636625 Z" id="Path"></path>
                <path d="M9.99909375,8.64675 C10.461,8.64675 10.9005,8.502125 11.2665312,8.234875 L11.4610937,8.429375 C11.5267812,8.49509375 11.6129375,8.52796875 11.6990312,8.52796875 C11.7851875,8.52796875 11.8713125,8.49515625 11.9370625,8.429375 C12.0684687,8.2979375 12.0684687,8.08484375 11.9370625,7.953375 L11.7424375,7.75875 C11.8325,7.63496875 11.9074062,7.50359375 11.967875,7.36728125 L12.2342812,7.438625 C12.2634687,7.4464375 12.29275,7.4501875 12.3215937,7.4501875 C12.4702187,7.4501875 12.6062187,7.351 12.6464687,7.200625 C12.6945625,7.02109375 12.588,6.8365625 12.4084687,6.7884375 L12.1413125,6.716875 C12.1569687,6.56690625 12.1569687,6.4156875 12.1413125,6.26575 L12.4084687,6.19415625 C12.588,6.1460625 12.6945625,5.96153125 12.6464687,5.78196875 C12.598375,5.6024375 12.4137812,5.49575 12.2342812,5.54396875 L11.9678437,5.61534375 C11.9074375,5.47903125 11.8324687,5.3476875 11.7424062,5.223875 L11.9370625,5.0291875 C12.0684687,4.89775 12.0684687,4.6846875 11.937,4.55321875 C11.8055937,4.4218125 11.5925,4.42178125 11.4610312,4.55325 L11.2665,4.7478125 C11.0477187,4.58809375 10.80275,4.47228125 10.5422812,4.40490625 L10.8569687,3.8599375 C10.9499375,3.69896875 10.89475,3.493125 10.7337812,3.4001875 C10.572875,3.30725 10.367,3.36240625 10.2740312,3.523375 L9.999125,3.9995 L9.72409375,3.5231875 C9.631125,3.36225 9.42525,3.30709375 9.26434375,3.40003125 C9.103375,3.493 9.0481875,3.6988125 9.14115625,3.85978125 L9.45590625,4.40484375 C9.1954375,4.4721875 8.95034375,4.58796875 8.7315625,4.74775 L8.537,4.5531875 C8.40559375,4.42175 8.1925,4.42175 8.06103125,4.55315625 C7.92959375,4.68459375 7.9295625,4.89765625 8.061,5.029125 L8.255625,5.2238125 C8.1655625,5.34759375 8.09065625,5.47896875 8.0301875,5.61528125 L7.76378125,5.54390625 C7.58425,5.49575 7.3996875,5.60234375 7.35159375,5.78190625 C7.3035,5.96146875 7.4100625,6.146 7.58959375,6.19409375 L7.85675,6.2656875 C7.84109375,6.415625 7.84109375,6.56684375 7.85675,6.7168125 L7.58959375,6.788375 C7.4100625,6.8365 7.3035,7.02103125 7.35159375,7.2005625 C7.39184375,7.3509375 7.52784375,7.450125 7.67646875,7.450125 C7.70525,7.450125 7.73459375,7.446375 7.76378125,7.4385625 L8.0301875,7.36721875 C8.090625,7.50353125 8.16553125,7.634875 8.255625,7.7586875 L8.061,7.9533125 C7.92959375,8.08475 7.92959375,8.29784375 8.061,8.4293125 C8.12671875,8.49503125 8.21284375,8.52790625 8.299,8.52790625 C8.38515625,8.52790625 8.47125,8.49509375 8.537,8.4293125 L8.73153125,8.23478125 C9.097625,8.502125 9.53715625,8.64675 9.99909375,8.64675 Z M8.95090625,5.44321875 C9.14971875,5.24440625 9.39515625,5.1094375 9.66246875,5.04765625 L9.66246875,7.935 C9.39525,7.87321875 9.1498125,7.73828125 8.95103125,7.53953125 C8.951,7.5395 8.9509375,7.53946875 8.9509375,7.5394375 C8.950875,7.53940625 8.95084375,7.539375 8.9508125,7.53934375 C8.37296875,6.961375 8.3730625,6.0210625 8.95090625,5.44321875 Z M11.0472812,7.53934375 C11.0472187,7.539375 11.0471875,7.53940625 11.0471562,7.5394375 C11.047125,7.53946875 11.0470937,7.5395 11.0470625,7.53953125 C10.84825,7.73828125 10.602875,7.87321875 10.3355625,7.93503125 L10.3355625,5.047625 C10.602875,5.10940625 10.8483437,5.24440625 11.0471562,5.44321875 C11.6250312,6.0210625 11.6250625,6.961375 11.0472812,7.53934375 Z" id="Shape"></path>
                <path d="M5.6696875,5.6325 C5.66896875,5.6325 5.66828125,5.6325 5.6675625,5.6325 C5.4826875,5.6325 5.33221875,5.78184375 5.33103125,5.96696875 L5.33096875,6.000875 C5.33096875,6.18671875 5.48165625,6.3374375 5.66753125,6.3374375 C5.85340625,6.3374375 6.00409375,6.18671875 6.00409375,6.000875 L6.00415625,5.97115625 C6.00534375,5.78528125 5.85559375,5.63365625 5.6696875,5.6325 Z" id="Path"></path>
                <path d="M14.3306563,5.66428125 C14.1447813,5.66428125 13.9940938,5.81496875 13.9940938,6.00084375 L13.9940313,6.03003125 C13.9925938,6.215875 14.142125,6.36775 14.3279688,6.3691875 C14.3288438,6.3691875 14.32975,6.3691875 14.3305938,6.3691875 C14.5152813,6.3691875 14.6657187,6.22021875 14.6670937,6.03521875 L14.6672187,6.00084375 C14.6672187,5.81496875 14.5165312,5.66428125 14.3306563,5.66428125 Z" id="Path"></path>
            </g>
        </g>
    </g>
</svg>