<?xml version="1.0" encoding="UTF-8"?>
<svg width="20px" height="20px" viewBox="0 0 20 20" version="1.1" xmlns="http://www.w3.org/2000/svg"
     xmlns:xlink="http://www.w3.org/1999/xlink">
    <!-- Generator: Sketch 62 (91390) - https://sketch.com -->
    <title>insert-code</title>
    <desc>Created with Sketch.</desc>
    <g id="Page-1" stroke="none" stroke-width="1" fill="none" fill-rule="evenodd" fill-opacity="0.5">
        <g id="insert-code" fill="#000000" fill-rule="nonzero">
            <path d="M19.9844372,0.865604729 C19.9844372,0.388303771 19.5826197,0 19.0886964,0 L11.2008973,0 C10.7070233,0 10.3051565,0.388303771 10.3051565,0.865604729 L10.3051565,4.08102075 L0.888648161,4.08102075 C0.411422131,4.08102075 0.0245779532,4.45480894 0.0245779532,4.91592859 L0.0245779532,19.1650922 C0.0245779532,19.6261642 0.411422131,20 0.888648161,20 L15.6355186,20 C16.1126954,20 16.4995888,19.6262118 16.4995888,19.1650922 L16.4995888,15.3083729 L19.0886472,15.3083729 C19.5825212,15.3083729 19.9844372,14.9200691 19.9844372,14.4427681 L19.9844372,5.40565108 C19.9844372,5.40217686 19.9844372,5.39870264 19.9844372,5.39518083 L19.9844372,0.865604729 Z M14.7715469,18.3302319 L1.75271837,18.3302319 L1.75271837,5.75083643 L10.3052058,5.75083643 L10.3052058,8.87549436 L8.42659313,8.87549436 C8.30912135,8.87549436 8.19869295,8.92946378 8.12914572,9.02084057 L5.96648285,11.8597557 L4.90800547,11.1070393 C4.80181295,11.0314631 4.6618319,11.0164716 4.5408138,11.0675855 C4.41999272,11.1186518 4.33650649,11.228304 4.32187792,11.3549941 L3.79692437,15.9126019 C3.7822958,16.0393872 3.83879062,16.1640309 3.94508165,16.2396071 C4.00965419,16.2855334 4.08658958,16.3090439 4.16411603,16.3090439 C4.21425703,16.3090439 4.26464429,16.2991924 4.3121748,16.2791085 L8.65976353,14.4401506 C8.78068312,14.3890843 8.86416936,14.2794321 8.87879792,14.1526944 C8.89342648,14.0259567 8.83693166,13.9013607 8.73064064,13.8257368 L7.67226176,13.0729729 L9.31075914,10.9220489 L10.305255,10.9220489 L10.305255,14.4428633 C10.305255,14.9201167 10.7070726,15.3084681 11.2009958,15.3084681 L14.7715469,15.3084681 L14.7715469,18.3302319 L14.7715469,18.3302319 L14.7715469,18.3302319 Z"
                  id="Shape"></path>
        </g>
    </g>
</svg>