<?xml version="1.0" encoding="UTF-8"?>
<svg width="16px" height="16px" viewBox="0 0 16 16" version="1.1" xmlns="http://www.w3.org/2000/svg"
     xmlns:xlink="http://www.w3.org/1999/xlink">
    <g stroke="none" stroke-width="1" fill="none" fill-rule="evenodd">
        <g id="insert-code" fill="#AFB1B3" fill-rule="nonzero">
            <path d="M15.9875498,0.692483783 C15.9875498,0.310643017 15.6660958,0 15.2709571,0 L8.96071784,0 C8.56561864,0 8.2441252,0.310643017 8.2441252,0.692483783 L8.2441252,3.2648166 L0.710918529,3.2648166 C0.329137705,3.2648166 0.0196623626,3.56384715 0.0196623626,3.93274287 L0.0196623626,15.3320738 C0.0196623626,15.7009314 0.329137705,16 0.710918529,16 L12.5084149,16 C12.8901563,16 13.199671,15.7009694 13.199671,15.3320738 L13.199671,12.2466983 L15.2709178,12.2466983 C15.666017,12.2466983 15.9875498,11.9360553 15.9875498,11.5542145 L15.9875498,4.32452086 C15.9875498,4.32174149 15.9875498,4.31896211 15.9875498,4.31614466 L15.9875498,0.692483783 Z M11.8172375,14.6641855 L1.4021747,14.6641855 L1.4021747,4.60066914 L8.24416464,4.60066914 L8.24416464,7.10039549 L6.7412745,7.10039549 C6.64729708,7.10039549 6.55895436,7.14357102 6.50331658,7.21667246 L4.77318628,9.48780456 L3.92640438,8.88563144 C3.84145036,8.82517048 3.72946552,8.81317728 3.63265104,8.8540684 C3.53599418,8.89492144 3.46920519,8.9826432 3.45750234,9.08399528 L3.0375395,12.7300815 C3.02583664,12.8315098 3.0710325,12.9312247 3.15606532,12.9916857 C3.20772335,13.0284267 3.26927166,13.0472351 3.33129282,13.0472351 C3.37140562,13.0472351 3.41171543,13.0393539 3.44973984,13.0232868 L6.92781082,11.5521205 C7.0245465,11.5112674 7.09133549,11.4235457 7.10303834,11.3221555 C7.11474118,11.2207654 7.06954533,11.1210886 6.98451251,11.0605894 L6.13780941,10.4583783 L7.44860731,8.73763912 L8.244204,8.73763912 L8.244204,11.5542906 C8.244204,11.9360934 8.56565808,12.2467745 8.96079664,12.2467745 L11.8172375,12.2467745 L11.8172375,14.6641855 L11.8172375,14.6641855 L11.8172375,14.6641855 Z"
                  id="Shape"></path>
        </g>
    </g>
</svg>