<?xml version="1.0" encoding="UTF-8"?>
<svg width="16px" height="16px" viewBox="0 0 16 16" version="1.1" xmlns="http://www.w3.org/2000/svg" xmlns:xlink="http://www.w3.org/1999/xlink">
    <!-- Generator: Sketch 62 (91390) - https://sketch.com -->
    <title>ai-copilot</title>
    <desc>Created with Sketch.</desc>
    <g id="Page-1" stroke="none" stroke-width="1" fill="none" fill-rule="evenodd">
        <g id="ai-copilot" fill-rule="nonzero">
            <g id="Group" transform="translate(8.000000, 8.000000) scale(-1, 1) rotate(-180.000000) translate(-8.000000, -8.000000) translate(0.000000, -0.000000)" fill="#4980AD">
                <path d="M3.86595918,15.9310092 C3.66955102,15.8161876 3.64081633,15.6534149 3.64081633,14.5958818 L3.64081633,13.5908665 L3.28636735,13.5908665 C3.0037551,13.5908665 2.90791837,13.5717839 2.77861224,13.4855046 C2.49126531,13.2892966 2.41926531,13.1457696 2.40016327,12.7246483 L2.38579592,12.3465851 L1.37959184,12.3465851 C0.0382040816,12.3465851 -9.2805582e-17,12.3275025 -9.2805582e-17,11.628787 C-9.2805582e-17,11.2603466 0.00963265304,11.2316412 0.138938776,11.0975739 L0.277877551,10.9587768 L1.3364898,10.9587768 L2.39510204,10.9587768 L2.39510204,10.4371865 L2.39510204,9.91070336 L1.3124898,9.89635068 L0.229877551,9.88199796 L0.114938776,9.74809376 C0.0143673469,9.6283792 -9.2805582e-17,9.56623852 -9.2805582e-17,9.20725792 C-9.2805582e-17,8.81957188 0.00473469388,8.79086648 0.138938776,8.65696228 L0.277877551,8.51816516 L1.3364898,8.51816516 L2.39510204,8.51816516 L2.39510204,7.99184508 L2.39510204,7.46536188 L1.3364898,7.46536188 L0.277877551,7.46536188 L0.138938776,7.32656472 C0.00473469388,7.19266056 -9.2805582e-17,7.16395516 -9.2805582e-17,6.77626912 C-9.2805582e-17,6.41728848 0.0143673469,6.3551478 0.114938776,6.23543324 L0.229877551,6.10152904 L1.3124898,6.08717636 L2.39510204,6.07282364 L2.39510204,5.54634048 L2.39510204,5.02475024 L1.3364898,5.02475024 L0.277877551,5.02475024 L0.138938776,4.88595312 C0.00963265304,4.75204892 -9.2805582e-17,4.72334352 -9.2805582e-17,4.35474008 C-9.2805582e-17,3.65602446 0.0383673469,3.6369419 1.38922449,3.6369419 L2.39526531,3.6369419 L2.39526531,3.28285423 C2.39526531,3.00053007 2.41436735,2.90479103 2.50546939,2.77561672 C2.69714286,2.48856269 2.84081633,2.41663609 3.26236735,2.39755352 L3.64081633,2.38320082 L3.64081633,1.37818552 C3.64081633,0.0381651376 3.66481633,0 4.38808164,0 C4.72342856,0 4.76179592,0.00962283384 4.89110204,0.138797146 L5.0300408,0.277594292 L5.0300408,1.33529052 L5.0300408,2.39282365 L5.55216328,2.39282365 L6.07918368,2.39282365 L6.093551,1.31131498 L6.10791836,0.22980632 L6.24212244,0.114984709 C6.3619592,0.0145158002 6.42416328,0.000163098879 6.7835102,0.000163098879 C7.17159184,0.000163098879 7.20032652,0.00489296636 7.33436736,0.138960245 L7.47330612,0.27775739 L7.47330612,1.33545362 L7.47330612,2.39298675 L8,2.39298675 L8.5270204,2.39298675 L8.5270204,1.33545362 L8.5270204,0.27775739 L8.6659592,0.138960245 C8.8,0.00489296636 8.82873468,0.000163098879 9.21681632,0.000163098879 C9.57616328,0.000163098879 9.63836736,0.0145158002 9.75820408,0.114984709 L9.89224492,0.22980632 L9.90661224,1.31131498 L9.9209796,2.39282365 L10.448,2.39282365 L10.9701224,2.39282365 L10.9701224,1.33529052 L10.9701224,0.277594292 L11.1090612,0.138797146 C11.2383673,0.00962283384 11.2767347,0 11.6120816,0 C12.3353469,0 12.3593469,0.0383282365 12.3593469,1.37818552 L12.3593469,2.38320082 L12.7377959,2.39755352 C13.1449796,2.41663609 13.2839184,2.48366972 13.4803265,2.74691131 C13.556898,2.84738022 13.5856327,2.9670948 13.6,3.2588787 L13.6143673,3.6369419 L14.6204082,3.6369419 C15.9617959,3.6369419 16,3.66091743 16,4.38344548 C16,4.71845056 15.9903673,4.7567788 15.8610612,4.88595312 L15.7221224,5.02475024 L14.6633469,5.02475024 L13.6047347,5.02475024 L13.6047347,5.54634048 L13.6047347,6.07282364 L14.6873469,6.08717636 L15.7699592,6.10152904 L15.884898,6.23543324 C15.9854694,6.3551478 15.9998367,6.41728848 15.9998367,6.77626912 C15.9998367,7.16395516 15.995102,7.19266056 15.860898,7.32656472 L15.7219592,7.46536188 L14.6631837,7.46536188 L13.6045714,7.46536188 L13.6045714,7.99184508 L13.6045714,8.51832824 L14.6631837,8.51832824 L15.7219592,8.51832824 L15.860898,8.6571254 C15.995102,8.79119268 15.9998367,8.81989804 15.9998367,9.207421 C15.9998367,9.56640164 15.9854694,9.62854228 15.884898,9.74825688 L15.7699592,9.88216108 L14.6873469,9.89651376 L13.6047347,9.91086644 L13.6047347,10.4373496 L13.6047347,10.9589399 L14.6633469,10.9589399 L15.7221224,10.9589399 L15.8610612,11.097737 C15.9903673,11.2318043 16,11.2605097 16,11.6289501 C16,12.3276656 15.9616327,12.3467482 14.6107755,12.3467482 L13.6047347,12.3467482 L13.6047347,12.7008359 C13.6047347,12.98316 13.5856327,13.0788991 13.4945306,13.2129664 C13.3028571,13.5000204 13.1113469,13.5910296 12.7136327,13.5910296 L12.3591837,13.5910296 L12.3591837,14.5960449 C12.3591837,15.945525 12.3400816,15.9838532 11.6406531,15.9838532 C11.2718367,15.9838532 11.243102,15.9742304 11.108898,15.8450561 L10.9699592,15.7062589 L10.9699592,14.6487258 L10.9699592,13.5911927 L10.4478367,13.5911927 L9.92081632,13.5911927 L9.906449,14.6727013 L9.89208164,15.75421 L9.7580408,15.8690316 C9.63820408,15.9695005 9.576,15.9838532 9.21665308,15.9838532 C8.82857144,15.9838532 8.79983672,15.9791233 8.66579592,15.8450561 L8.52685716,15.7062589 L8.52685716,14.6487258 L8.52685716,13.5911927 L8,13.5911927 L7.4729796,13.5911927 L7.4729796,14.6487258 L7.4729796,15.7062589 L7.3340408,15.8450561 C7.19983672,15.9789602 7.17110204,15.9838532 6.78318368,15.9838532 C6.42383672,15.9838532 6.36163264,15.9695005 6.24179592,15.8690316 L6.10759184,15.75421 L6.09322448,14.6727013 L6.07885716,13.5911927 L5.55183672,13.5911927 L5.02971428,13.5911927 L5.02971428,14.6487258 L5.02971428,15.7062589 L4.89077552,15.8450561 C4.75657144,15.9742304 4.72783672,15.9838532 4.34938776,15.9838532 C4.12930612,15.9836901 3.91379592,15.9597146 3.86595918,15.9310092 Z" id="Shape"></path>
            </g>
            <path d="M8.0856,9.6 C8.19386668,9.6 8.27506668,9.558 8.3292,9.474 C8.38333332,9.39 8.38986668,9.29573332 8.3488,9.1912 L8.3488,9.1912 L6.7696,5.4224 C6.72106668,5.29173332 6.6296,5.2264 6.4952,5.2264 C6.36826668,5.2264 6.2768,5.29173332 6.2208,5.4224 L6.2208,5.4224 L4.6472,9.18 C4.6024,9.2808 4.608,9.376 4.664,9.4656 C4.72,9.5552 4.80026668,9.6 4.9048,9.6 C4.95706668,9.6 5.0084,9.58506668 5.0588,9.5552 C5.1092,9.52533332 5.14746668,9.48053332 5.1736,9.4208 L5.1736,9.4208 L5.494,8.6372 L7.5012,8.6372 L7.8168,9.4208 C7.8336,9.4628 7.858275,9.497975 7.890825,9.526325 L7.926,9.5524 C7.9764,9.58413332 8.0296,9.6 8.0856,9.6 Z M7.3072,8.1552 L5.6912,8.1552 L6.5056,6.1648 L7.3072,8.1552 Z M11.1264,10.1712 C11.2010667,10.1712 11.2664,10.1432 11.3224,10.0872 C11.3784,10.0312 11.4064,9.964 11.4064,9.8856 C11.4064,9.80346668 11.3784,9.73533332 11.3224,9.6812 C11.2664,9.62706668 11.2010667,9.6 11.1264,9.6 L11.1264,9.6 L8.5,9.6 C8.41786668,9.6 8.34973332,9.62706668 8.2956,9.6812 C8.24146668,9.73533332 8.2144,9.80346668 8.2144,9.8856 C8.2144,9.964 8.24146668,10.0312 8.2956,10.0872 C8.34973332,10.1432 8.41786668,10.1712 8.5,10.1712 L8.5,10.1712 L11.1264,10.1712 Z" id="A_" fill="#ffffff"></path>
        </g>
    </g>
</svg>