<?xml version="1.0" encoding="UTF-8"?>
<svg width="16px" height="10px" viewBox="0 0 16 10" version="1.1" xmlns="http://www.w3.org/2000/svg" xmlns:xlink="http://www.w3.org/1999/xlink">
    <!-- Generator: Sketch 62 (91390) - https://sketch.com -->
    <title>a2a-logo-black</title>
    <desc>Created with Sketch.</desc>
    <g id="Page-1" stroke="none" stroke-width="1" fill="none" fill-rule="evenodd">
        <g id="a2a-logo-black" fill="#000000">
            <path d="M3.04,3.05333333 C2.942224,3.15109333 2.817776,3.2 2.66666667,3.2 C2.51555733,3.2 2.38666667,3.15109333 2.28,3.05333333 C2.182224,2.94666667 2.13333333,2.81776 2.13333333,2.66666667 C2.13333333,2.51557333 2.182224,2.39109333 2.28,2.29333333 C2.38666667,2.18666667 2.51555733,2.13333333 2.66666667,2.13333333 C2.817776,2.13333333 2.942224,2.18666667 3.04,2.29333333 C3.14666667,2.39109333 3.2,2.51557333 3.2,2.66666667 C3.2,2.81776 3.14666667,2.94666667 3.04,3.05333333 Z" id="Path" fill-rule="nonzero"></path>
            <path d="M6.24,3.05333333 C6.14224,3.15109333 6.01776,3.2 5.86666667,3.2 C5.71557333,3.2 5.58666667,3.15109333 5.48,3.05333333 C5.38224,2.94666667 5.33333333,2.81776 5.33333333,2.66666667 C5.33333333,2.51557333 5.38224,2.39109333 5.48,2.29333333 C5.58666667,2.18666667 5.71557333,2.13333333 5.86666667,2.13333333 C6.01776,2.13333333 6.14224,2.18666667 6.24,2.29333333 C6.34666667,2.39109333 6.4,2.51557333 6.4,2.66666667 C6.4,2.81776 6.34666667,2.94666667 6.24,3.05333333 Z" id="Path" fill-rule="nonzero"></path>
            <path d="M10.5066667,3.05333333 C10.4089067,3.15109333 10.2844267,3.2 10.1333333,3.2 C9.98224,3.2 9.85333333,3.15109333 9.74666667,3.05333333 C9.64890667,2.94666667 9.6,2.81776 9.6,2.66666667 C9.6,2.51557333 9.64890667,2.39109333 9.74666667,2.29333333 C9.85333333,2.18666667 9.98224,2.13333333 10.1333333,2.13333333 C10.2844267,2.13333333 10.4089067,2.18666667 10.5066667,2.29333333 C10.6133333,2.39109333 10.6666667,2.51557333 10.6666667,2.66666667 C10.6666667,2.81776 10.6133333,2.94666667 10.5066667,3.05333333 Z" id="Path" fill-rule="nonzero"></path>
            <path d="M13.7066667,3.05333333 C13.6089067,3.15109333 13.4844267,3.2 13.3333333,3.2 C13.18224,3.2 13.0533333,3.15109333 12.9466667,3.05333333 C12.8489067,2.94666667 12.8,2.81776 12.8,2.66666667 C12.8,2.51557333 12.8489067,2.39109333 12.9466667,2.29333333 C13.0533333,2.18666667 13.18224,2.13333333 13.3333333,2.13333333 C13.4844267,2.13333333 13.6089067,2.18666667 13.7066667,2.29333333 C13.8133333,2.39109333 13.8666667,2.51557333 13.8666667,2.66666667 C13.8666667,2.81776 13.8133333,2.94666667 13.7066667,3.05333333 Z" id="Path" fill-rule="nonzero"></path>
            <path d="M1.06666667,2.66666667 C1.06666667,1.78298667 1.78301333,1.06666667 2.66666667,1.06666667 L5.86666667,1.06666667 C6.28053333,1.06666667 6.55146667,1.14864 6.74133333,1.27029333 C6.85808,0.9568 7.01424,0.62448 7.22933333,0.318906667 C6.86917333,0.112816 6.42058667,0 5.86666667,0 L2.66666667,0 C1.19390933,0 0,1.19392 0,2.66666667 C0,4.13930667 1.19338133,5.33333333 2.666272,5.33333333 L5.86666667,5.33333333 C6.80714667,5.33333333 7.44389333,5.00810667 7.86,4.45333333 C8.22549333,3.96602667 8.38122667,3.34186667 8.50576,2.84261333 L8.51738667,2.796 C8.65744,2.23594667 8.77024,1.81744 8.99333333,1.52 C9.17722667,1.27477333 9.47381333,1.06666667 10.1333333,1.06666667 L13.3336,1.06666667 C14.2171733,1.06666667 14.9333333,1.78293333 14.9333333,2.66666667 C14.9333333,3.55034667 14.2170133,4.26666667 13.3333333,4.26666667 L10.1333333,4.26666667 C9.71946667,4.26666667 9.44853333,4.18469333 9.25866667,4.06304 C9.14192,4.37653333 8.98576,4.70885333 8.77066667,5.0144 C9.13082667,5.22053333 9.57941333,5.33333333 10.1333333,5.33333333 L13.3333333,5.33333333 C14.80608,5.33333333 16,4.13941333 16,2.66666667 C16,1.19402667 14.8064533,0 13.3336,0 L10.1333333,0 C9.19285333,0 8.55610667,0.325221333 8.14,0.88 C7.77450667,1.36730667 7.61877333,1.99146667 7.49424,2.49072 L7.48261333,2.53733333 C7.34256,3.09738667 7.22976,3.51589333 7.00666667,3.81333333 C6.82277333,4.05856 6.52618667,4.26666667 5.86666667,4.26666667 L2.666272,4.26666667 C1.78274667,4.26666667 1.06666667,3.55045333 1.06666667,2.66666667 Z" id="Path"></path>
            <path d="M2.13333333,7.73333333 C1.982224,7.73333333 1.85333333,7.68442667 1.74666667,7.58666667 C1.64889067,7.48 1.6,7.35109333 1.6,7.2 C1.6,7.04890667 1.64889067,6.92442667 1.74666667,6.82666667 C1.85333333,6.72 1.982224,6.66666667 2.13333333,6.66666667 L4.8,6.66666667 C4.95109333,6.66666667 5.07557333,6.72 5.17333333,6.82666667 C5.28,6.92442667 5.33333333,7.04890667 5.33333333,7.2 C5.33333333,7.35109333 5.28,7.48 5.17333333,7.58666667 C5.07557333,7.68442667 4.95109333,7.73333333 4.8,7.73333333 L2.13333333,7.73333333 Z M1.06666667,9.86666667 C0.915557333,9.86666667 0.786666667,9.81776 0.68,9.72 C0.582224,9.61333333 0.533333333,9.48442667 0.533333333,9.33333333 C0.533333333,9.18224 0.582224,9.05776 0.68,8.96 C0.786666667,8.85333333 0.915557333,8.8 1.06666667,8.8 L2.66666667,8.8 C2.817776,8.8 2.942224,8.85333333 3.04,8.96 C3.14666667,9.05776 3.2,9.18224 3.2,9.33333333 C3.2,9.48442667 3.14666667,9.61333333 3.04,9.72 C2.942224,9.81776 2.817776,9.86666667 2.66666667,9.86666667 L1.06666667,9.86666667 Z M4.8,9.86666667 C4.64890667,9.86666667 4.52,9.81776 4.41333333,9.72 C4.31557333,9.61333333 4.26666667,9.48442667 4.26666667,9.33333333 C4.26666667,9.18224 4.31557333,9.05776 4.41333333,8.96 C4.52,8.85333333 4.64890667,8.8 4.8,8.8 L9.06666667,8.8 C9.21776,8.8 9.34224,8.85333333 9.44,8.96 C9.54666667,9.05776 9.6,9.18224 9.6,9.33333333 C9.6,9.48442667 9.54666667,9.61333333 9.44,9.72 C9.34224,9.81776 9.21776,9.86666667 9.06666667,9.86666667 L4.8,9.86666667 Z M13.3333333,9.86666667 C13.18224,9.86666667 13.0533333,9.81776 12.9466667,9.72 C12.8489067,9.61333333 12.8,9.48442667 12.8,9.33333333 C12.8,9.18224 12.8489067,9.05776 12.9466667,8.96 C13.0533333,8.85333333 13.18224,8.8 13.3333333,8.8 L15.4666667,8.8 C15.61776,8.8 15.74224,8.85333333 15.84,8.96 C15.9466667,9.05776 16,9.18224 16,9.33333333 C16,9.48442667 15.9466667,9.61333333 15.84,9.72 C15.74224,9.81776 15.61776,9.86666667 15.4666667,9.86666667 L13.3333333,9.86666667 Z M6.93333333,7.73333333 C6.78224,7.73333333 6.65333333,7.68442667 6.54666667,7.58666667 C6.44890667,7.48 6.4,7.35109333 6.4,7.2 C6.4,7.04890667 6.44890667,6.92442667 6.54666667,6.82666667 C6.65333333,6.72 6.78224,6.66666667 6.93333333,6.66666667 C7.08442667,6.66666667 7.20890667,6.72 7.30666667,6.82666667 C7.41333333,6.92442667 7.46666667,7.04890667 7.46666667,7.2 C7.46666667,7.35109333 7.41333333,7.48 7.30666667,7.58666667 C7.20890667,7.68442667 7.08442667,7.73333333 6.93333333,7.73333333 Z M11.2,9.86666667 C11.0489067,9.86666667 10.92,9.81776 10.8133333,9.72 C10.7155733,9.61333333 10.6666667,9.48442667 10.6666667,9.33333333 C10.6666667,9.18224 10.7155733,9.05776 10.8133333,8.96 C10.92,8.85333333 11.0489067,8.8 11.2,8.8 C11.3510933,8.8 11.4755733,8.85333333 11.5733333,8.96 C11.68,9.05776 11.7333333,9.18224 11.7333333,9.33333333 C11.7333333,9.48442667 11.68,9.61333333 11.5733333,9.72 C11.4755733,9.81776 11.3510933,9.86666667 11.2,9.86666667 Z" id="Shape" fill-rule="nonzero"></path>
            <path d="M8.68,7.58666667 C8.78666667,7.68442667 8.91557333,7.73333333 9.06666667,7.73333333 L10.6666667,7.73333333 C10.81776,7.73333333 10.94224,7.68442667 11.04,7.58666667 C11.1466667,7.48 11.2,7.35109333 11.2,7.2 C11.2,7.04890667 11.1466667,6.92442667 11.04,6.82666667 C10.94224,6.72 10.81776,6.66666667 10.6666667,6.66666667 L9.06666667,6.66666667 C8.91557333,6.66666667 8.78666667,6.72 8.68,6.82666667 C8.58224,6.92442667 8.53333333,7.04890667 8.53333333,7.2 C8.53333333,7.35109333 8.58224,7.48 8.68,7.58666667 Z" id="Path" fill-rule="nonzero"></path>
            <path d="M12.4133333,7.58666667 C12.52,7.68442667 12.6489067,7.73333333 12.8,7.73333333 L14.4,7.73333333 C14.5510933,7.73333333 14.6755733,7.68442667 14.7733333,7.58666667 C14.88,7.48 14.9333333,7.35109333 14.9333333,7.2 C14.9333333,7.04890667 14.88,6.92442667 14.7733333,6.82666667 C14.6755733,6.72 14.5510933,6.66666667 14.4,6.66666667 L12.8,6.66666667 C12.6489067,6.66666667 12.52,6.72 12.4133333,6.82666667 C12.3155733,6.92442667 12.2666667,7.04890667 12.2666667,7.2 C12.2666667,7.35109333 12.3155733,7.48 12.4133333,7.58666667 Z" id="Path" fill-rule="nonzero"></path>
        </g>
    </g>
</svg>