<?xml version="1.0" encoding="UTF-8"?>
<svg width="17px" height="17px" viewBox="0 0 17 17" version="1.1" xmlns="http://www.w3.org/2000/svg" xmlns:xlink="http://www.w3.org/1999/xlink">
    <!-- Generator: Sketch 62 (91390) - https://sketch.com -->
    <title>ruler-cross-pen-svgrepo-com</title>
    <desc>Created with Sketch.</desc>
    <g id="Page-1" stroke="none" stroke-width="1" fill="none" fill-rule="evenodd">
        <g id="ruler-cross-pen-svgrepo-com" transform="translate(0.666667, 0.666667)" fill-rule="nonzero">
            <path d="M15.0714243,5.36776412 C16.2993703,4.13981009 16.2993703,2.14890955 15.0714243,0.920963518 C13.8434783,-0.306990505 11.8525537,-0.306990505 10.6246077,0.920963518 L9.91536232,1.63024088 C9.92503748,1.65957021 9.93511244,1.68929935 9.94558721,1.71942029 C10.2055372,2.46876562 10.696092,3.45108246 11.6188306,4.37382909 C12.5415692,5.29657571 13.5238781,5.78709845 14.2732634,6.04707246 C14.3032484,6.05747526 14.3328336,6.06750225 14.362019,6.07716942 L15.0714243,5.36776412 Z" id="Path" fill="#48A178"></path>
            <path d="M9.94590705,1.5992004 L9.91536232,1.62973713 C9.92503748,1.65906647 9.93511244,1.6888036 9.94558721,1.71892454 C10.2055372,2.46826187 10.696092,3.45057871 11.6188306,4.37333333 C12.5415692,5.29607996 13.5238781,5.7865947 14.2732634,6.04656872 C14.3029285,6.05688356 14.3322739,6.06683058 14.3612994,6.07642579 L7.51632184,12.9213793 C7.05487256,13.3828286 6.82402799,13.6135932 6.56967516,13.812054 C6.26952124,14.0461769 5.94477961,14.2468766 5.60118341,14.4106347 C5.30990505,14.5494453 5.00030785,14.6525937 4.38115342,14.8589705 L1.11611394,15.9473863 C0.811418291,16.0489355 0.475490255,15.9696152 0.24837981,15.7425287 C0.0212693653,15.5153623 -0.0580269865,15.1794503 0.0435382309,14.8748026 L1.13188206,11.6097151 C1.33827486,10.9905847 1.44146327,10.6809795 1.58028186,10.3896852 C1.74403998,10.046097 1.94473163,9.72137931 2.17883058,9.4212094 C2.37726737,9.16685657 2.60801599,8.93609195 3.06945727,8.47464268 L9.94590705,1.5992004 Z" id="Path" fill="#1C274C"></path>
            <g id="Group" opacity="0.5" fill="#6D7278">
                <path d="M2.79194003,1.63547826 L1.63547826,2.79194003 C0.54515942,3.88225887 0,4.42741829 0,5.10485557 C0,5.78229285 0.54515942,6.32745227 1.63547026,7.41773113 L2.88098351,8.66326837 C2.93927436,8.60481759 3.00188306,8.5422089 3.06943328,8.47464268 L8.66358821,2.88130335 L7.41781109,1.63547826 C6.32745227,0.54515942 5.78229285,0 5.10485557,0 C4.42741829,0 3.88225887,0.54515942 2.79194003,1.63547826 Z" id="Path"></path>
                <path d="M13.110005,7.32769615 L7.51632184,12.9213793 C7.44875562,12.9889455 7.38606697,13.0515542 7.32761619,13.109925 L8.5741929,14.3565017 C9.66452774,15.4468366 10.2096952,15.992004 10.8871164,15.992004 C11.5646177,15.992004 12.1097851,15.4468366 13.20004,14.3565017 L14.3565017,13.20004 C15.4468366,12.1097851 15.992004,11.5646177 15.992004,10.8871164 C15.992004,10.2096952 15.4468366,9.66452774 14.3565017,8.5741929 L13.110005,7.32769615 Z" id="Path"></path>
            </g>
            <path d="M14.4795602,8.69733133 L13.5447476,9.63214393 C13.3105447,9.86634683 13.3105447,10.246077 13.5447476,10.4802799 C13.7789505,10.7144028 14.1586807,10.7144028 14.3928836,10.4802799 L15.3125037,9.56057971 C15.0896552,9.31062469 14.812034,9.03004498 14.4795602,8.69733133 Z" id="Path" fill="#48A178"></path>
            <path d="M6.20958321,0.489987006 L5.14894553,1.55063268 C4.91474263,1.78482759 4.91474263,2.16453373 5.14894553,2.39873663 C5.38314043,2.63293153 5.76284658,2.63293153 5.99704948,2.39873663 L7.08869565,1.30709045 C6.74822589,0.969227386 6.46452774,0.69685957 6.20958321,0.489987006 Z" id="Path" fill="#48A178"></path>
        </g>
    </g>
</svg>