<?xml version="1.0" encoding="UTF-8"?>
<svg width="16px" height="12px" viewBox="0 0 16 12" version="1.1" xmlns="http://www.w3.org/2000/svg" xmlns:xlink="http://www.w3.org/1999/xlink">
    <!-- Generator: Sketch 62 (91390) - https://sketch.com -->
    <title>clear-all-svgrepo-com</title>
    <desc>Created with Sketch.</desc>
    <g id="Page-1" stroke="none" stroke-width="1" fill="none" fill-rule="evenodd">
        <g id="clear-all-svgrepo-com" fill-rule="nonzero">
            <polygon id="Path" fill="#E02020" points="10.2857143 10.9714286 11.0857143 11.7714286 12.9142857 9.94285714 14.7428571 11.7714286 15.6571429 10.9714286 13.7142857 9.14285714 15.6571429 7.31428571 14.7428571 6.4 12.9142857 8.34285714 11.0857143 6.4 10.2857143 7.31428571 12.1142857 9.14285714"></polygon>
            <polygon id="Path" fill="#6D7278" points="0 1.14285714 16 1.14285714 16 0 0 0"></polygon>
            <polygon id="Path" fill="#6D7278" points="0 4.57142857 16 4.57142857 16 3.42857143 0 3.42857143"></polygon>
            <polygon id="Path" fill="#6D7278" points="9.14285714 7.42857143 9.14285714 6.85714286 0 6.85714286 0 8 9.14285714 8"></polygon>
            <polygon id="Path" fill="#6D7278" points="9.14285714 11.4285714 9.14285714 10.2857143 0 10.2857143 0 11.4285714"></polygon>
        </g>
    </g>
</svg>