<?xml version="1.0" encoding="UTF-8"?>
<svg width="15px" height="16px" viewBox="0 0 15 17" version="1.1" xmlns="http://www.w3.org/2000/svg" xmlns:xlink="http://www.w3.org/1999/xlink">
    <!-- Generator: Sketch 62 (91390) - https://sketch.com -->
    <desc>Created with Sketch.</desc>
    <g id="Page-1" stroke="none" stroke-width="1" fill="none" fill-rule="evenodd">
        <g transform="translate(0.000000, 0.666667)" fill-rule="nonzero">
            <path d="M2.87824888,7.51416292 C2.87824888,5.33428486 2.87824888,4.24435782 3.55273563,3.56716042 C4.22722239,2.88996302 5.3127996,2.88996302 7.48393803,2.88996302 L9.78678661,2.88996302 C11.957941,2.88996302 13.0434783,2.88996302 13.718021,3.56716042 C14.3924838,4.24435782 14.3924838,5.33429285 14.3924838,7.51416292 L14.3924838,11.3676762 C14.3924838,13.5475462 14.3924838,14.6374813 13.718021,15.3146627 C13.0434783,15.9918441 11.957941,15.9918441 9.78678661,15.9918441 L7.48393803,15.9918441 C5.3127996,15.9918441 4.22722239,15.9918441 3.55273563,15.3146627 C2.87824888,14.6374813 2.87824888,13.5475462 2.87824888,11.3676762 L2.87824888,7.51416292 Z" id="Path" fill="#48A178"></path>
            <path d="M0.936787606,0.936787606 C0,1.87358321 0,3.38131734 0,6.3968016 L0,7.996002 C0,11.0114543 0,12.5192604 0.936787606,13.455992 C1.43058871,13.9498251 2.08303848,14.1833083 3.03132434,14.2937331 C2.87824888,13.6214293 2.87824888,12.6973313 2.87824888,11.3676762 L2.87824888,7.51416292 C2.87824888,5.33429285 2.87824888,4.24435782 3.55273563,3.56716042 C4.22722239,2.88996302 5.3127996,2.88996302 7.48393803,2.88996302 L9.78678661,2.88996302 C11.1076462,2.88996302 12.0267066,2.88996302 12.6958121,3.04243078 C12.585947,2.08812394 12.3525437,1.43251574 11.8567916,0.936787606 C10.92006,0 9.41225387,0 6.3968016,0 C3.38131734,0 1.87358321,0 0.936787606,0.936787606 Z" id="Path" fill="#6E6E6E" opacity="0.5"></path>
        </g>
    </g>
</svg>