<?xml version="1.0" encoding="UTF-8"?>
<svg width="16px" height="16px" viewBox="0 0 17 13" version="1.1" xmlns="http://www.w3.org/2000/svg" xmlns:xlink="http://www.w3.org/1999/xlink">
    <!-- Generator: Sketch 62 (91390) - https://sketch.com -->
    <title>todo-failed-svgrepo-com</title>
    <desc>Created with Sketch.</desc>
    <g id="Page-1" stroke="none" stroke-width="1" fill="none" fill-rule="evenodd">
        <g id="todo-failed-svgrepo-com" transform="translate(0.333333, 0.000000)" fill-rule="nonzero">
            <path d="M5.0862852,0 C5.48758202,0 5.81289737,0.32531535 5.81289737,0.726612171 L5.81289737,0.726612171 L5.81289737,5.0862852 C5.81289737,5.48758202 5.48758202,5.81289737 5.0862852,5.81289737 L5.0862852,5.81289737 L0.726612171,5.81289737 C0.32531535,5.81289737 0,5.48758202 0,5.0862852 L0,5.0862852 L0,0.726612171 C0,0.32531535 0.32531535,0 0.726612171,0 L0.726612171,0 Z M4.35967302,1.45322434 L1.45322434,1.45322434 L1.45322434,4.35967302 L4.35967302,4.35967302 L4.35967302,1.45322434 Z" id="Combined-Shape" fill="#6E6E6E"></path>
            <path d="M15.9854678,2.90644868 C15.9854678,3.3077455 15.6601524,3.63306085 15.2588556,3.63306085 L7.99273388,3.63306085 C7.59143706,3.63306085 7.26612171,3.3077455 7.26612171,2.90644868 C7.26612171,2.50515186 7.59143706,2.17983651 7.99273388,2.17983651 L15.2588556,2.17983651 C15.6601524,2.17983651 15.9854678,2.50515186 15.9854678,2.90644868 Z" id="Path" fill="#1C274C"></path>
            <path d="M15.9854678,10.1725704 C15.9854678,10.5738672 15.6601524,10.8991826 15.2588556,10.8991826 L7.99273388,10.8991826 C7.59143706,10.8991826 7.26612171,10.5738672 7.26612171,10.1725704 C7.26612171,9.77127357 7.59143706,9.44595822 7.99273388,9.44595822 L15.2588556,9.44595822 C15.6601524,9.44595822 15.9854678,9.77127357 15.9854678,10.1725704 Z" id="Path" fill="#1C274C"></path>
            <path d="M5.23669391,8.86975477 L3.93387829,10.1725704 L5.23669391,11.475386 C5.42558153,11.6578198 5.50133522,11.9279767 5.43483899,12.1820217 C5.36834275,12.4360667 5.16994496,12.6344645 4.91589996,12.7009607 C4.66185496,12.7674569 4.39169807,12.6917032 4.20926431,12.5028156 L2.90644868,11.2 L1.60363306,12.5028156 C1.31852579,12.7781814 0.865333495,12.7742433 0.585054623,12.4939645 C0.30477575,12.2136856 0.300837632,11.7604933 0.576203451,11.475386 L1.87901907,10.1725704 L0.576203451,8.86975477 C0.300837632,8.58464749 0.30477575,8.1314552 0.585054623,7.85117633 C0.865333495,7.57089746 1.31852579,7.56695934 1.60363306,7.84232516 L2.90644868,9.14514078 L4.20926431,7.84232516 C4.49437158,7.56695934 4.94756387,7.57089746 5.22784274,7.85117633 C5.50812162,8.1314552 5.51205973,8.58464749 5.23669391,8.86975477 L5.23669391,8.86975477 Z" id="Path" fill="#DA4167"></path>
        </g>
    </g>
</svg>