<?xml version="1.0" encoding="UTF-8"?>
<svg width="17px" height="17px" viewBox="0 0 17 17" version="1.1" xmlns="http://www.w3.org/2000/svg" xmlns:xlink="http://www.w3.org/1999/xlink">
    <!-- Generator: Sketch 62 (91390) - https://sketch.com -->
    <title>practical-training-svgrepo-com</title>
    <desc>Created with Sketch.</desc>
    <g id="Page-1" stroke="none" stroke-width="1" fill="none" fill-rule="evenodd">
        <g id="practical-training-svgrepo-com" transform="translate(0.406250, 0.406250)" fill-rule="nonzero">
            <path d="M15.650804,4.52520644 C15.4587884,4.52520644 15.3031291,4.6808658 15.3031291,4.87288136 L15.3031291,6.26358105 C15.3031291,6.45559661 15.4587884,6.61125597 15.650804,6.61125597 C15.8428196,6.61125597 15.9984789,6.45559661 15.9984789,6.26358105 L15.9984789,4.87288136 C15.9984789,4.78067223 15.961849,4.69223975 15.8966473,4.62703806 C15.8314456,4.56183636 15.7430131,4.52520644 15.650804,4.52520644 L15.650804,4.52520644 Z" id="Path" fill="#6D7278"></path>
            <path d="M15.4039548,3.23533246 C15.3381355,3.3006142 15.3011131,3.38947847 15.3011131,3.48218166 C15.3011131,3.57488484 15.3381355,3.66374911 15.4039548,3.72903085 C15.4692365,3.79485011 15.5581008,3.83187251 15.650804,3.83187251 C15.7435072,3.83187251 15.8323715,3.79485011 15.8976532,3.72903085 L15.9393742,3.67340287 C15.9531353,3.6556535 15.9637217,3.63565699 15.9706649,3.61429813 C15.9832119,3.5950531 15.9926017,3.57392603 15.9984789,3.55171664 C16.0003214,3.52857493 16.0003214,3.50532338 15.9984789,3.48218167 C15.9993004,3.34093348 15.9145837,3.21322727 15.7841309,3.15906268 C15.6536782,3.10489808 15.5034213,3.13504217 15.4039548,3.23533246 L15.4039548,3.23533246 Z" id="Path" fill="#6D7278"></path>
            <path d="M14.2601043,15.3031291 L1.74380704,15.3031291 C1.55179148,15.3031291 1.39613211,15.4587884 1.39613211,15.650804 C1.39613211,15.8428196 1.55179148,15.9984789 1.74380704,15.9984789 L14.2601043,15.9984789 C14.4521199,15.9984789 14.6077792,15.8428196 14.6077792,15.650804 C14.6077792,15.4587884 14.4521199,15.3031291 14.2601043,15.3031291 L14.2601043,15.3031291 Z" id="Path" fill="#6D7278"></path>
            <path d="M10.7833551,13.5647544 C10.9753706,13.5647544 11.13103,13.4090951 11.13103,13.2170795 C11.13103,13.025064 10.9753706,12.8694046 10.7833551,12.8694046 L5.22055627,12.8694046 C5.02854072,12.8694046 4.87288136,13.025064 4.87288136,13.2170795 C4.87288136,13.4090951 5.02854072,13.5647544 5.22055627,13.5647544 L10.7833551,13.5647544 Z" id="Path" fill="#6D7278"></path>
            <path d="M15.650804,7.30660582 C15.5585949,7.30660582 15.4701624,7.34323575 15.4049607,7.40843745 C15.339759,7.47363915 15.3031291,7.56207163 15.3031291,7.65428075 L15.3031291,9.04498044 C15.3031291,9.41381693 15.1566093,9.76754684 14.8958026,10.0283536 C14.6349958,10.2891604 14.2812659,10.4356801 13.9124294,10.4356801 L2.09148196,10.4356801 C1.32341973,10.4356801 0.700782269,9.81304267 0.700782269,9.04498044 L0.700782269,2.09148196 C0.700782269,1.32341973 1.32341973,0.700782269 2.09148196,0.700782269 L13.9124294,0.700782269 C14.2812659,0.700782269 14.6349958,0.847301994 14.8958026,1.10810878 C15.1566093,1.36891556 15.3031291,1.72264547 15.3031291,2.09148196 C15.3031291,2.28349752 15.4587884,2.43915689 15.650804,2.43915689 C15.8428196,2.43915689 15.9984789,2.28349752 15.9984789,2.09148196 C15.9984789,0.939388609 15.0645227,0.00543241525 13.9124294,0.00543241525 L2.09148196,0.00543241525 C0.939388609,0.00543241525 0.00543241525,0.939388609 0.00543241525,2.09148196 L0.00543241525,9.04498044 C0.00543241525,10.1970738 0.939388609,11.13103 2.09148196,11.13103 L13.9124294,11.13103 C15.0645227,11.13103 15.9984789,10.1970738 15.9984789,9.04498044 L15.9984789,7.65428075 C15.9984789,7.56207163 15.961849,7.47363914 15.8966473,7.40843744 C15.8314456,7.34323575 15.7430131,7.30660581 15.650804,7.30660582 L15.650804,7.30660582 Z" id="Path" fill="#6D7278"></path>
            <path d="M3.82985658,9.04498044 C3.82985658,9.236996 3.98551595,9.39265536 4.1775315,9.39265536 L8.39482834,9.39265536 C8.47325137,9.39220046 8.54921711,9.36524488 8.61038678,9.31616688 L10.8007388,7.57779226 L10.8320295,7.54650152 L10.8563668,7.52216428 C10.8746418,7.49870591 10.8898317,7.47299993 10.9015645,7.4456758 L12.6920904,2.92590178 C12.7390987,2.83961425 12.7473991,2.73746434 12.7149384,2.64471941 C12.6824777,2.55197449 12.6122874,2.47729628 12.5217297,2.43915689 L9.938505,1.39613212 C9.85275759,1.36192813 9.75692731,1.36323131 9.6721417,1.39975434 C9.58735609,1.43627737 9.52057717,1.50502122 9.48652759,1.59083007 L7.69600174,6.11060409 C7.67049713,6.15770207 7.65621884,6.21005583 7.65428075,6.26358105 L7.65428075,6.31920904 L8.00195567,8.69730552 L4.1775315,8.69730552 C3.98551595,8.69730552 3.82985658,8.85296489 3.82985658,9.04498044 Z M8.42959583,6.81290743 L9.90026076,7.3970013 L8.65210777,8.39135158 L8.42959583,6.81290743 Z M9.98717948,2.19578444 L11.9272056,2.96414602 L10.3904824,6.84419817 L8.45393307,6.07583659 L9.98717948,2.19578444 Z" id="Shape" fill="#48A178"></path>
        </g>
    </g>
</svg>