<?xml version="1.0" encoding="UTF-8"?>
<svg width="15px" height="17px" viewBox="0 0 15 17" version="1.1" xmlns="http://www.w3.org/2000/svg" xmlns:xlink="http://www.w3.org/1999/xlink">
    <!-- Generator: Sketch 62 (91390) - https://sketch.com -->
    <title>basic-information-svgrepo-com</title>
    <desc>Created with Sketch.</desc>
    <g id="Page-1" stroke="none" stroke-width="1" fill="none" fill-rule="evenodd">
        <g id="basic-information-svgrepo-com" transform="translate(0.406250, 0.406250)" fill-rule="nonzero">
            <path d="M13.7170795,8.00195567 C13.4170795,8.00195567 13.2170795,8.14102564 13.2170795,8.34963059 L13.2170795,9.7403303 C13.2170795,9.94893525 13.4170795,10.0880052 13.7170795,10.0880052 C14.0170795,10.0880052 14.2170795,9.94893525 14.2170795,9.7403303 L14.2170795,8.34963059 C14.2170795,8.14102564 14.0170795,8.00195567 13.7170795,8.00195567 Z M13.3670795,6.71555846 C13.2670795,6.78509345 13.2170795,6.85462842 13.2170795,6.9589309 C13.2170795,6.99369839 13.2170795,7.06323338 13.2670795,7.09800086 C13.3170795,7.13276835 13.3170795,7.16753585 13.3670795,7.20230334 C13.4670795,7.27183833 13.6170795,7.30660582 13.7170795,7.30660582 L13.8170795,7.30660582 C13.8670795,7.30660582 13.8670795,7.30660582 13.9170795,7.27183833 C13.9670795,7.27183833 13.9670795,7.23707084 14.0170795,7.23707084 C14.0670795,7.23707084 14.0670795,7.20230336 14.1170795,7.20230334 C14.1670795,7.16753585 14.2170795,7.13276835 14.2170795,7.09800086 L14.2170795,6.9589309 C14.2170795,6.85462842 14.1670795,6.78509343 14.0670795,6.71555846 C13.8670795,6.57648849 13.5670795,6.57648849 13.3670795,6.71555846 L13.3670795,6.71555846 Z" id="Shape" fill="#6D7278"></path>
            <path d="M13.9124294,4.52520644 C13.9124294,4.49043895 13.9124294,4.45567145 13.8776619,4.38613646 C13.8428944,4.35136897 13.8428944,4.31660147 13.8081269,4.28183398 L9.63602782,0.109734892 C9.60126033,0.0749674055 9.56649283,0.0401999022 9.53172534,0.0401999185 C9.49695786,0.00543241525 9.42742287,0.00543241525 9.39265536,0.00543241525 L2.09148196,0.00543241525 C0.94415471,0.00543241525 0.00543241525,0.94415471 0.00543241525,2.09148196 L0.00543241525,13.9124294 C0.00543241525,15.0597566 0.94415471,15.9984789 2.09148196,15.9984789 L11.8263798,15.9984789 C12.9737071,15.9984789 13.9124294,15.0597566 13.9124294,13.9124294 L13.9124294,11.13103 C13.9124294,10.922425 13.7733594,10.7833551 13.5647544,10.7833551 C13.3561495,10.7833551 13.2170795,10.922425 13.2170795,11.13103 L13.2170795,13.9124294 C13.2170795,14.6773142 12.5912647,15.3031291 11.8263798,15.3031291 L2.09148196,15.3031291 C1.32659713,15.3031291 0.700782269,14.6773142 0.700782269,13.9124294 L0.700782269,2.09148196 C0.700782269,1.32659713 1.32659713,0.700782269 2.09148196,0.700782269 L9.04498044,0.700782269 L9.04498044,2.78683181 C9.04498044,3.93415906 9.98370274,4.87288136 11.13103,4.87288136 L13.2170795,4.87288136 L13.2170795,5.56823121 C13.2170795,5.77683616 13.3561495,5.91590613 13.5647544,5.91590613 C13.7733594,5.91590613 13.9124294,5.77683616 13.9124294,5.56823121 L13.9124294,4.52520644 Z M9.7403303,2.78683181 L9.7403303,1.18752717 L12.7303346,4.1775315 L11.13103,4.1775315 C10.3661452,4.1775315 9.7403303,3.55171664 9.7403303,2.78683181 L9.7403303,2.78683181 Z" id="Shape" fill="#6D7278"></path>
            <path d="M2.43915689,4.52520644 L6.9589309,4.52520644 C7.16753585,4.52520644 7.30660582,4.38613647 7.30660582,4.1775315 C7.30660582,3.96892653 7.16753585,3.82985658 6.9589309,3.82985658 L2.43915689,3.82985658 C2.23055194,3.82985658 2.09148196,3.96892655 2.09148196,4.1775315 C2.09148196,4.38613646 2.23055192,4.52520644 2.43915689,4.52520644 Z M11.13103,7.65428075 L2.43915689,7.65428075 C2.23055194,7.65428075 2.09148196,7.79335072 2.09148196,8.00195567 C2.09148196,8.21056063 2.23055192,8.34963059 2.43915689,8.34963059 L11.13103,8.34963059 C11.3396349,8.34963059 11.4787049,8.21056063 11.4787049,8.00195567 C11.4787049,7.79335072 11.3396349,7.65428075 11.13103,7.65428075 Z M11.13103,11.4787049 L2.43915689,11.4787049 C2.23055194,11.4787049 2.09148196,11.6177749 2.09148196,11.8263798 C2.09148196,12.0349848 2.23055192,12.1740548 2.43915689,12.1740548 L11.13103,12.1740548 C11.3396349,12.1740548 11.4787049,12.0349848 11.4787049,11.8263798 C11.4787049,11.6177749 11.3396349,11.4787049 11.13103,11.4787049 Z" id="Shape" fill="#48A178"></path>
        </g>
    </g>
</svg>