<?xml version="1.0" encoding="UTF-8"?>
<svg width="16px" height="18px" viewBox="0 0 16 18" version="1.1" xmlns="http://www.w3.org/2000/svg" xmlns:xlink="http://www.w3.org/1999/xlink">
    <!-- Generator: Sketch 62 (91390) - https://sketch.com -->
    <title>add-file-12-svgrepo-com</title>
    <desc>Created with Sketch.</desc>
    <g id="Page-1" stroke="none" stroke-width="1" fill="none" fill-rule="evenodd">
        <g id="add-file-12-svgrepo-com" transform="translate(0.333333, 1.000000)">
            <path d="M7.55555556,14.2222222 C7.55555556,11.0312437 4.96875633,8.44444444 1.77777778,8.44444444 L1.77777778,3.55555556 L5.33333333,0 L13.3333333,0 C13.8242531,0 14.2222222,0.397969111 14.2222222,0.888888889 L14.2222222,15.1111111 C14.2222222,15.6020309 13.8242531,16 13.3333333,16 L7.27111111,16 C7.46118754,15.426627 7.55724346,14.8262775 7.55555556,14.2222222 L7.55555556,14.2222222 Z" id="secondary" fill="#48A178" fill-rule="nonzero"></path>
            <path d="M0,14.2222222 L3.55555556,14.2222222 M1.77777778,16 L1.77777778,12.4444444 M8.88888889,8.88888889 L10.6666667,8.88888889 M10.6666667,5.33333333 L5.33333333,5.33333333" id="primary" stroke="#6D7278" stroke-linecap="round" stroke-linejoin="round"></path>
            <path d="M1.77777778,8.88888889 L1.77777778,3.55555556 L5.33333333,0 L13.3333333,0 C13.8242531,0 14.2222222,0.397969111 14.2222222,0.888888889 L14.2222222,15.1111111 C14.2222222,15.6020309 13.8242531,16 13.3333333,16 L7.11111111,16" id="primary-2" stroke="#6D7278" stroke-linecap="round" stroke-linejoin="round"></path>
        </g>
    </g>
</svg>