<?xml version="1.0" encoding="UTF-8"?>
<svg width="16px" height="17px" viewBox="0 0 16 17" version="1.1" xmlns="http://www.w3.org/2000/svg" xmlns:xlink="http://www.w3.org/1999/xlink">
    <!-- Generator: Sketch 62 (91390) - https://sketch.com -->
    <title>delete-recycle-bin-trash-can-svgrepo-com</title>
    <desc>Created with Sketch.</desc>
    <g id="Page-1" stroke="none" stroke-width="1" fill="none" fill-rule="evenodd">
        <g id="delete-recycle-bin-trash-can-svgrepo-com" transform="translate(0.000000, 0.218750)" fill-rule="nonzero">
            <path d="M15.4460719,2.14713715 L10.5992011,2.14713715 C10.3471678,0.905952608 9.25586238,0.0139746669 7.98934754,0.0139746669 C6.7228327,0.0139746669 5.63152728,0.905952608 5.37949401,2.14713715 L0.532623169,2.14713715 C0.238463515,2.14713715 0,2.38560067 0,2.67976032 C0,2.97391997 0.238463515,3.21238349 0.532623169,3.21238349 L15.4460719,3.21238349 C15.7402316,3.21238349 15.9786951,2.97391997 15.9786951,2.67976032 C15.9786951,2.38560067 15.7402316,2.14713715 15.4460719,2.14713715 Z M7.98934754,1.08189081 C8.66484949,1.08378928 9.26617933,1.51026434 9.49134487,2.14713715 L6.4873502,2.14713715 C6.71251574,1.51026434 7.31384558,1.08378928 7.98934754,1.08189081 Z M13.517976,4.32023968 C13.3196287,4.23683263 13.0905783,4.28096162 12.9374168,4.43209055 C12.8377169,4.53260657 12.7821375,4.66868017 12.7829471,4.810253 C12.7829471,5.10441265 13.0214196,5.34287617 13.3155792,5.34287617 C13.6097389,5.34287617 13.8482024,5.10441265 13.8482024,4.810253 C13.8462405,4.66923197 13.7910699,4.53415914 13.6937417,4.43209055 C13.6430872,4.3836002 13.5833562,4.34558955 13.517976,4.32023968 L13.517976,4.32023968 Z M13.3155792,6.4081225 C13.0214196,6.4081225 12.7829561,6.64658602 12.7829561,6.94074567 L12.7829561,8.53861518 C12.7829561,8.83277483 13.0214196,9.07123835 13.3155792,9.07123835 C13.6097389,9.07123835 13.8482024,8.83277483 13.8482024,8.53861518 L13.8482024,6.94074567 C13.8482024,6.64658602 13.6097389,6.4081225 13.3155792,6.4081225 Z M13.3155792,10.1364847 C13.0214196,10.1364847 12.7829561,10.3749482 12.7829561,10.6691079 L12.7829561,14.39747 C12.7829561,14.6916297 12.5444925,14.9300932 12.2503329,14.9300932 L3.72836218,14.9300932 C3.43420253,14.9300932 3.19573901,14.6916297 3.19573901,14.39747 L3.19573901,4.810253 C3.19573901,4.51609334 2.9572755,4.27762983 2.66311585,4.27762983 C2.36895619,4.27762983 2.13049268,4.51609334 2.13049268,4.810253 L2.13049268,14.39747 C2.13049268,15.279949 2.84588322,15.9953395 3.72836218,15.9953395 L12.2503329,15.9953395 C13.1328119,15.9953395 13.8482024,15.279949 13.8482024,14.39747 L13.8482024,10.6691079 C13.8482024,10.3749482 13.6097389,10.1364847 13.3155792,10.1364847 Z" id="Shape" fill="#6D7278"></path>
            <path d="M5.85885486,12.2669774 L5.85885486,5.34287617 C5.85885486,5.04871651 5.62039134,4.810253 5.32623169,4.810253 C5.03207204,4.810253 4.79360852,5.04871651 4.79360852,5.34287617 L4.79360852,12.2669774 C4.79360852,12.561137 5.03207204,12.7996005 5.32623169,12.7996005 C5.62039134,12.7996005 5.85885486,12.561137 5.85885486,12.2669774 Z M8.52197071,12.2669774 L8.52197071,5.34287617 C8.52197071,5.04871651 8.28350719,4.810253 7.98934754,4.810253 C7.69518788,4.810253 7.45672437,5.04871651 7.45672437,5.34287617 L7.45672437,12.2669774 C7.45672437,12.561137 7.69518788,12.7996005 7.98934754,12.7996005 C8.28350719,12.7996005 8.52197071,12.561137 8.52197071,12.2669774 Z M11.1850866,12.2669774 L11.1850866,5.34287617 C11.1850866,5.04871651 10.946623,4.810253 10.6524634,4.810253 C10.3583037,4.810253 10.1198402,5.04871651 10.1198402,5.34287617 L10.1198402,12.2669774 C10.1198402,12.561137 10.3583037,12.7996005 10.6524634,12.7996005 C10.946623,12.7996005 11.1850866,12.561137 11.1850866,12.2669774 Z" id="Shape" fill="#DA4167"></path>
        </g>
    </g>
</svg>