<?xml version="1.0" encoding="UTF-8"?>
<svg width="16px" height="16px" viewBox="0 0 16 16" version="1.1" xmlns="http://www.w3.org/2000/svg" xmlns:xlink="http://www.w3.org/1999/xlink">
    <!-- Generator: Sketch 62 (91390) - https://sketch.com -->
    <title>export-svgrepo-com</title>
    <desc>Created with Sketch.</desc>
    <g id="Page-1" stroke="none" stroke-width="1" fill="none" fill-rule="evenodd">
        <g id="export-svgrepo-com" fill-rule="nonzero">
            <path d="M15.4460719,9.58721704 C15.1519123,9.58721704 14.9134487,9.82568056 14.9134487,10.1198402 L14.9134487,14.9134487 L10.1198402,14.9134487 C9.82568056,14.9134487 9.58721704,15.1519123 9.58721704,15.4460719 C9.58721704,15.7402316 9.82568056,15.9786951 10.1198402,15.9786951 L15.4460719,15.9786951 C15.7402316,15.9786951 15.9786951,15.7402316 15.9786951,15.4460719 L15.9786951,10.1198402 C15.9786951,9.82568056 15.7402316,9.58721704 15.4460719,9.58721704 Z" id="Path" fill="#6D7278"></path>
            <path d="M7.98934754,14.9134487 L5.85885486,14.9134487 C5.56469521,14.9134487 5.32623169,15.1519123 5.32623169,15.4460719 C5.32623169,15.7402316 5.56469521,15.9786951 5.85885486,15.9786951 L7.98934754,15.9786951 C8.28350719,15.9786951 8.52197071,15.7402316 8.52197071,15.4460719 C8.52197071,15.1519123 8.28350719,14.9134487 7.98934754,14.9134487 Z" id="Path" fill="#6D7278"></path>
            <path d="M4.10652463,15.0679095 C3.95336314,14.9167805 3.7243127,14.8726515 3.52596538,14.9560586 C3.46011004,14.9804603 3.4001965,15.0185871 3.35019973,15.0679095 C3.30170939,15.1185639 3.26369874,15.1782949 3.23834887,15.2436751 C3.21105674,15.3077083 3.19658055,15.3764702 3.19572994,15.4460719 C3.19448063,15.6624581 3.324263,15.8580986 3.52411105,15.9410764 C3.7239591,16.0240543 3.95414623,15.9778748 4.10652463,15.8242344 C4.15348871,15.7723995 4.19130991,15.7129662 4.2183755,15.6484687 C4.27535381,15.5195527 4.27535381,15.3725911 4.2183755,15.2436751 C4.19397378,15.1778198 4.15584697,15.1179062 4.10652463,15.0679095 Z" id="Path" fill="#6D7278"></path>
            <path d="M1.59786951,14.9134487 L1.06524634,14.9134487 L1.06524634,10.1198402 C1.06524634,9.82568056 0.826782823,9.58721704 0.532623169,9.58721704 C0.238463515,9.58721704 0,9.82568056 0,10.1198402 L0,15.4460719 C0,15.7402316 0.238463515,15.9786951 0.532623169,15.9786951 L1.59786951,15.9786951 C1.89202916,15.9786951 2.13049268,15.7402316 2.13049268,15.4460719 C2.13049268,15.1519123 1.89202916,14.9134487 1.59786951,14.9134487 Z" id="Path" fill="#6D7278"></path>
            <path d="M11.8455393,7.64314248 C11.6543355,7.86670381 11.6805665,8.20293737 11.9041278,8.39414115 C12.1276892,8.58534492 12.4639227,8.55911393 12.6551265,8.3355526 L15.8508655,4.60719041 C15.8628092,4.5883934 15.8734854,4.56882041 15.8828229,4.54860186 C15.8987695,4.52664084 15.9130143,4.50349308 15.9254328,4.47936085 L15.9254328,4.44207723 C15.9277089,4.41371626 15.9277089,4.3852185 15.9254328,4.35685752 C15.9464385,4.32681804 15.9642872,4.29469037 15.9786951,4.26098535 C15.9806952,4.23439175 15.9806952,4.20768548 15.9786951,4.18109188 C15.9809712,4.15273091 15.9809712,4.12423314 15.9786951,4.09587217 L15.9786951,4.05858855 C15.9662766,4.03445632 15.9520319,4.01130856 15.9360852,3.98934754 C15.9267477,3.96912899 15.9160715,3.949556 15.9041278,3.93075899 L12.7083888,0.202396804 C12.517185,-0.0211645169 12.1809515,-0.0473954951 11.9573902,0.143808274 C11.7338288,0.335012043 11.7075978,0.671245586 11.8988016,0.894806924 L14.2902796,3.72836218 L7.45672437,3.72836218 L7.45672437,11.7177097 C7.45672437,12.0118694 7.69518788,12.2503329 7.98934754,12.2503329 C8.28350719,12.2503329 8.52197071,12.0118694 8.52197071,11.7177097 L8.52197071,4.79360852 L14.2902796,4.79360852 L11.8455393,7.64314248 Z" id="Path" fill="#48A178"></path>
        </g>
    </g>
</svg>