<?xml version="1.0" encoding="UTF-8"?>
<svg width="18px" height="18px" viewBox="0 0 18 18" version="1.1" xmlns="http://www.w3.org/2000/svg" xmlns:xlink="http://www.w3.org/1999/xlink">
    <!-- Generator: Sketch 62 (91390) - https://sketch.com -->
    <title>receipt-remove-svgrepo-com</title>
    <desc>Created with Sketch.</desc>
    <g id="Page-1" stroke="none" stroke-width="1" fill="none" fill-rule="evenodd">
        <g id="receipt-remove-svgrepo-com" transform="translate(1.000000, 1.000000)">
            <path d="M16,0.888888889 L16,13.7777778 C16,15.0050772 15.0050772,16 13.7777778,16 C12.5504783,16 11.5555556,15.0050772 11.5555556,13.7777778 L11.5555556,11.5555556 L1.77777778,11.5555556 L1.77777778,0.888888889 C1.77777778,0.397969111 2.17574689,0 2.66666667,0 L15.1111111,0 C15.6020309,0 16,0.397969111 16,0.888888889 Z" id="secondary" fill="#48A178" fill-rule="nonzero"></path>
            <polyline id="primary" stroke="#6D7278" stroke-linecap="round" stroke-linejoin="round" points="7.11111111 5.33333333 8.88888889 3.55555556 10.6666667 5.33333333"></polyline>
            <path d="M8.88888889,3.55555556 L8.88888889,8 M15.1111111,0 L2.66666667,0 C2.17574689,0 1.77777778,0.397969111 1.77777778,0.888888889 L1.77777778,11.5555556 L11.5555556,11.5555556 L11.5555556,13.7777778 C11.5555556,15.0050772 12.5504783,16 13.7777778,16 C15.0050772,16 16,15.0050772 16,13.7777778 L16,0.888888889 C16,0.397969111 15.6020309,0 15.1111111,0 Z M13.7777778,16 L2.22222222,16 C0.994922778,16 0,15.0050772 0,13.7777778 L0,11.5555556 L11.5555556,11.5555556 L11.5555556,13.7777778 C11.5555556,15.0050772 12.5504783,16 13.7777778,16 Z" id="primary-2" stroke="#6D7278" stroke-linecap="round" stroke-linejoin="round"></path>
        </g>
    </g>
</svg>