<?xml version="1.0" encoding="UTF-8"?>
<svg width="15px" height="18px" viewBox="0 0 15 18" version="1.1" xmlns="http://www.w3.org/2000/svg" xmlns:xlink="http://www.w3.org/1999/xlink">
    <!-- Generator: Sketch 62 (91390) - https://sketch.com -->
    <title>delete-alt-svgrepo-com</title>
    <desc>Created with Sketch.</desc>
    <g id="Page-1" stroke="none" stroke-width="1" fill="none" fill-rule="evenodd">
        <g id="delete-alt-svgrepo-com" transform="translate(0.333333, 1.000000)">
            <path d="M0.888888889,4.44444444 L12.4444444,4.44444444 C12.9353642,4.44444444 13.3333333,4.84241356 13.3333333,5.33333333 L13.3333333,14.2222222 C13.3333333,14.713142 12.9353642,15.1111111 12.4444444,15.1111111 L0.888888889,15.1111111 L0.888888889,4.44444444 Z" id="secondary" fill="#DA4167" fill-rule="nonzero" transform="translate(7.111111, 9.777778) rotate(90.000000) translate(-7.111111, -9.777778) "></path>
            <path d="M10.6666667,3.55555556 L10.6666667,0.888888889 C10.6666667,0.397969111 10.2686976,0 9.77777778,0 L4.44444444,0 C3.95352467,0 3.55555556,0.397969111 3.55555556,0.888888889 L3.55555556,3.55555556" id="primary" stroke="#6D7278" stroke-linecap="round" stroke-linejoin="round"></path>
            <path d="M5.33333333,7.11111111 L5.33333333,12.4444444 M8.88888889,7.11111111 L8.88888889,12.4444444 M0,3.55555556 L14.2222222,3.55555556 M12.4444444,15.1111111 L12.4444444,3.55555556 L1.77777778,3.55555556 L1.77777778,15.1111111 C1.77777778,15.6020309 2.17574689,16 2.66666667,16 L11.5555556,16 C12.0464753,16 12.4444444,15.6020309 12.4444444,15.1111111 Z" id="primary-2" stroke="#6D7278" stroke-linecap="round" stroke-linejoin="round"></path>
        </g>
    </g>
</svg>