<?xml version="1.0" encoding="UTF-8"?>
<svg width="14px" height="14px" viewBox="0 0 14 14" version="1.1" xmlns="http://www.w3.org/2000/svg" xmlns:xlink="http://www.w3.org/1999/xlink">
    <!-- Generator: Sketch 62 (91390) - https://sketch.com -->
    <title>chat-history-svgrepo-com</title>
    <desc>Created with Sketch.</desc>
    <g id="Page-1" stroke="none" stroke-width="1" fill="none" fill-rule="evenodd">
        <g id="chat-history-svgrepo-com" transform="translate(-1.000000, -1.000000)">
            <polygon id="Path" points="0 0 16 0 16 16 0 16"></polygon>
            <path d="M8,1.33333333 C11.682,1.33333333 14.6666667,4.318 14.6666667,8 C14.6666667,11.682 11.682,14.6666667 8,14.6666667 C6.86533333,14.6666667 5.79666667,14.3833333 4.86133333,13.8833333 L1.33333333,14.6666667 L2.11733333,11.14 C1.61733333,10.204 1.33333333,9.13533333 1.33333333,8 C1.33333333,4.318 4.318,1.33333333 8,1.33333333 Z M8,2.66666667 C5.05466667,2.66666667 2.66666667,5.05466667 2.66666667,8 C2.66666667,8.89 2.884,9.74533333 3.29333333,10.5106667 L3.52666667,10.9466667 L3.08933333,12.9106667 L5.05466667,12.4746667 L5.49,12.7073333 C6.25533333,13.1166667 7.11,13.3333333 8,13.3333333 C10.9453333,13.3333333 13.3333333,10.9453333 13.3333333,8 C13.3333333,5.05466667 10.9453333,2.66666667 8,2.66666667 Z" id="Shape" fill="#6D7278" fill-rule="nonzero"></path>
            <polygon id="Path" fill="#48A178" fill-rule="nonzero" points="8.66666667 4.66666667 8.66666667 8 11.3333333 8 11.3333333 9.33333333 7.33333333 9.33333333 7.33333333 4.66666667"></polygon>
        </g>
    </g>
</svg>