<?xml version="1.0" encoding="UTF-8"?>
<svg width="15px" height="16px" viewBox="0 0 15 16" version="1.1" xmlns="http://www.w3.org/2000/svg" xmlns:xlink="http://www.w3.org/1999/xlink">
    <!-- Generator: Sketch 62 (91390) - https://sketch.com -->
    <title>insert</title>
    <desc>Created with Sketch.</desc>
    <g id="Page-1" stroke="none" stroke-width="1" fill="none" fill-rule="evenodd">
        <g id="insert">
            <path d="M7.59802853,15.5604669 L7.96956334,14.9332642 C8.25767402,14.4467618 8.40176394,14.203476 8.63322093,14.0689321 C8.86467791,13.9344574 9.15603978,13.9294077 9.73876351,13.9193774 C10.5991526,13.9045741 11.1387116,13.8519326 11.5912495,13.6646087 C12.4308863,13.3170774 13.0980026,12.6504453 13.4457415,11.8113619 C13.573783,11.5024989 13.6390143,11.1529615 13.6721487,10.6884565 C13.6897882,10.4424038 13.6985733,10.3193428 13.6328578,10.2209079 C13.5672114,10.1224038 13.4425594,10.0806226 13.1931172,9.9970601 C12.1474103,9.64662343 9.72479032,8.75503675 8.37008214,7.60971898 C6.84306096,6.31867877 5.47709122,3.69418072 4.98827843,2.68821444 C4.89110246,2.48823173 4.8425214,2.38824038 4.75721574,2.33547428 C4.67191007,2.28270817 4.56372157,2.28384955 4.34734457,2.28613921 C2.94015391,2.30099784 2.30291396,2.37889494 1.63622655,2.78716126 C1.17515262,3.06951665 0.787500216,3.4569131 0.504951146,3.91767575 C0,4.74111889 0,5.86204583 0,8.1038997 L0,8.78879377 C0,10.3842974 0,11.1820839 0.260835279,11.8113619 C0.608622568,12.6504453 1.27570428,13.3170774 2.11532728,13.6646087 C2.56785128,13.8519326 3.10743796,13.9045741 3.96777173,13.9193774 C4.55053696,13.9294077 4.84191958,13.9344574 5.07335581,14.0689321 C5.30479204,14.203476 5.44886814,14.4467618 5.73703415,14.9332642 L6.10856896,15.5604669 C6.43970601,16.1195331 7.26689148,16.1195331 7.59802853,15.5604669 Z" id="Path" fill="#48A178" fill-rule="nonzero"></path>
            <path d="M8.90403805,0.165484133 C9.13604842,0.384207523 9.1336965,0.73664332 8.8987808,0.952667531 L8.13641159,1.65372071 C8.79965413,1.65996022 9.43764808,1.67501254 10.0133852,1.71128751 C10.5084652,1.74248508 10.9721401,1.79015997 11.3761868,1.86499957 C11.7719326,1.9383035 12.1532209,2.04507393 12.4561349,2.21572676 C13.0190056,2.53292521 13.4929875,2.96854994 13.8388586,3.48746736 C14.1715175,3.98670471 14.3180977,4.55100043 14.3884479,5.23148119 C14.4572763,5.89722784 14.4572763,6.72921401 14.4572763,7.78417639 L14.4572763,7.81343709 C14.4572763,8.12084738 14.1896412,8.37008214 13.8594034,8.37008214 C13.5292348,8.37008214 13.2615305,8.12084738 13.2615305,7.81343709 C13.2615305,6.72276697 13.2609079,5.9443355 13.1982361,5.33815478 C13.1364635,4.7405655 13.0186597,4.36836662 12.8227583,4.07439689 C12.5770514,3.70562905 12.239412,3.39490532 11.8369563,3.16813143 C11.7084998,3.09574751 11.485067,3.02025076 11.1428621,2.95685949 C10.8089581,2.89500389 10.4015218,2.85155556 9.93265888,2.82201124 C9.39095547,2.78788067 8.7868569,2.77334025 8.14616515,2.76714916 L8.8987808,3.45918201 C9.1336965,3.67521314 9.13604842,4.02764202 8.90403805,4.24636403 C8.6719585,4.46509295 8.29343709,4.46727886 8.0585214,4.25125465 L6.2649719,2.60196109 C6.15118029,2.49737657 6.08719412,2.35475313 6.08719412,2.20592477 C6.08719412,2.05709641 6.15118029,1.91447298 6.2649719,1.80988846 L8.0585214,0.160598357 C8.29343709,-0.0554264764 8.6719585,-0.0532389797 8.90403805,0.165484133 Z" id="Path" fill="#6E6E6E"></path>
        </g>
    </g>
</svg>