<?xml version="1.0" encoding="UTF-8"?>
<svg width="16px" height="20px" viewBox="0 0 16 20" version="1.1" xmlns="http://www.w3.org/2000/svg" xmlns:xlink="http://www.w3.org/1999/xlink">
    <!-- Generator: Sketch 62 (91390) - https://sketch.com -->
    <title>like-svgrepo-com(1)</title>
    <desc>Created with Sketch.</desc>
    <g id="Page-1" stroke="none" stroke-width="1" fill="none" fill-rule="evenodd">
        <g id="like-svgrepo-com(1)" transform="translate(0.484056, 0.000000)" fill-rule="nonzero">
            <path d="M3.4112224,19.3949305 L0.541230581,19.3949305 C0.455376124,19.3949305 0.38178659,19.321341 0.38178659,19.2354865 L0.38178659,11.7252657 C0.38178659,11.6394113 0.455376124,11.5658217 0.541230581,11.5658217 L3.4071341,11.5658217 C3.49298855,11.5658217 3.56657809,11.6394113 3.56657809,11.7252657 L3.56657809,19.2354865 C3.57066639,19.321341 3.49707686,19.3949305 3.4112224,19.3949305 Z" id="XMLID_353_" fill="#fff"></path>
            <path d="M8.39078087,3.60588716 L8.39078087,0.372035977 C8.39078087,0.167620605 8.22316026,0 8.01874489,0 C7.81432952,0 7.64670891,0.167620605 7.64670891,0.372035977 L7.64670891,3.60588716 C7.64670891,3.81030253 7.81432952,3.97792314 8.01874489,3.97792314 C8.22316026,3.97383483 8.39078087,3.81030253 8.39078087,3.60588716 Z" id="Path" fill="#2C2F33"></path>
            <path d="M14.7399223,7.26901063 L11.5060711,7.26901063 C11.3016558,7.26901063 11.1340352,7.43663123 11.1340352,7.64104661 C11.1340352,7.84546198 11.3016558,8.01308258 11.5060711,8.01308258 L14.7399223,8.01308258 C14.9443377,8.01308258 15.1119583,7.84546198 15.1119583,7.64104661 C15.10787,7.43254293 14.9443377,7.26901063 14.7399223,7.26901063 Z" id="Path" fill="#2C2F33"></path>
            <path d="M0.929619787,7.6369583 C0.929619787,7.84137367 1.09724039,8.00899428 1.30165576,8.00899428 L4.53550695,8.00899428 C4.73992232,8.00899428 4.90754293,7.84137367 4.90754293,7.6369583 C4.90754293,7.43254293 4.73992232,7.26492232 4.53550695,7.26492232 L1.30165576,7.26492232 C1.09724039,7.26901063 0.929619787,7.43254293 0.929619787,7.6369583 Z" id="Path" fill="#2C2F33"></path>
            <path d="M2.94106705,2.48977923 C3.01056827,2.420278 3.05145135,2.32624693 3.05145135,2.22812756 C3.05145135,2.13000818 3.01056827,2.03597711 2.94106705,1.96647588 C2.87156582,1.89697465 2.77753475,1.86017989 2.67941537,1.86017989 C2.58129599,1.86017989 2.48726492,1.89697465 2.4177637,1.96647588 C2.34826247,2.03597711 2.30737939,2.13000818 2.30737939,2.22812756 C2.30737939,2.32624693 2.34826247,2.420278 2.4177637,2.48977923 C2.48726492,2.55928046 2.58129599,2.60016353 2.67941537,2.60016353 C2.77344644,2.60016353 2.87156582,2.55928046 2.94106705,2.48977923 Z" id="Path" fill="#2C2F33"></path>
            <path d="M4.46191742,4.01471791 C4.60500818,3.87162715 4.60500818,3.63450531 4.46191742,3.49141455 C4.31882666,3.34832379 4.08170482,3.34832379 3.93861406,3.49141455 C3.7955233,3.63450531 3.7955233,3.87162715 3.93861406,4.01471791 C4.0122036,4.08830744 4.10623467,4.12510221 4.20026574,4.12510221 C4.29429681,4.1210139 4.39241619,4.08830744 4.46191742,4.01471791 Z" id="Path" fill="#2C2F33"></path>
            <path d="M3.70149223,3.25429272 C3.84458299,3.11120196 3.84458299,2.87408013 3.70149223,2.73098937 C3.55840147,2.58789861 3.32127964,2.58789861 3.17818888,2.73098937 C3.03509812,2.87408013 3.03509812,3.11120196 3.17818888,3.25429272 C3.25177841,3.32788226 3.34580948,3.36467702 3.43984056,3.36467702 C3.53387163,3.36058872 3.6279027,3.32379395 3.70149223,3.25429272 Z" id="Path" fill="#2C2F33"></path>
            <path d="M5.22643091,4.77514309 C5.29593213,4.70564186 5.33681521,4.61161079 5.33681521,4.51349141 C5.33681521,4.41537204 5.29593213,4.32134096 5.22643091,4.25183974 C5.15692968,4.18233851 5.06289861,4.14554374 4.96477923,4.14554374 C4.86665985,4.14554374 4.77262878,4.18642682 4.70312756,4.25183974 C4.63362633,4.32134096 4.59274325,4.41537204 4.59274325,4.51349141 C4.59274325,4.61161079 4.63362633,4.70564186 4.70312756,4.77514309 C4.77262878,4.84464432 4.86665985,4.88552739 4.96477923,4.88552739 C5.0588103,4.88552739 5.15692968,4.84464432 5.22643091,4.77514309 Z" id="Path" fill="#2C2F33"></path>
            <path d="M13.2803966,2.72281276 C13.3498978,2.65331153 13.3907809,2.55928046 13.3907809,2.46116108 C13.3907809,2.3630417 13.3498978,2.26901063 13.2803966,2.1995094 C13.2108953,2.13000818 13.1168643,2.0891251 13.0187449,2.0891251 C12.9206255,2.0891251 12.8265944,2.13000818 12.7570932,2.1995094 C12.687592,2.26901063 12.6467089,2.3630417 12.6467089,2.46116108 C12.6467089,2.55928046 12.687592,2.65331153 12.7570932,2.72281276 C12.8265944,2.79231398 12.9206255,2.83319706 13.0187449,2.83319706 C13.1168643,2.83319706 13.2108953,2.79231398 13.2803966,2.72281276 Z" id="Path" fill="#2C2F33"></path>
            <path d="M11.4938062,4.35813573 C11.5878373,4.35813573 11.6818684,4.32134096 11.7554579,4.24775143 C11.8985487,4.10466067 11.8985487,3.86753884 11.7554579,3.72444808 C11.6123671,3.58135732 11.3752453,3.58135732 11.2321545,3.72444808 C11.0890638,3.86753884 11.0890638,4.10466067 11.2321545,4.24775143 C11.3057441,4.32134096 11.3997751,4.35813573 11.4938062,4.35813573 Z" id="Path" fill="#2C2F33"></path>
            <path d="M12.5158831,3.48732625 C12.6589738,3.34423549 12.6589738,3.10711365 12.5158831,2.96402289 C12.3727923,2.82093213 12.1356705,2.82093213 11.9925797,2.96402289 C11.849489,3.10711365 11.849489,3.34423549 11.9925797,3.48732625 C12.0661693,3.56091578 12.1602003,3.59771055 12.2542314,3.59771055 C12.3482625,3.59771055 12.4463818,3.55682747 12.5158831,3.48732625 Z" id="Path" fill="#2C2F33"></path>
            <path d="M10.9950327,5.00817661 C11.0645339,4.93867539 11.105417,4.84464432 11.105417,4.74652494 C11.105417,4.64840556 11.0645339,4.55437449 10.9950327,4.48487326 C10.9255315,4.41537204 10.8315004,4.37448896 10.733381,4.37448896 C10.6352617,4.37448896 10.5412306,4.41537204 10.4717294,4.48487326 C10.4022281,4.55437449 10.3654334,4.64840556 10.3654334,4.74652494 C10.3654334,4.84464432 10.4063164,4.93867539 10.4758177,5.00817661 C10.5453189,5.07767784 10.63935,5.11856092 10.7374693,5.11856092 C10.8315004,5.11856092 10.9255315,5.07767784 10.9950327,5.00817661 Z" id="Path" fill="#2C2F33"></path>
            <path d="M14.1757359,17.9599346 L15.0383688,12.4775143 C15.0424571,12.4570728 15.0424571,12.4407195 15.0424571,12.420278 C15.0424571,11.2673753 14.1062347,10.3311529 12.953332,10.3311529 L9.71130417,10.3311529 L9.71130417,7.99672935 C9.71130417,7.01144726 9.42512265,6.30417007 8.85684791,5.88716271 C7.95742028,5.22894522 6.72275143,5.6050695 6.66960343,5.62142273 C6.51424775,5.67048242 6.41204007,5.81357318 6.41204007,5.97301717 L6.41204007,8.59362224 C6.41204007,10.6623058 4.01629191,11.3654947 3.91408422,11.3941128 C3.86502453,11.4063778 3.82414146,11.4309076 3.78734669,11.4595258 C3.66060916,11.3000818 3.4643704,11.1978741 3.24769011,11.1978741 L0.704762878,11.1978741 C0.324550286,11.1978741 0.0138389207,11.5085854 0.0138389207,11.888798 L0.0138389207,19.0760425 C0.0138389207,19.4562551 0.324550286,19.7669665 0.704762878,19.7669665 L3.24769011,19.7669665 C3.50116517,19.7669665 3.72602208,19.627964 3.84458299,19.4235487 C4.22070728,19.7833197 4.7276574,20 5.28366721,20 L11.6941333,20 C13.112776,19.9959117 14.0162919,19.255928 14.1757359,17.9599346 Z M3.19863042,19.0228945 L0.753822567,19.0228945 L0.753822567,11.9337694 L3.19863042,11.9337694 L3.19863042,19.0228945 Z M3.93861406,17.9108749 L3.93861406,12.1095666 C3.99585037,12.1218316 4.05308667,12.1218316 4.11441128,12.1054783 C4.23706051,12.0727719 7.15202371,11.2264922 7.15202371,8.59362224 L7.15202371,6.27146361 C7.47091169,6.22240392 8.0228332,6.19378577 8.41939902,6.4840556 C8.78734669,6.75388389 8.97132052,7.26083401 8.97132052,7.99672935 L8.97132052,10.7072772 C8.97132052,10.9116926 9.13894113,11.0793132 9.3433565,11.0793132 L12.9574203,11.0793132 C13.6892273,11.0793132 14.2902085,11.6680294 14.3024734,12.3998365 L13.4439289,17.8577269 C13.4439289,17.8618152 13.4439289,17.8659035 13.4439289,17.8699918 C13.3294563,18.7939493 12.7448283,19.2600164 11.6982216,19.2600164 L5.28775552,19.2600164 C4.54368357,19.255928 3.93861406,18.6508585 3.93861406,17.9108749 Z" id="Shape" fill="#2C2F33"></path>
        </g>
    </g>
</svg>