<?xml version="1.0" encoding="UTF-8"?>
<svg width="13px" height="13px" viewBox="0 0 16 16" version="1.1" xmlns="http://www.w3.org/2000/svg" xmlns:xlink="http://www.w3.org/1999/xlink">
    <!-- Generator: Sketch 62 (91390) - https://sketch.com -->
    <title>draft-svgrepo-com</title>
    <desc>Created with Sketch.</desc>
    <g id="Page-1" stroke="none" stroke-width="1" fill="none" fill-rule="evenodd">
        <g id="draft-svgrepo-com" fill-rule="nonzero">
            <path d="M15.7398807,7.8657234 L10.6298238,12.892329 C10.2818144,13.2358996 8.42369261,14.4903315 8.07124428,14.1440977 C7.71879595,13.7978638 9.00518796,11.9805798 9.35408517,11.6370093 L14.464142,6.61040366 C14.8187353,6.26724653 15.3824494,6.27000597 15.7336663,6.61661812 C15.9027652,6.78000859 15.9987737,7.00472418 15.9999544,7.23986145 C16.0011134,7.47499873 15.9073456,7.70065848 15.7398807,7.8657234 L15.7398807,7.8657234 Z" id="Path" fill="#011C32"></path>
            <path d="M11.2059925,0 L1.26286586,0 C0.56948094,0.00828961671 0.0135636965,0.576119373 0.0199201286,1.26952421 L0.0199201286,14.7105008 C0.0135636965,15.4039056 0.56948094,15.9717354 1.26286586,15.980025 L11.2059925,15.980025 C11.8993774,15.9717354 12.4552947,15.4039056 12.4489382,14.7105008 L12.4489382,12.2957414 L11.2148703,13.5297545 C11.1971147,13.5475101 9.50145651,15.0922458 8.2408101,15.0922458 C7.94307638,15.1029708 7.65407175,14.9905801 7.44180885,14.7815231 C6.73158552,14.062422 7.3885421,12.9349424 7.67263143,12.4466639 C7.96752001,11.9371613 8.31250292,11.4583489 8.70245526,11.0173394 L12.4489382,7.27091136 L12.4489382,1.26952421 C12.4552947,0.576119373 11.8993774,0.00828961671 11.2059925,0 Z M2.7099459,1.77555833 L7.12220835,1.77555833 C7.61251524,1.77555833 8.00998752,2.1730306 8.00998752,2.66333749 C8.00998752,3.15364439 7.61251524,3.55111666 7.12220835,3.55111666 L2.7099459,3.55111666 C2.21963901,3.55111666 1.82216674,3.15364439 1.82216674,2.66333749 C1.82216674,2.1730306 2.21963901,1.77555833 2.7099459,1.77555833 Z M6.23442919,10.6622278 L2.68331253,10.65335 C2.3465811,10.68715 2.01992294,10.5265652 1.84103354,10.2392864 C1.66214414,9.95200768 1.66214414,9.58801174 1.84103354,9.300733 C2.01992294,9.01345426 2.3465811,8.85286942 2.68331253,8.88666944 L6.23442919,8.88666944 C6.72473608,8.88666944 7.12220835,9.28414171 7.12220835,9.77444861 C7.12220835,10.2647555 6.72473608,10.6622278 6.23442919,10.6622278 L6.23442919,10.6622278 Z M9.78554585,7.10223332 L2.68331253,7.10223332 C2.19300563,7.10223332 1.79553336,6.70476105 1.79553336,6.21445415 C1.79553336,5.72414726 2.19300563,5.32667499 2.68331253,5.32667499 L9.78554585,5.32667499 C10.2758527,5.32667499 10.673325,5.72414726 10.673325,6.21445415 C10.673325,6.70476105 10.2758527,7.10223332 9.78554585,7.10223332 Z" id="Shape" fill="#48A178"></path>
        </g>
    </g>
</svg>