<?xml version="1.0" encoding="UTF-8"?>
<svg width="16px" height="16px" viewBox="0 0 16 16" version="1.1" xmlns="http://www.w3.org/2000/svg" xmlns:xlink="http://www.w3.org/1999/xlink">
    <!-- Generator: Sketch 62 (91390) - https://sketch.com -->
    <title>debug-rerun-svgrepo-com</title>
    <desc>Created with Sketch.</desc>
    <g id="Page-1" stroke="none" stroke-width="1" fill="none" fill-rule="evenodd">
        <g id="debug-rerun-svgrepo-com" fill-rule="nonzero">
            <path d="M7.75859269,10.8254398 C7.75928907,12.3587946 6.68742238,13.6837148 5.18773047,14.0032485 C3.68803856,14.3227822 2.16919161,13.5498555 1.54479026,12.1493911 L0.540189445,12.5564276 C1.31976595,14.3458441 3.19990424,15.3927619 5.13162012,15.1130749 C7.063336,14.8333879 8.56933018,13.2962026 8.80936442,11.3591599 C9.04939866,9.42211714 7.96416393,7.56383232 6.15914447,6.82109695 C4.35412501,6.07836158 2.27531523,6.63469492 1.08254398,8.1797023 L1.08254398,6.85575101 L0,6.85575101 L0,9.74289581 L0.541271989,10.2841678 L3.06684709,10.2841678 L3.06684709,9.20162382 L1.69742896,9.20162382 C2.43193927,7.92760147 3.93088315,7.30614099 5.35138082,7.6866994 C6.77187849,8.0672578 7.75937795,9.35484884 7.75859269,10.8254398 Z" id="Path" fill="#48A178"></path>
            <polygon id="Path" fill="#DA4167" points="5.41271989 0.443843031 6.25710419 0 16 6.49526387 16 7.39377537 10.8254398 10.843843 10.8254398 9.54479026 14.7225981 6.94993234 6.49526387 1.46143437 6.49526387 5.41271989 5.41271989 5.41271989"></polygon>
        </g>
    </g>
</svg>