<?xml version="1.0" encoding="UTF-8"?>
<svg width="16px" height="16px" viewBox="0 0 16 16" version="1.1" xmlns="http://www.w3.org/2000/svg" xmlns:xlink="http://www.w3.org/1999/xlink">
    <!-- Generator: Sketch 62 (91390) - https://sketch.com -->
    <title>send-svgrepo-com</title>
    <desc>Created with Sketch.</desc>
    <g id="Page-1" stroke="none" stroke-width="1" fill="none" fill-rule="evenodd">
        <g id="send-svgrepo-com" fill="#6E6E6E" fill-rule="nonzero">
            <path d="M16.0000041,7.69131833 C16.0014382,8.35406771 15.6208595,8.95831983 15.022508,9.24330118 L2.46087889,15.1939979 C2.23097071,15.3193495 1.97627995,15.3925365 1.71489818,15.4083601 C1.13374034,15.4071487 0.592740799,15.111686 0.277599958,14.6233908 C-0.0375408839,14.1350957 -0.0839356591,13.5204199 0.154340836,12.9903537 L2.10932476,8.54876742 L6.85959271,8.54876742 C7.33314877,8.54876742 7.7170418,8.16487438 7.7170418,7.69131833 C7.7170418,7.21776227 7.33314877,6.83386924 6.85959271,6.83386924 L2.10932476,6.83386924 L0.154340836,2.43515541 C-0.135757145,1.7805505 0.0113751752,1.01460844 0.523366603,0.514079506 C1.03535803,0.0135505727 1.80443466,-0.116204177 2.45230439,0.1886388 L2.45230439,0.1886388 L15.0139335,6.13933548 C15.615627,6.42183831 16.0000041,7.02660576 16.0000041,7.69131833 Z" id="Path"></path>
        </g>
    </g>
</svg>