<svg width="16px" height="17px" viewBox="0 0 16 17" version="1.1" xmlns="http://www.w3.org/2000/svg">
    <g id="Page-1" stroke="none" stroke-width="1" fill="none" fill-rule="evenodd">
        <g id="send" transform="translate(0.000000, 0.484555)" fill="#6E6E6E" fill-rule="nonzero">
            <path d="M5.32395965,15.6948159 C5.32395965,15.8039142 5.37719569,15.9039638 5.46184973,15.954945 C5.54643911,16.0058895 5.64929101,15.9993421 5.72835316,15.9377306 L7.50902924,14.5541023 L5.32399198,13.368955 L5.32399198,15.6948159 L5.32395965,15.6948159 Z"
                  ></path>
            <path d="M15.9168652,0.0898608 C15.8679604,0.0385485544 15.8048335,0.011696985 15.7410278,0.011696985 C15.7025634,0.011696985 15.664196,0.0214076896 15.6278972,0.04171189 L0.255513603,8.6227378 C0.0983913229,8.71061232 -0.00103433717,8.893203 2.38252035e-05,9.09293453 C0.00109898324,9.29240859 0.102205441,9.47374864 0.260459028,9.55967366 L4.31189306,11.7564999 L12.4126924,4.17957551 L5.31568496,12.3007407 L10.3627655,15.0373938 C10.4247611,15.0711974 10.4924455,15.0880072 10.5594188,15.0880072 C10.616566,15.0880072 10.6731636,15.0761631 10.7270461,15.0520702 C10.844605,14.9991763 10.9380186,14.8932413 10.9846607,14.7594249 L15.9816728,0.414065913 C16.0212362,0.301178973 15.9954425,0.172107525 15.9168652,0.0898608 Z"
                  ></path>
        </g>
    </g>
</svg>