<?xml version="1.0" encoding="UTF-8"?>
<svg width="18px" height="18px" viewBox="0 0 18 18" version="1.1" xmlns="http://www.w3.org/2000/svg" xmlns:xlink="http://www.w3.org/1999/xlink">
    <!-- Generator: Sketch 62 (91390) - https://sketch.com -->
    <title>send-svgrepo-com (2)</title>
    <desc>Created with Sketch.</desc>
    <g id="Page-1" stroke="none" stroke-width="1" fill="none" fill-rule="evenodd">
        <g id="send-svgrepo-com-(2)" transform="translate(1.333333, 1.333333)">
            <path d="M13.9590854,9.27075812 L1.38628159,15.2298436 C1.02258576,15.4009738 0.5908478,15.3281332 0.303430229,15.0471503 C0.0160126585,14.7661675 -0.0665832828,14.3361892 0.0962695548,13.9687124 L2.71480144,8.06738869 C2.82070206,7.81490695 2.82070206,7.53046007 2.71480144,7.27797834 L0.683513839,2.70517449 L13.198556,8.63537906 C13.5049148,8.77441107 13.7677754,8.99401611 13.9590854,9.27075812 L13.9590854,9.27075812 Z" id="secondary-fill" fill="#48A178" fill-rule="nonzero"></path>
            <path d="M15.4897714,8.53910951 L13.9590854,9.27075812 L1.38628159,15.2298436 C1.02258576,15.4009738 0.5908478,15.3281332 0.303430229,15.0471503 C0.0160126585,14.7661675 -0.0665832828,14.3361892 0.0962695548,13.9687124 L2.71480144,8.06738869 C2.82070206,7.81490695 2.82070206,7.53046007 2.71480144,7.27797834 L0.683513839,2.70517449 L0.0962695548,1.37665463 C-0.0665832828,1.00917787 0.0160126585,0.579199563 0.303430229,0.298216714 C0.5908478,0.0172338654 1.02258576,-0.0556067975 1.38628159,0.115523466 L15.4897714,6.8543923 C15.7962126,7.02394112 15.9864039,7.34653236 15.9864039,7.6967509 C15.9864039,8.04696944 15.7962126,8.36956068 15.4897714,8.53910951 Z M2.88808664,7.67268351 L6.73886883,7.67268351" id="primary-stroke" stroke="#6E6E6E" stroke-linecap="round" stroke-linejoin="round"></path>
        </g>
    </g>
</svg>