<?xml version="1.0" encoding="UTF-8"?>
<svg width="15px" height="16px" viewBox="0 0 15 16" version="1.1" xmlns="http://www.w3.org/2000/svg" xmlns:xlink="http://www.w3.org/1999/xlink">
    <!-- Generator: Sketch 62 (91390) - https://sketch.com -->
    <title>toolchain</title>
    <desc>Created with Sketch.</desc>
    <g id="Page-1" stroke="none" stroke-width="1" fill="none" fill-rule="evenodd">
        <g id="toolchain" transform="translate(0.142857, 0.142857)" fill-rule="nonzero">
            <path d="M13.4175772,10.253215 L0.790348681,10.253215 C0.577002939,10.253215 0.403881346,10.0773329 0.403881346,9.85886054 C0.403881346,9.6411769 0.577002939,9.46450613 0.790348668,9.46450613 L13.4175772,9.46450613 C13.6317116,9.46450613 13.8044388,9.6411769 13.8044388,9.85886054 C13.8044388,10.0773329 13.6317116,10.253215 13.4175772,10.253215 L13.4175772,10.253215 Z M11.2089418,13.9418428 L11.9274556,13.6168948 L12.5773516,15.0539223 L11.8588379,15.3788703 L11.2089418,13.9418428 Z M6.31919763,7.69115224e-08 L7.8966153,7.69115224e-08 L7.8966153,2.76048101 L6.31919763,2.76048101 L6.31919763,7.69115224e-08 Z M2.35564137,15.3823044 L1.63712761,15.0573564 L2.28702369,13.6203289 L3.00553745,13.9452769 L2.35564137,15.3823044 Z" id="Shape" fill="#013D4F"></path>
            <g id="Group" transform="translate(0.009506, 9.070060)" fill="#DA4167">
                <circle id="Oval" cx="13.4079343" cy="0.788702018" r="1"></circle>
                <circle id="Oval" cx="0.788702018" cy="0.788702018" r="1"></circle>
            </g>
            <path d="M9.03038426,5.41645802 C8.6683669,5.80292535 8.17857871,6.0671428 7.62766559,6.1424645 L11.2647964,14.0614956 L11.9844932,13.7337871 L12.0842649,12.0356969 L9.03038426,5.41645802 Z M5.18937222,5.41645802 C5.55138957,5.80292535 6.04117776,6.0671428 6.59209088,6.1424645 L2.95496008,14.0614956 L2.23526326,13.7337871 L2.1354916,12.0356969 L5.18937222,5.41645802 L5.18937222,5.41645802 Z" id="Shape" fill="#38A98B"></path>
            <path d="M7.10790646,1.97177217 C5.80141028,1.97177217 4.74177995,3.0314025 4.74177995,4.33789868 C4.74177995,5.64439487 5.80141028,6.70402519 7.10790646,6.70402519 C8.41440265,6.70402519 9.47403298,5.64439487 9.47403298,4.33789868 C9.47403298,3.0314025 8.41440265,1.97177217 7.10790646,1.97177217 Z M7.10790646,5.52096194 C6.45485555,5.52096194 5.92484321,4.99094959 5.92484321,4.33789868 C5.92484321,3.68484777 6.45485555,3.15483543 7.10790646,3.15483543 C7.76095738,3.15483543 8.29096972,3.68484777 8.29096972,4.33789868 C8.29096972,4.99094959 7.76095738,5.52096194 7.10790646,5.52096194 Z M6.31919763,8.67579729 L7.8966153,8.67579729 L7.8966153,11.0419238 L6.31919763,11.0419238 L6.31919763,8.67579729 Z" id="Shape" fill="#6B9E78"></path>
        </g>
    </g>
</svg>