<?xml version="1.0" encoding="UTF-8"?>
<svg width="16px" height="17px" viewBox="0 0 16 17" version="1.1" xmlns="http://www.w3.org/2000/svg" xmlns:xlink="http://www.w3.org/1999/xlink">
    <!-- Generator: Sketch 62 (91390) - https://sketch.com -->
    <title>idea-bulb-glow-svgrepo-com</title>
    <desc>Created with Sketch.</desc>
    <g id="Page-1" stroke="none" stroke-width="1" fill="none" fill-rule="evenodd">
        <g id="idea-bulb-glow-svgrepo-com" stroke="#6B9BFA">
            <line x1="13.4634146" y1="5.94285714" x2="16" y2="5.57714286" id="Path"></line>
            <line x1="12.6829268" y1="3.74857143" x2="14.2439024" y2="2.83428571" id="Path"></line>
            <line x1="11.1219512" y1="2.19428571" x2="12.195122" y2="0" id="Path"></line>
            <line x1="8.05463415" y1="1.82857143" x2="8.04292683" y2="0.0914285714" id="Path"></line>
            <line x1="5.17073171" y1="2.28571429" x2="4.29268293" y2="0" id="Path"></line>
            <line x1="3.12195122" y1="3.74857143" x2="1.56097561" y2="2.92571429" id="Path"></line>
            <line x1="2.43902439" y1="5.76" x2="0" y2="5.39428571" id="Path"></line>
            <path d="M5.81268293,12.2514286 C5.81268293,10.7182098 4.8072045,9.43161335 4.26506567,8.48077998 C3.96386493,7.95280194 3.80578035,7.36282255 3.80487805,6.7633372 C3.80487805,4.74578764 5.76225141,3.10857143 7.90243902,3.10857143" id="Path"></path>
            <path d="M9.99219512,12.2514286 C9.99219512,10.7182098 10.9976735,9.43161335 11.5398124,8.48077998 C11.8410131,7.95280194 11.9990977,7.36282255 12,6.7633372 C12,4.74578764 10.0426266,3.10857143 7.90243902,3.10857143" id="Path"></path>
            <rect id="Rectangle" stroke-width="0.6" x="4.97560976" y="12.16" width="6.04878049" height="1.28" rx="0.64"></rect>
            <rect id="Rectangle" stroke-width="0.6" x="5.36585366" y="13.44" width="5.26829268" height="1.28" rx="0.64"></rect>
            <path d="M8.97242715,14.72 L8.97242715,14.9686605 C9.00271843,15.3271389 8.81497201,15.6711689 8.48650545,15.8590724 C8.15803888,16.0469759 7.74440014,16.0469759 7.41593358,15.8590724 C7.08746702,15.6711689 6.89972059,15.3271389 6.93001188,14.9686605 L6.93001188,14.72" id="Path"></path>
            <path d="M5.26829268,6.49142857 C5.30075138,5.90421683 5.58634214,5.35293812 6.06213918,4.95905872 C6.53793622,4.56517933 7.16489638,4.36102038 7.80487805,4.39156534" id="Path"></path>
        </g>
    </g>
</svg>