<?xml version="1.0" encoding="UTF-8"?>
<svg width="15px" height="18px" viewBox="0 0 15 18" version="1.1" xmlns="http://www.w3.org/2000/svg" xmlns:xlink="http://www.w3.org/1999/xlink">
    <!-- Generator: Sketch 62 (91390) - https://sketch.com -->
    <title>default</title>
    <desc>Created with Sketch.</desc>
    <g id="Page-1" stroke="none" stroke-width="1" fill="none" fill-rule="evenodd" stroke-linecap="round">
        <g id="default" transform="translate(0.000000, 1.000000)" stroke="#48A178">
            <path d="M0,7.49163457 L6.75097325,0.787219753 C7.68309053,-0.138471111 9.19437243,-0.138471111 10.12643,0.787219753 L10.12643,0.787219753 C11.0585871,1.71289877 11.0585871,3.21373827 10.12643,4.13942716 L5.02806893,9.20266667" id="Path"></path>
            <path d="M5.09839095,9.13283951 L10.12643,4.13942716 C11.0585871,3.21373827 12.5698491,3.21373827 13.5020062,4.13942716 L13.5371125,4.17434074 C14.4692695,5.10002963 14.4692695,6.60086914 13.5371125,7.52654815 L7.43147874,13.5901235 C7.12077298,13.8986667 7.12077298,14.3989136 7.43147874,14.7074568 L8.68518176,15.9525926" id="Path"></path>
            <path d="M8.43874143,2.46331852 L3.44580864,7.42179753 C2.51369136,8.34748642 2.51369136,9.8482963 3.44580864,10.7740247 L3.44580864,10.7740247 C4.37792593,11.6996543 5.88917798,11.6996543 6.82129527,10.7740247 L11.8142181,5.81552593" id="Path"></path>
        </g>
    </g>
</svg>