<?xml version="1.0" encoding="UTF-8"?>
<svg width="11px" height="13px" viewBox="0 0 13 16" version="1.1" xmlns="http://www.w3.org/2000/svg" xmlns:xlink="http://www.w3.org/1999/xlink">
    <!-- Generator: Sketch 62 (91390) - https://sketch.com -->
    <title>task-list-svgrepo-com</title>
    <desc>Created with Sketch.</desc>
    <g id="Page-1" stroke="none" stroke-width="1" fill="none" fill-rule="evenodd">
        <g id="task-list-svgrepo-com" transform="translate(0.261913, 0.000000)" fill-rule="nonzero">
            <path d="M10.3308856,0.726779914 L7.8381025,0.726779914 L7.736753,0.271556842 C7.70195022,0.112939097 7.56100576,0 7.3984795,0 L4.59053417,0 C4.42800791,0 4.28760725,0.112939097 4.25226067,0.271556842 L4.15142098,0.726779914 L1.65812812,0.726779914 C0.746084581,0.726779914 0.00452028286,1.46861611 0.00452028286,2.38065965 L0.00452028286,14.3461543 C0.00452028286,15.2581978 0.746084581,16.000034 1.65812812,16.000034 L10.3309195,16.000034 C11.2429631,16.000034 11.9850712,15.2581978 11.9850712,14.3461543 L11.9850712,2.38065965 C11.9850712,1.46861611 11.2429291,0.726779914 10.3308856,0.726779914 Z M10.9041118,14.3461203 C10.9041118,14.6620303 10.6470674,14.9190746 10.3308856,14.9190746 L1.65809413,14.9190746 C1.34245603,14.9190746 1.08541168,14.6620303 1.08541168,14.3461203 L1.08541168,2.38065965 C1.08541168,2.06474965 1.34245603,1.80773929 1.65809413,1.80773929 L3.91123422,1.80773929 L3.85372807,2.06634705 C3.8304809,2.16898806 3.85583526,2.27665915 3.9212944,2.35850006 C3.98722935,2.44057889 4.08701545,2.48833075 4.19200156,2.48833075 L7.79741996,2.48833075 C7.90247405,2.48833075 8.00222615,2.44057889 8.0676513,2.35850006 C8.13365423,2.27642124 8.15897461,2.16902204 8.13576143,2.06634705 L8.07825527,1.80773929 L10.3308856,1.80773929 C10.6470674,1.80773929 10.9041118,2.06478364 10.9041118,2.38065965 L10.9041118,14.3461203 Z" id="Shape" fill="#6D7278"></path>
            <path d="M3.80094612,6.40405126 L5.27085373,6.40405126 L4.92150045,6.16549588 C4.42848373,5.82905769 4.30184784,5.15631724 4.63855793,4.6633685 C4.9747922,4.17092957 5.64773657,4.04347798 6.14068531,4.38045997 L6.19825944,4.41978303 L6.19825944,4.00731572 C6.19825944,3.73997328 5.98131985,3.52306767 5.71421531,3.52306767 L3.80094612,3.52306767 C3.53390956,3.52306767 3.31696997,3.74000726 3.31696997,4.00731572 L3.31696997,5.91980321 C3.31696997,6.18717965 3.53390956,6.40405126 3.80094612,6.40405126 Z" id="Path" fill="#6D7278"></path>
            <path d="M8.30155045,3.74921777 L6.60729405,5.35320445 L5.83565118,4.82674444 C5.59023041,4.6581005 5.25345234,4.72196224 5.0845705,4.96819871 C4.91619846,5.21463909 4.97955039,5.55087336 5.22656856,5.7192454 L6.35765888,6.49166998 C6.45003579,6.55502191 6.5561095,6.58588219 6.66221719,6.58588219 C6.79680606,6.58588219 6.93030735,6.53578522 7.03379804,6.43783443 L9.04471214,4.53408162 C9.26161774,4.32903751 9.27055635,3.98675353 9.06578414,3.77008584 C8.85995832,3.55341815 8.51842206,3.54417366 8.30155045,3.74921777 Z" id="Path" fill="#48A178"></path>
            <path d="M3.80094612,10.1169028 L5.27139753,10.1169028 L4.92150045,9.87807557 C4.42848373,9.5415694 4.30184784,8.86889693 4.63855793,8.37594819 C4.9747922,7.88320337 5.64773657,7.75575178 6.14068531,8.09300567 L6.19825944,8.13236272 L6.19825944,7.7198954 C6.19825944,7.45258695 5.98131985,7.23564736 5.71421531,7.23564736 L3.80094612,7.23564736 C3.53390956,7.23564736 3.31696997,7.45258695 3.31696997,7.7198954 L3.31696997,9.6326548 C3.31696997,9.89996325 3.53390956,10.1169028 3.80094612,10.1169028 Z" id="Path" fill="#6D7278"></path>
            <path d="M8.30155045,7.46203536 L6.60729405,9.06575015 L5.83565118,8.53929014 C5.59023041,8.3703743 5.25345234,8.43399813 5.0845705,8.6807444 C4.91619846,8.92725276 4.97955039,9.26341906 5.22656856,9.43182509 L6.35765888,10.2042497 C6.45003579,10.2676016 6.5561095,10.2984619 6.66221719,10.2984619 C6.79680606,10.2984619 6.93030735,10.2482969 7.03379804,10.1504141 L9.04471214,8.24689921 C9.26161774,8.0418551 9.27055635,7.69984302 9.06578414,7.48290343 C8.85995832,7.26620175 8.51842206,7.25722916 8.30155045,7.46203536 Z" id="Path" fill="#48A178"></path>
            <path d="M5.71421531,10.948431 L3.80094612,10.948431 C3.53390956,10.948431 3.31696997,11.1653706 3.31696997,11.432679 L3.31696997,13.3451665 C3.31696997,13.612475 3.53390956,13.8294146 3.80094612,13.8294146 L5.71421531,13.8294146 C5.98131985,13.8294146 6.19825944,13.612475 6.19825944,13.3451665 L6.19825944,11.432679 C6.19825944,11.1653706 5.98131985,10.948431 5.71421531,10.948431 Z" id="Path" fill="#6D7278"></path>
        </g>
    </g>
</svg>