<?xml version="1.0" encoding="UTF-8"?>
<svg width="16px" height="16px" viewBox="0 0 16 16" version="1.1" xmlns="http://www.w3.org/2000/svg" xmlns:xlink="http://www.w3.org/1999/xlink">
    <!-- Generator: Sketch 62 (91390) - https://sketch.com -->
    <title>Group</title>
    <desc>Created with Sketch.</desc>
    <g id="Page-1" stroke="none" stroke-width="1" fill="none" fill-rule="evenodd">
        <g id="Group" transform="translate(0.000000, 0.816667)" fill-rule="nonzero">
            <polygon id="Path" fill="#6E6E6E" points="3.832475 6.70701667 3.832475 12.455725 12.4555333 12.455725 12.4555333 7.66514167 14.3727333 7.66514167 14.3727333 14.3719667 1.91623333 14.3719667 1.91623333 6.70701667"></polygon>
            <polygon id="Path" fill="#48A178" points="14.6605583 1.94938333 16 3.32045833 8.95783333 10.202625 5.55746667 6.87890833 6.89788333 5.5088 8.95783333 7.52275833 14.66055 1.94938333"></polygon>
            <polygon id="Path" fill="#6DD400" points="3.83246667 4.4408921e-16 3.83246667 1.91719167 5.74966667 1.91719167 5.74966667 3.83343333 3.832475 3.83343333 3.832475 5.74870833 1.91623333 5.74870833 1.91623333 3.83343333 0 3.83343333 0 1.91719167 1.91623333 1.91719167 1.91623333 4.4408921e-16 3.832475 4.4408921e-16"></polygon>
            <polygon id="Path" fill="#E02020" points="11.4976 1.916525 11.4976 3.83275 6.70701667 3.83275 6.70701667 1.916525"></polygon>
        </g>
    </g>
</svg>