<?xml version="1.0" encoding="UTF-8"?>
<svg width="16px" height="16px" viewBox="0 0 16 16" version="1.1" xmlns="http://www.w3.org/2000/svg" xmlns:xlink="http://www.w3.org/1999/xlink">
    <!-- Generator: Sketch 62 (91390) - https://sketch.com -->
    <title>ruler-svgrepo-com (1)</title>
    <desc>Created with Sketch.</desc>
    <g id="Page-1" stroke="none" stroke-width="1" fill="none" fill-rule="evenodd">
        <g id="ruler-svgrepo-com-(1)" fill-rule="nonzero">
            <path d="M15.9407347,15.4858449 L5.16519184,0.138906122 C5.08336327,0.0223346939 4.93537959,-0.027722449 4.79957551,0.0151836735 C4.66377143,0.0580897959 4.57142857,0.184065306 4.57142857,0.326530612 L4.57142857,4.57142857 L6.20408163,4.57142857 L6.20408163,5.2244898 L4.57142857,5.2244898 L4.57142857,6.85714286 L6.20408163,6.85714286 L6.20408163,7.51020408 L4.57142857,7.51020408 L4.57142857,9.14285714 L6.20408163,9.14285714 L6.20408163,9.79591837 L4.57142857,9.79591837 L4.57142857,11.4285714 L6.20408163,11.4285714 L6.20408163,12.0816327 L4.57142857,12.0816327 L4.57142857,13.7142857 L6.20408163,13.7142857 L6.20408163,14.3673469 L4.57142857,14.3673469 L4.57142857,15.6734694 C4.57142857,15.8538122 4.71761633,16 4.89795918,16 L15.6734694,16 C15.795298,16 15.9070041,15.9321469 15.9632,15.8240653 C16.0193959,15.715951 16.0107102,15.5855347 15.9407347,15.4858449 Z M11.2961306,12.8807184 C11.2408163,12.9913469 11.1277714,13.0612245 11.0040816,13.0612245 L7.5755102,13.0612245 C7.39516735,13.0612245 7.24897959,12.9150367 7.24897959,12.7346939 L7.24897959,8.16326531 C7.24897959,8.02272653 7.33890612,7.89792653 7.47226122,7.85348571 C7.60558367,7.80901224 7.75239184,7.8548898 7.83673469,7.96734694 L11.2653061,12.5387755 C11.3394939,12.6377143 11.3514776,12.7701224 11.2961306,12.8807184 Z" id="Shape" fill="#6E6E6E"></path>
            <path d="M3.59183673,0 L0.326530612,0 C0.146187755,0 0,0.146187755 0,0.326530612 L0,2.12244898 L1.72336327,2.12244898 L1.72336327,2.7755102 L0,2.7755102 L0,4.73469388 L1.72336327,4.73469388 L1.72336327,5.3877551 L0,5.3877551 L0,7.67346939 L1.72336327,7.67346939 L1.72336327,8.32653061 L0,8.32653061 L0,10.6122449 L1.72336327,10.6122449 L1.72336327,11.2653061 L0,11.2653061 L0,13.2244898 L1.72336327,13.2244898 L1.72336327,13.877551 L0,13.877551 L0,15.6734694 C0,15.8538122 0.146187755,16 0.326530612,16 L3.59183673,16 C3.77217959,16 3.91836735,15.8538122 3.91836735,15.6734694 L3.91836735,0.326530612 C3.91836735,0.146187755 3.77217959,0 3.59183673,0 Z" id="Path" fill="#48A178"></path>
        </g>
    </g>
</svg>