<?xml version="1.0" encoding="UTF-8"?>
<svg width="13px" height="16px" viewBox="0 0 13 16" version="1.1" xmlns="http://www.w3.org/2000/svg" xmlns:xlink="http://www.w3.org/1999/xlink">
    <!-- Generator: Sketch 62 (91390) - https://sketch.com -->
    <title>save-svgrepo-com</title>
    <desc>Created with Sketch.</desc>
    <g id="Page-1" stroke="none" stroke-width="1" fill="none" fill-rule="evenodd">
        <g id="save-svgrepo-com" transform="translate(0.166667, 0.000000)" fill-rule="nonzero">
            <path d="M10.8235333,10.3529417 C11.6018833,10.3529417 12.2352917,10.9863583 12.2352917,11.7647083 L12.2352917,14.5882333 C12.2352917,15.3665917 11.601875,16 10.8235333,16 L1.41176667,16 C0.633408333,16 0,15.3665833 0,14.5882333 L0,11.7647083 C0,10.98635 0.633416667,10.3529417 1.41176667,10.3529417 L10.8235333,10.3529417 Z" id="Path" fill="#48A178"></path>
            <polygon id="Path" fill="#6D7278" points="6.58823333 0 6.58823333 2.82353333 5.64706667 2.82353333 5.64706667 0"></polygon>
            <path d="M2.82353333,12.2352917 C3.34305833,12.2352917 3.7647,12.657875 3.7647,13.1764667 C3.7647,13.6950583 3.34305833,14.11765 2.82353333,14.11765 C2.304,14.11765 1.88235,13.6950667 1.88235,13.1764667 C1.88235,12.6578833 2.304,12.2352917 2.82353333,12.2352917 L2.82353333,12.2352917 Z" id="Path" fill="#000000"></path>
            <path d="M5.64705833,2.82353333 L5.64705833,6.39340833 L3.59435,4.34070833 L2.92893333,5.006125 L6.11765,8.194825 L9.30635,5.00611667 L8.64093333,4.3407 L6.58823333,6.39340833 L6.58823333,2.82353333 L10.8235333,2.82353333 C11.6047,2.82353333 12.2352917,3.45411667 12.2352917,4.23529167 L12.2352917,9.88235 C11.8494083,9.59059167 11.3505917,9.41176667 10.8235333,9.41176667 L1.41176667,9.41176667 C0.884708333,9.41176667 0.385883333,9.59059167 0,9.88235 L0,4.23529167 C0,3.454125 0.630583333,2.82353333 1.41176667,2.82353333 L5.64705833,2.82353333 Z" id="Path" fill="#6D7278"></path>
        </g>
    </g>
</svg>