<?xml version="1.0" encoding="UTF-8"?>
<svg width="17px" height="16px" viewBox="0 0 17 16" version="1.1" xmlns="http://www.w3.org/2000/svg" xmlns:xlink="http://www.w3.org/1999/xlink">
    <!-- Generator: Sketch 62 (91390) - https://sketch.com -->
    <title>terminal-svgrepo-com</title>
    <desc>Created with Sketch.</desc>
    <g id="Page-1" stroke="none" stroke-width="1" fill="none" fill-rule="evenodd">
        <g id="terminal-svgrepo-com" transform="translate(0.333333, 0.666667)" fill-rule="nonzero">
            <path d="M1.45322434,0 C0.650608538,0 0,0.653950954 0,1.45322434 L0,6.53950954 L0,7.99273388 L0,13.0790191 C0,13.8782925 0.650608538,14.5322434 1.45322434,14.5322434 L7.99273388,14.5322434 L14.5322434,14.5322434 C15.3351499,14.5322434 15.9854678,13.8782925 15.9854678,13.0790191 L15.9854678,7.99273388 L15.9854678,6.53950954 L15.9854678,1.45322434 C15.9854678,0.653950954 15.3351499,0 14.5322434,0 L7.99273388,0 L1.45322434,0 Z" id="Path" fill="#087D18"></path>
            <path d="M1.45322434,0 C0.650608538,0 0,0.650608538 0,1.45322434 L0,3.63306085 L0,5.81289737 L0,6.53950954 L0,7.26612171 L0,7.99273388 L0,10.1725704 L0,12.3524069 C0,13.1553134 0.650608538,13.8056312 1.45322434,13.8056312 L7.99273388,13.8056312 L14.5322434,13.8056312 C15.3351499,13.8056312 15.9854678,13.1553134 15.9854678,12.3524069 L15.9854678,10.1725704 L15.9854678,7.26612171 L15.9854678,5.81289737 L15.9854678,3.63306085 L15.9854678,1.45322434 C15.9854678,0.650608538 15.3351499,0 14.5322434,0 L7.99273388,0 L1.45322434,0 Z" id="Path" fill="#48A178"></path>
            <path d="M2.17983651,2.27066303 L2.17983651,3.08810173 L4.35967302,4.35967302 L2.17983651,5.63124432 L2.17983651,6.44868302 L5.81289737,4.35967302 L2.17983651,2.27066303 Z M5.81289737,5.81289737 L5.81289737,6.53950954 L9.44595822,6.53950954 L9.44595822,5.81289737 L5.81289737,5.81289737 Z" id="Shape" fill="#FFFFFF"></path>
        </g>
    </g>
</svg>