<?xml version="1.0" encoding="UTF-8"?>
<svg width="15px" height="15px" viewBox="0 0 15 15" version="1.1" xmlns="http://www.w3.org/2000/svg" xmlns:xlink="http://www.w3.org/1999/xlink">
    <!-- Generator: Sketch 62 (91390) - https://sketch.com -->
    <title>show-multiple-layers-at-a-time-svgrepo-com</title>
    <desc>Created with Sketch.</desc>
    <g id="Page-1" stroke="none" stroke-width="1" fill="none" fill-rule="evenodd">
        <g id="show-multiple-layers-at-a-time-svgrepo-com" fill-rule="nonzero">
            <path d="M11.2189542,7.97973856 L13.1013072,6.86666667 L12.4947712,6.50915033 L13.1372549,6.12875817 L14.3856209,6.86601307 L12.0562092,8.24379085 C11.7843777,8.1342399 11.5044518,8.04595724 11.2189542,7.97973856 Z" id="Path" fill="#6E6E6E"></path>
            <path d="M4.73071895,12.0568627 L4.56732026,11.8522876 C4.45517858,11.7077938 4.40957314,11.5225217 4.44183007,11.3424837 L1.29150327,9.47973856 L1.89738562,9.12222222 L1.25490196,8.74183007 L0.00653594771,9.47908497 L5.12941176,12.5091503 C4.99101853,12.3633227 4.85803119,12.2124583 4.73071895,12.0568627 L4.73071895,12.0568627 Z" id="Path" fill="#6E6E6E"></path>
            <polygon id="Path" fill="#6E6E6E" points="7.19673203 8.50326797 0.00653594771 4.2503268 7.19607843 0.00653594771 14.3856209 4.25163399"></polygon>
            <polygon id="Path" fill="#6E6E6E" points="1.29150327 4.25098039 7.19607843 7.74379085 13.1 4.25228758 7.19607843 0.765359477"></polygon>
            <path d="M5.93856209,9.61372549 L1.29150327,6.86535948 L1.89738562,6.50784314 L1.25490196,6.12745098 L0.00653594771,6.86470588 L5.43137255,10.0738562 C5.57973856,9.92875817 5.7496732,9.77385621 5.9379085,9.61372549 L5.93856209,9.61372549 Z" id="Path" fill="#6E6E6E"></path>
            <g id="Group" transform="translate(5.235294, 8.503268)" fill="#48A178">
                <path d="M4.90196078,1.61961947e-15 C7.51176471,1.61961947e-15 9.56862745,2.63006536 9.65359477,2.74183007 L9.65359477,2.74183007 L9.80392157,2.94117647 L9.65359477,3.14052288 C9.56862745,3.25228758 7.51176471,5.88235294 4.90196078,5.88235294 C2.29411765,5.88235294 0.247712418,3.25620915 0.160130719,3.14509804 L0.160130719,3.14509804 L1.01356831e-14,2.94117647 L0.160130719,2.7372549 C0.247712418,2.6254902 2.29477124,1.61961947e-15 4.90196078,1.61961947e-15 Z M4.90196078,0.588235294 C2.94640523,0.588235294 1.26470588,2.32875817 0.718954248,2.94117647 C1.26470588,3.55359477 2.94640523,5.29411765 4.90196078,5.29411765 C6.86339869,5.29411765 8.5751634,3.54901961 9.09738562,2.94117647 C8.57385621,2.33464052 6.85947712,0.588235294 4.90196078,0.588235294 Z" id="Combined-Shape"></path>
                <path d="M6.47058824,2.94117647 C6.47058824,2.07484745 5.7682898,1.37254902 4.90196078,1.37254902 C4.03563176,1.37254902 3.33333333,2.07484745 3.33333333,2.94117647 C3.33333333,3.80750549 4.03563176,4.50980392 4.90196078,4.50980392 C5.76784192,4.50872359 6.46950791,3.80705761 6.47058824,2.94117647 L6.47058824,2.94117647 Z" id="Path"></path>
            </g>
        </g>
    </g>
</svg>