<?xml version="1.0" encoding="UTF-8"?>
<svg width="887px" height="565px" viewBox="0 0 887 565" version="1.1" xmlns="http://www.w3.org/2000/svg" xmlns:xlink="http://www.w3.org/1999/xlink">
    <!-- Generator: Sketch 62 (91390) - https://sketch.com -->
    <title>Group</title>
    <desc>Created with Sketch.</desc>
    <defs>
        <rect id="path-1" x="0" y="0" width="112" height="38"></rect>
        <mask id="mask-2" maskContentUnits="userSpaceOnUse" maskUnits="objectBoundingBox" x="0" y="0" width="112" height="38" fill="white">
            <use xlink:href="#path-1"></use>
        </mask>
    </defs>
    <g id="Page-1" stroke="none" stroke-width="1" fill="none" fill-rule="evenodd">
        <g id="Group" transform="translate(0.000000, -4.000000)">
            <text id="AI-Agents-lang-(DevI" font-family="Helvetica" font-size="18" font-weight="normal">
                <tspan x="528.452637" y="543" fill="#000000">AI Agents lang</tspan>
                <tspan x="550.992188" y="565" font-family="Helvetica-Bold, Helvetica" font-weight="bold" fill="#000000">(Dev</tspan>
                <tspan x="590.006836" y="565" font-family="Helvetica-Bold, Helvetica" font-weight="bold" fill="#DA4167">Ins</tspan>
                <tspan x="616.013672" y="565" font-family="Helvetica-Bold, Helvetica" font-weight="bold" fill="#000000">)</tspan>
            </text>
            <text id="Your-AI-Agents-Hub-(" font-family="Helvetica" font-size="18" font-weight="normal">
                <tspan x="268.265137" y="541" fill="#000000">Your AI Agents Hub</tspan>
                <tspan x="303.196777" y="563" font-size="14" fill="#000000">(</tspan>
                <tspan x="307.858887" y="563" font-size="14" fill="#0EA0FF">out</tspan>
                <tspan x="327.320801" y="563" font-size="14" fill="#000000"> AutoDev)</tspan>
            </text>
            <text id="Project" font-family="Helvetica" font-size="18" font-weight="normal" fill="#000000">
                <tspan x="555.489258" y="18">Project</tspan>
            </text>
            <g id="agents-hub" transform="translate(254.000000, 302.000000)">
                <rect id="Rectangle" stroke="#979797" fill="#5B665E" x="0.5" y="0.5" width="169" height="206" rx="16"></rect>
                <g id="kanban" transform="translate(18.000000, 19.000000)">
                    <rect id="Rectangle" stroke="#979797" fill="#665B62" x="0.5" y="0.5" width="134" height="36" rx="8"></rect>
                    <text id="Kanban" font-family="Helvetica" font-size="12" font-weight="normal" fill="#FFFFFF">
                        <tspan x="47.3134766" y="23">Kanban</tspan>
                    </text>
                </g>
                <g id="cicd" transform="translate(18.000000, 65.000000)">
                    <rect id="Rectangle" stroke="#979797" fill="#665B62" x="0.5" y="0.5" width="134" height="36" rx="8"></rect>
                    <text id="CI/CD" font-family="Helvetica" font-size="12" font-weight="normal" fill="#FFFFFF">
                        <tspan x="51.6669922" y="23">CI/CD</tspan>
                    </text>
                </g>
                <g id="ops" transform="translate(18.000000, 111.000000)">
                    <rect id="Rectangle" stroke="#979797" fill="#665B62" x="0.5" y="0.5" width="134" height="36" rx="8"></rect>
                    <text id="Ops" font-family="Helvetica" font-size="12" font-weight="normal" fill="#FFFFFF">
                        <tspan x="56.9960938" y="23">Ops</tspan>
                    </text>
                </g>
                <g id="know" transform="translate(18.000000, 157.000000)">
                    <rect id="Rectangle" stroke="#979797" fill="#665B62" x="0.5" y="0.5" width="134" height="36" rx="8"></rect>
                    <text id="Knowledges" font-family="Helvetica" font-size="12" font-weight="normal" fill="#FFFFFF">
                        <tspan x="35.3105469" y="23">Knowledges</tspan>
                    </text>
                </g>
            </g>
            <g id="user intent" transform="translate(254.000000, 34.000000)">
                <g id="custom-agents">
                    <rect id="Rectangle" stroke="#979797" fill="#C6E0CD" x="0.5" y="0.5" width="169" height="206" rx="16"></rect>
                    <g id="cicd" transform="translate(18.000000, 34.000000)">
                        <rect id="Rectangle" stroke="#979797" fill="#A67F6A" x="0.5" y="0.5" width="134" height="36" rx="8"></rect>
                        <text id="BuiltIn-Actions" font-family="Helvetica" font-size="12" font-weight="normal" fill="#FFFFFF">
                            <tspan x="30.3095703" y="23">BuiltIn Actions</tspan>
                        </text>
                    </g>
                    <g id="ops" transform="translate(18.000000, 85.000000)">
                        <rect id="Rectangle" stroke="#979797" fill="#A67F6A" x="0.5" y="0.5" width="134" height="36" rx="8"></rect>
                        <text id="Custom-Actions" font-family="Helvetica" font-size="12" font-weight="normal" fill="#FFFFFF">
                            <tspan x="26.3134766" y="23">Custom Actions</tspan>
                        </text>
                    </g>
                    <g id="know" transform="translate(18.000000, 136.000000)">
                        <rect id="Rectangle" stroke="#979797" fill="#A67F6A" x="0.5" y="0.5" width="134" height="36" rx="8"></rect>
                        <text id="Custom-Agents" font-family="Helvetica" font-size="12" font-weight="normal" fill="#FFFFFF">
                            <tspan x="27.3095703" y="23">Custom Agents</tspan>
                        </text>
                    </g>
                </g>
            </g>
            <g id="devins" transform="translate(501.000000, 301.000000)">
                <rect id="Rectangle" stroke="#979797" fill-opacity="0.8" fill="#5B6662" x="0.5" y="0.5" width="169" height="206" rx="16"></rect>
                <g id="editing" transform="translate(18.000000, 13.000000)">
                    <rect id="Rectangle" stroke="#979797" fill="#2C3C35" x="0.5" y="0.5" width="134" height="36" rx="8"></rect>
                    <text id="File-Editing" font-family="Helvetica" font-size="12" font-weight="normal" fill="#FFFFFF">
                        <tspan x="38.3193359" y="23">File Editing</tspan>
                    </text>
                </g>
                <g id="editing" transform="translate(18.000000, 60.000000)">
                    <rect id="Rectangle" stroke="#979797" fill="#2C3C35" x="0.5" y="0.5" width="134" height="36" rx="8"></rect>
                    <text id="Run-Test" font-family="Helvetica" font-size="12" font-weight="normal" fill="#FFFFFF">
                        <tspan x="44.4277344" y="23">Run Test</tspan>
                    </text>
                </g>
                <g id="editing" transform="translate(18.000000, 107.000000)">
                    <rect id="Rectangle" stroke="#979797" fill="#2C3C35" x="0.5" y="0.5" width="134" height="36" rx="8"></rect>
                    <text id="Git" font-family="Helvetica" font-size="12" font-weight="normal" fill="#FFFFFF">
                        <tspan x="60.3330078" y="23">Git</tspan>
                    </text>
                </g>
                <g id="editing" transform="translate(18.000000, 154.000000)">
                    <rect id="Rectangle" stroke="#979797" fill="#2C3C35" x="0.5" y="0.5" width="134" height="36" rx="8"></rect>
                    <text id="Architecture" font-family="Helvetica" font-size="12" font-weight="normal" fill="#FFFFFF">
                        <tspan x="35.9873047" y="23">Architecture</tspan>
                    </text>
                </g>
            </g>
            <g id="ide" transform="translate(741.000000, 249.000000)">
                <rect id="Rectangle" stroke="#979797" fill="#48A178" x="0.5" y="0.5" width="145" height="50" rx="8"></rect>
                <text id="IDE" font-family="Helvetica" font-size="24" font-weight="normal" fill="#FFFFFF">
                    <tspan x="53.4960938" y="34">IDE</tspan>
                </text>
            </g>
            <g id="user" transform="translate(0.000000, 114.000000)">
                <rect id="Rectangle" stroke="#979797" fill="#699181" x="0.5" y="0.5" width="145" height="50" rx="8"></rect>
                <text id="User" font-family="Helvetica" font-size="24" font-weight="normal" fill="#FFFFFF">
                    <tspan x="47.1640625" y="34">User</tspan>
                </text>
            </g>
            <g id="project" transform="translate(496.000000, 34.000000)">
                <rect id="Rectangle" stroke="#979797" fill="#699181" x="0.5" y="0.5" width="173" height="206" rx="16"></rect>
                <g id="..." transform="translate(20.000000, 13.000000)">
                    <rect id="Rectangle" stroke="#979797" fill="#2C3C35" x="0.5" y="0.5" width="134" height="36" rx="8"></rect>
                    <text id="AST(syntax-tree)" font-family="Helvetica" font-size="12" font-weight="normal" fill="#FFFFFF">
                        <tspan x="22.9882812" y="23">AST(syntax tree)</tspan>
                    </text>
                </g>
                <g id="sdks" transform="translate(20.000000, 61.000000)">
                    <rect id="Rectangle" stroke="#979797" fill="#2C3C35" x="0.5" y="0.5" width="134" height="36" rx="8"></rect>
                    <text id="Libraries-/-Deps" font-family="Helvetica" font-size="12" font-weight="normal" fill="#FFFFFF">
                        <tspan x="25.9824219" y="23">Libraries / Deps</tspan>
                    </text>
                </g>
                <g id="libs" transform="translate(20.000000, 109.000000)">
                    <rect id="Rectangle" stroke="#979797" fill="#2C3C35" x="0.5" y="0.5" width="134" height="36" rx="8"></rect>
                    <text id="SDK-Version" font-family="Helvetica" font-size="12" font-weight="normal" fill="#FFFFFF">
                        <tspan x="33.9804688" y="23">SDK Version</tspan>
                    </text>
                </g>
                <g id="ast" transform="translate(20.000000, 157.000000)">
                    <rect id="Rectangle" stroke="#979797" fill="#2C3C35" x="0.5" y="0.5" width="134" height="36" rx="8"></rect>
                    <text id="…" font-family="Helvetica" font-size="12" font-weight="normal" fill="#FFFFFF">
                        <tspan x="62" y="23">…</tspan>
                    </text>
                </g>
            </g>
            <path id="Line" d="M719.001125,281.737067 L719.999099,281.80069 L733.739374,282.676664 L735.51355,282.789772 L734.495581,284.247246 L726.611816,295.534795 L726.039208,296.354624 L724.399549,295.209408 L724.972157,294.389579 L730.669,286.231 L723.368472,289.747278 L689.499159,306.054725 L682.197,309.57 L692.128147,310.203362 L693.126121,310.266985 L692.998875,312.262933 L692.000901,312.19931 L678.260626,311.323336 L676.48645,311.210228 L677.504419,309.752754 L685.388184,298.465205 L685.960792,297.645376 L687.600451,298.790592 L687.027843,299.610421 L681.33,307.768 L688.631528,304.252722 L722.500841,287.945275 L729.802,284.429 L719.871853,283.796638 L718.873879,283.733015 L719.001125,281.737067 Z" fill="#DA4167" fill-rule="nonzero"></path>
            <path id="Line" d="M681.72265,228.61325 L682.5547,229.16795 L721.25366,254.967256 L728.002,259.466 L723.492275,250.59653 L723.039029,249.705145 L724.821799,248.798651 L725.275046,249.690037 L731.515423,261.962778 L732.321195,263.547463 L730.548497,263.413168 L716.819667,262.373105 L715.822524,262.297564 L715.973606,260.303278 L716.970749,260.37882 L726.892,261.13 L720.144259,256.631357 L681.4453,230.83205 L680.61325,230.27735 L681.72265,228.61325 Z" fill="#011C32" fill-rule="nonzero"></path>
            <path id="Line" d="M722.309343,60.8190816 L722.745131,61.0642122 L730.745131,65.5642122 L731.519864,66 L730.745131,66.4357878 L722.745131,70.9357878 L722.309343,71.1809184 L721.819082,70.3093429 L722.254869,70.0642122 L728.591,66.5 L657.5,66.5 L657.5,65.5 L728.591,65.5 L722.254869,61.9357878 L721.819082,61.6906571 L722.309343,60.8190816 Z" fill="#000000" fill-rule="nonzero"></path>
            <path id="Line" d="M657.965428,111.293739 L658.335844,111.629583 L727.808562,174.618181 L732.292,178.683 L729.992035,171.786778 L729.833841,171.312463 L730.78247,170.996074 L730.940665,171.470389 L733.844731,180.17765 L734.125966,181.020876 L733.259304,180.823342 L724.310037,178.783581 L723.822539,178.672468 L724.044765,177.697473 L724.532263,177.808586 L731.62,179.424 L727.136873,175.359014 L657.664156,112.370417 L657.293739,112.034572 L657.965428,111.293739 Z" fill="#000000" fill-rule="nonzero"></path>
            <path id="Line" d="M243.286043,396.874252 L245.281817,397.004191 L245.216848,398.002078 L244.322337,411.741159 L244.206836,413.515181 L242.750736,412.495246 L231.473834,404.596259 L230.654778,404.022546 L231.802205,402.384434 L232.621261,402.958147 L240.77,408.666 L238.922324,404.813273 L238.489725,403.911686 L240.292897,403.046487 L240.725496,403.948073 L242.574,407.803 L243.221073,397.872139 L243.286043,396.874252 Z M235.101701,392.227454 L235.534301,393.12904 L238.995098,400.341729 L239.427698,401.243315 L237.624525,402.108514 L237.191926,401.206928 L233.731129,393.994239 L233.298529,393.092653 L235.101701,392.227454 Z M229.910506,381.40842 L230.343105,382.310006 L233.803902,389.522695 L234.236502,390.424281 L232.43333,391.289481 L232.00073,390.387894 L228.539933,383.175205 L228.107334,382.273619 L229.910506,381.40842 Z M224.71931,370.589386 L225.15191,371.490972 L228.612707,378.703662 L229.045307,379.605248 L227.242134,380.470447 L226.809535,379.568861 L223.348738,372.356172 L222.916138,371.454586 L224.71931,370.589386 Z M219.528115,359.770353 L219.960714,360.671939 L223.421511,367.884628 L223.854111,368.786214 L222.050939,369.651413 L221.618339,368.749827 L218.157542,361.537138 L217.724943,360.635552 L219.528115,359.770353 Z M214.336919,348.951319 L214.769519,349.852905 L218.230316,357.065594 L218.662916,357.96718 L216.859743,358.83238 L216.427144,357.930793 L212.966347,350.718104 L212.533747,349.816518 L214.336919,348.951319 Z M209.145724,338.132285 L209.578323,339.033871 L213.03912,346.246561 L213.47172,347.148147 L211.668548,348.013346 L211.235948,347.11176 L207.775151,339.899071 L207.342551,338.997485 L209.145724,338.132285 Z M203.954528,327.313252 L204.387128,328.214838 L207.847925,335.427527 L208.280525,336.329113 L206.477352,337.194312 L206.044753,336.292726 L202.583956,329.080037 L202.151356,328.178451 L203.954528,327.313252 Z M198.763333,316.494218 L199.195932,317.395804 L202.656729,324.608493 L203.089329,325.510079 L201.286157,326.375279 L200.853557,325.473693 L197.39276,318.261003 L196.96016,317.359417 L198.763333,316.494218 Z M193.572137,305.675184 L194.004737,306.576771 L197.465534,313.78946 L197.898133,314.691046 L196.094961,315.556245 L195.662362,314.654659 L192.201565,307.44197 L191.768965,306.540384 L193.572137,305.675184 Z M188.380942,294.856151 L188.813541,295.757737 L192.274338,302.970426 L192.706938,303.872012 L190.903766,304.737211 L190.471166,303.835625 L187.010369,296.622936 L186.577769,295.72135 L188.380942,294.856151 Z M183.189746,284.037117 L183.622346,284.938703 L187.083143,292.151392 L187.515742,293.052978 L185.71257,293.918178 L185.279971,293.016592 L181.819174,285.803902 L181.386574,284.902316 L183.189746,284.037117 Z M177.998551,273.218083 L178.43115,274.11967 L181.891947,281.332359 L182.324547,282.233945 L180.521375,283.099144 L180.088775,282.197558 L176.627978,274.984869 L176.195378,274.083283 L177.998551,273.218083 Z M172.807355,262.39905 L173.239955,263.300636 L176.700752,270.513325 L177.133351,271.414911 L175.330179,272.28011 L174.897579,271.378524 L171.436782,264.165835 L171.004183,263.264249 L172.807355,262.39905 Z M167.61616,251.580016 L168.048759,252.481602 L171.509556,259.694291 L171.942156,260.595878 L170.138984,261.461077 L169.706384,260.559491 L166.245587,253.346802 L165.812987,252.445215 L167.61616,251.580016 Z M162.424964,240.760982 L162.857564,241.662569 L166.318361,248.875258 L166.75096,249.776844 L164.947788,250.642043 L164.515188,249.740457 L161.054391,242.527768 L160.621792,241.626182 L162.424964,240.760982 Z M157.233769,229.941949 L157.666368,230.843535 L161.127165,238.056224 L161.559765,238.95781 L159.756593,239.823009 L159.323993,238.921423 L155.863196,231.708734 L155.430596,230.807148 L157.233769,229.941949 Z M152.042573,219.122915 L152.475173,220.024501 L155.93597,227.23719 L156.368569,228.138777 L154.565397,229.003976 L154.132797,228.10239 L150.672,220.889701 L150.239401,219.988114 L152.042573,219.122915 Z M146.851378,208.303882 L147.283977,209.205468 L150.744774,216.418157 L151.177374,217.319743 L149.374202,218.184942 L148.941602,217.283356 L145.480805,210.070667 L145.048205,209.169081 L146.851378,208.303882 Z M141.660182,197.484848 L142.092782,198.386434 L145.553579,205.599123 L145.986178,206.500709 L144.183006,207.365909 L143.750406,206.464322 L140.289609,199.251633 L139.85701,198.350047 L141.660182,197.484848 Z M136.468987,186.665814 L136.901586,187.5674 L140.362383,194.780089 L140.794983,195.681676 L138.991811,196.546875 L138.559211,195.645289 L135.098414,188.4326 L134.665814,187.531013 L136.468987,186.665814 Z" fill="#013D4F" fill-rule="nonzero"></path>
            <path id="Line" d="M340,248 L340,287.932 L344.878424,279.259739 L345.368686,278.388163 L347.111837,279.368686 L346.621576,280.240261 L339.871576,292.240261 L339,293.789729 L338.128424,292.240261 L331.378424,280.240261 L330.888163,279.368686 L332.631314,278.388163 L333.121576,279.259739 L338,287.932 L338,248 L340,248 Z" fill="#DA4167" fill-rule="nonzero"></path>
            <path id="Line" d="M587,246.210271 L587.871576,247.759739 L594.621576,259.759739 L595.111837,260.631314 L593.368686,261.611837 L592.878424,260.740261 L588,252.067 L588,292 L586,292 L586,252.067 L581.121576,260.740261 L580.631314,261.611837 L578.888163,260.631314 L579.378424,259.759739 L586.128424,247.759739 L587,246.210271 Z" fill="#DA4167" fill-rule="nonzero"></path>
            <path id="Line" d="M477.368686,402.888163 L478.240261,403.378424 L490.240261,410.128424 L491.789729,411 L490.240261,411.871576 L478.240261,418.621576 L477.368686,419.111837 L476.388163,417.368686 L477.259739,416.878424 L485.932,412 L444.067,412 L452.740261,416.878424 L453.611837,417.368686 L452.631314,419.111837 L451.759739,418.621576 L439.759739,411.871576 L438.210271,411 L439.759739,410.128424 L451.759739,403.378424 L452.631314,402.888163 L453.611837,404.631314 L452.740261,405.121576 L444.067,410 L485.932,410 L477.259739,405.121576 L476.388163,404.631314 L477.368686,402.888163 Z" fill="#DA4167" fill-rule="nonzero"></path>
            <path id="Line" d="M477.515371,129.681787 L478.378054,130.187532 L490.255625,137.150707 L491.789284,138.049809 L490.224502,138.893581 L478.105898,145.428253 L477.225709,145.902875 L476.276465,144.142495 L477.156655,143.667873 L485.916,138.944 L477.758532,138.799419 L432.982146,137.999841 L431.982305,137.981986 L432.018014,135.982305 L433.017854,136.000159 L477.79424,136.799738 L485.95,136.945 L477.366565,131.912898 L476.503882,131.407154 L477.515371,129.681787 Z" fill="#011C32" fill-rule="nonzero"></path>
            <path id="Line" d="M231.368686,129.888163 L232.240261,130.378424 L244.240261,137.128424 L245.789729,138 L244.240261,138.871576 L232.240261,145.621576 L231.368686,146.111837 L230.388163,144.368686 L231.259739,143.878424 L239.932,139 L160,139 L160,137 L239.932,137 L231.259739,132.121576 L230.388163,131.631314 L231.368686,129.888163 Z" fill="#011C32" fill-rule="nonzero"></path>
            <text id="User-intent" font-family="Helvetica" font-size="18" font-weight="normal" fill="#000000" fill-opacity="0.85">
                <tspan x="287.471191" y="18">User Intent</tspan>
            </text>
            <text id="Intent" font-family="Helvetica" font-size="16" font-weight="normal" fill="#000000" fill-opacity="0.85">
                <tspan x="184.484375" y="127">Intent</tspan>
            </text>
            <text id="Agent-Task" font-family="Helvetica" font-size="16" font-weight="normal" fill="#000000" fill-opacity="0.85">
                <tspan x="355.0625" y="272">Agent Task</tspan>
            </text>
            <text id="Normal-Task" font-family="Helvetica" font-size="16" font-weight="normal" fill="#000000" fill-opacity="0.85">
                <tspan x="441.21875" y="102">Normal</tspan>
                <tspan x="450.550781" y="121">Task</tspan>
            </text>
            <g id="pair" transform="translate(113.000000, 246.000000)">
                <use id="Rectangle" stroke="#000000" mask="url(#mask-2)" stroke-width="2" fill="#FFFFFF" stroke-dasharray="2,2" xlink:href="#path-1"></use>
                <text id="AutoDev-Pair" font-family="Helvetica" font-size="14" font-weight="normal" fill="#000000">
                    <tspan x="18.2587891" y="25">AutoDev Pair</tspan>
                </text>
            </g>
            <g id="exts-link" transform="translate(670.000000, 140.000000)">
                <path d="M0,0 L79,0 L79,22 L0,22 L0,0 Z" id="Rectangle" fill="#FFFFFF"></path>
                <text id="extensions" font-family="Helvetica" font-size="12" font-weight="normal" fill="#000000">
                    <tspan x="11.3154297" y="15">extensions</tspan>
                </text>
            </g>
            <g id="mods-link" transform="translate(676.000000, 54.000000)">
                <path d="M0,0 L41,0 L41,22 L0,22 L0,0 Z" id="Rectangle" fill="#FFFFFF"></path>
                <text id="mods" font-family="Helvetica" font-size="12" font-weight="normal" fill="#000000">
                    <tspan x="6.328125" y="15">mods</tspan>
                </text>
            </g>
            <text id="modules" font-family="Helvetica" font-size="12" font-weight="normal" fill="#000000" fill-opacity="0.85">
                <tspan x="741" y="24">C++</tspan>
                <tspan x="741" y="38">C#</tspan>
                <tspan x="741" y="52">Go</tspan>
                <tspan x="741" y="66">Java</tspan>
                <tspan x="741" y="80">JavaScript</tspan>
                <tspan x="741" y="94">Kotlin</tspan>
                <tspan x="741" y="108">Python</tspan>
                <tspan x="741" y="122">Rust</tspan>
                <tspan x="741" y="136">Scala</tspan>
            </text>
            <text id="extensions" font-family="Helvetica" font-size="12" font-weight="normal" fill="#000000" fill-opacity="0.85">
                <tspan x="741" y="180">Android</tspan>
                <tspan x="741" y="194">HarmonyOS</tspan>
                <tspan x="741" y="208">Database</tspan>
            </text>
        </g>
    </g>
</svg>