<?xml version="1.0" encoding="UTF-8"?>
<svg width="879px" height="554px" viewBox="0 0 879 554" version="1.1" xmlns="http://www.w3.org/2000/svg" xmlns:xlink="http://www.w3.org/1999/xlink">
    <!-- Generator: Sketch 62 (91390) - https://sketch.com -->
    <title>Group 4</title>
    <desc>Created with Sketch.</desc>
    <defs>
        <rect id="path-1" x="0" y="0" width="112" height="38"></rect>
        <mask id="mask-2" maskContentUnits="userSpaceOnUse" maskUnits="objectBoundingBox" x="0" y="0" width="112" height="38" fill="white">
            <use xlink:href="#path-1"></use>
        </mask>
        <text id="text-3" font-family="Helvetica" font-size="12" font-weight="normal">
            <tspan x="674" y="159">Extensions</tspan>
        </text>
        <filter x="-11.9%" y="-35.7%" width="123.7%" height="200.0%" filterUnits="objectBoundingBox" id="filter-4">
            <feOffset dx="0" dy="2" in="SourceAlpha" result="shadowOffsetOuter1"></feOffset>
            <feGaussianBlur stdDeviation="2" in="shadowOffsetOuter1" result="shadowBlurOuter1"></feGaussianBlur>
            <feColorMatrix values="0 0 0 0 0   0 0 0 0 0   0 0 0 0 0  0 0 0 0.5 0" type="matrix" in="shadowBlurOuter1"></feColorMatrix>
        </filter>
    </defs>
    <g id="Page-1" stroke="none" stroke-width="1" fill="none" fill-rule="evenodd">
        <g id="Group-4" transform="translate(0.000000, -4.000000)">
            <text id="AI-Agents-lang-(DevI" font-family="Helvetica" font-size="18" font-weight="normal">
                <tspan x="520.452637" y="532" fill="#000000">AI Agents lang</tspan>
                <tspan x="542.992188" y="554" font-family="Helvetica-Bold, Helvetica" font-weight="bold" fill="#000000">(Dev</tspan>
                <tspan x="582.006836" y="554" font-family="Helvetica-Bold, Helvetica" font-weight="bold" fill="#DA4167">Ins</tspan>
                <tspan x="608.013672" y="554" font-family="Helvetica-Bold, Helvetica" font-weight="bold" fill="#000000">)</tspan>
            </text>
            <text id="Custom-AI-Agents" font-family="Helvetica" font-size="18" font-weight="normal" fill="#000000">
                <tspan x="261.452637" y="543">Custom AI Agents</tspan>
            </text>
            <text id="Project-Context" font-family="Helvetica" font-size="18" font-weight="normal" fill="#000000">
                <tspan x="513.472168" y="19">Project Context</tspan>
            </text>
            <g id="custom-agents" transform="translate(246.000000, 302.000000)">
                <rect id="Rectangle" stroke="#979797" fill="#011C32" x="0.5" y="0.5" width="169" height="206" rx="16"></rect>
                <g id="kanban" transform="translate(18.000000, 19.000000)">
                    <rect id="Rectangle" stroke="#979797" fill="#000000" x="0.5" y="0.5" width="134" height="36" rx="8"></rect>
                    <text id="Kanban" font-family="Helvetica" font-size="12" font-weight="normal" fill="#FFFFFF">
                        <tspan x="47.3134766" y="23">Kanban</tspan>
                    </text>
                </g>
                <g id="cicd" transform="translate(18.000000, 65.000000)">
                    <rect id="Rectangle" stroke="#979797" fill="#000000" x="0.5" y="0.5" width="134" height="36" rx="8"></rect>
                    <text id="CI/CD" font-family="Helvetica" font-size="12" font-weight="normal" fill="#FFFFFF">
                        <tspan x="51.6669922" y="23">CI/CD</tspan>
                    </text>
                </g>
                <g id="ops" transform="translate(18.000000, 111.000000)">
                    <rect id="Rectangle" stroke="#979797" fill="#000000" x="0.5" y="0.5" width="134" height="36" rx="8"></rect>
                    <text id="Ops" font-family="Helvetica" font-size="12" font-weight="normal" fill="#FFFFFF">
                        <tspan x="56.9960938" y="23">Ops</tspan>
                    </text>
                </g>
                <g id="know" transform="translate(18.000000, 157.000000)">
                    <rect id="Rectangle" stroke="#979797" fill="#000000" x="0.5" y="0.5" width="134" height="36" rx="8"></rect>
                    <text id="Knowledges" font-family="Helvetica" font-size="12" font-weight="normal" fill="#FFFFFF">
                        <tspan x="35.3105469" y="23">Knowledges</tspan>
                    </text>
                </g>
            </g>
            <g id="portal" transform="translate(246.000000, 34.000000)">
                <g id="custom-agents">
                    <rect id="Rectangle" stroke="#979797" fill="#C6E0CD" x="0.5" y="0.5" width="169" height="206" rx="16"></rect>
                    <g id="cicd" transform="translate(18.000000, 34.000000)">
                        <rect id="Rectangle" stroke="#979797" fill="#000000" x="0.5" y="0.5" width="134" height="36" rx="8"></rect>
                        <text id="BuiltIn-Actions" font-family="Helvetica" font-size="12" font-weight="normal" fill="#FFFFFF">
                            <tspan x="30.3095703" y="23">BuiltIn Actions</tspan>
                        </text>
                    </g>
                    <g id="ops" transform="translate(18.000000, 85.000000)">
                        <rect id="Rectangle" stroke="#979797" fill="#000000" x="0.5" y="0.5" width="134" height="36" rx="8"></rect>
                        <text id="Custom-Actions" font-family="Helvetica" font-size="12" font-weight="normal" fill="#FFFFFF">
                            <tspan x="26.3134766" y="23">Custom Actions</tspan>
                        </text>
                    </g>
                    <g id="know" transform="translate(18.000000, 136.000000)">
                        <rect id="Rectangle" stroke="#979797" fill="#000000" x="0.5" y="0.5" width="134" height="36" rx="8"></rect>
                        <text id="Custom-Prompts" font-family="Helvetica" font-size="12" font-weight="normal" fill="#FFFFFF">
                            <tspan x="23.3222656" y="23">Custom Prompts</tspan>
                        </text>
                    </g>
                </g>
            </g>
            <g id="Group-2" transform="translate(493.000000, 301.000000)">
                <rect id="Rectangle" stroke="#979797" fill-opacity="0.8" fill="#48A178" x="0.5" y="0.5" width="169" height="206" rx="16"></rect>
                <g id="editing" transform="translate(18.000000, 13.000000)">
                    <rect id="Rectangle" stroke="#979797" fill="#013D4F" x="0.5" y="0.5" width="134" height="36" rx="8"></rect>
                    <text id="File-Editing" font-family="Helvetica" font-size="12" font-weight="normal" fill="#FFFFFF">
                        <tspan x="38.3193359" y="23">File Editing</tspan>
                    </text>
                </g>
                <g id="editing" transform="translate(18.000000, 60.000000)">
                    <rect id="Rectangle" stroke="#979797" fill="#013D4F" x="0.5" y="0.5" width="134" height="36" rx="8"></rect>
                    <text id="Run-Test" font-family="Helvetica" font-size="12" font-weight="normal" fill="#FFFFFF">
                        <tspan x="44.4277344" y="23">Run Test</tspan>
                    </text>
                </g>
                <g id="editing" transform="translate(18.000000, 107.000000)">
                    <rect id="Rectangle" stroke="#979797" fill="#013D4F" x="0.5" y="0.5" width="134" height="36" rx="8"></rect>
                    <text id="Git" font-family="Helvetica" font-size="12" font-weight="normal" fill="#FFFFFF">
                        <tspan x="60.3330078" y="23">Git</tspan>
                    </text>
                </g>
                <g id="editing" transform="translate(18.000000, 154.000000)">
                    <rect id="Rectangle" stroke="#979797" fill="#013D4F" x="0.5" y="0.5" width="134" height="36" rx="8"></rect>
                    <text id="Architecture" font-family="Helvetica" font-size="12" font-weight="normal" fill="#FFFFFF">
                        <tspan x="35.9873047" y="23">Architecture</tspan>
                    </text>
                </g>
            </g>
            <g id="Group" transform="translate(733.000000, 249.000000)">
                <rect id="Rectangle" stroke="#979797" fill="#48A178" x="0.5" y="0.5" width="145" height="50" rx="8"></rect>
                <text id="IDE" font-family="Helvetica" font-size="24" font-weight="normal" fill="#FFFFFF">
                    <tspan x="53.4960938" y="34">IDE</tspan>
                </text>
            </g>
            <g id="Group" transform="translate(0.000000, 106.000000)">
                <rect id="Rectangle" stroke="#979797" fill="#011C32" x="0.5" y="0.5" width="145" height="62" rx="16"></rect>
                <text id="User" font-family="Helvetica" font-size="24" font-weight="normal" fill="#FFFFFF">
                    <tspan x="48.1640625" y="40">User</tspan>
                </text>
            </g>
            <g id="context" transform="translate(488.000000, 34.000000)">
                <rect id="Rectangle" stroke="#979797" fill="#48A178" x="0.5" y="0.5" width="173" height="206" rx="16"></rect>
                <g id="..." transform="translate(20.000000, 13.000000)">
                    <rect id="Rectangle" stroke="#979797" fill="#000000" x="0.5" y="0.5" width="134" height="36" rx="8"></rect>
                    <text id="AST-Tree" font-family="Helvetica" font-size="12" font-weight="normal" fill="#FFFFFF">
                        <tspan x="42.7578125" y="23">AST Tree</tspan>
                    </text>
                </g>
                <g id="sdks" transform="translate(20.000000, 61.000000)">
                    <rect id="Rectangle" stroke="#979797" fill="#000000" x="0.5" y="0.5" width="134" height="36" rx="8"></rect>
                    <text id="Libraries-/-Deps" font-family="Helvetica" font-size="12" font-weight="normal" fill="#FFFFFF">
                        <tspan x="25.9824219" y="23">Libraries / Deps</tspan>
                    </text>
                </g>
                <g id="libs" transform="translate(20.000000, 109.000000)">
                    <rect id="Rectangle" stroke="#979797" fill="#000000" x="0.5" y="0.5" width="134" height="36" rx="8"></rect>
                    <text id="SDK-Version" font-family="Helvetica" font-size="12" font-weight="normal" fill="#FFFFFF">
                        <tspan x="33.9804688" y="23">SDK Version</tspan>
                    </text>
                </g>
                <g id="ast" transform="translate(20.000000, 157.000000)">
                    <rect id="Rectangle" stroke="#979797" fill="#000000" x="0.5" y="0.5" width="134" height="36" rx="8"></rect>
                    <text id="…" font-family="Helvetica" font-size="12" font-weight="normal" fill="#FFFFFF">
                        <tspan x="62" y="23">…</tspan>
                    </text>
                </g>
            </g>
            <path id="Line" d="M711.001125,281.737067 L711.999099,281.80069 L725.739374,282.676664 L727.51355,282.789772 L726.495581,284.247246 L718.611816,295.534795 L718.039208,296.354624 L716.399549,295.209408 L716.972157,294.389579 L722.669,286.231 L715.368472,289.747278 L681.499159,306.054725 L674.197,309.57 L684.128147,310.203362 L685.126121,310.266985 L684.998875,312.262933 L684.000901,312.19931 L670.260626,311.323336 L668.48645,311.210228 L669.504419,309.752754 L677.388184,298.465205 L677.960792,297.645376 L679.600451,298.790592 L679.027843,299.610421 L673.33,307.768 L680.631528,304.252722 L714.500841,287.945275 L721.802,284.429 L711.871853,283.796638 L710.873879,283.733015 L711.001125,281.737067 Z" fill="#DA4167" fill-rule="nonzero"></path>
            <path id="Line" d="M673.72265,228.61325 L674.5547,229.16795 L713.25366,254.967256 L720.002,259.466 L715.492275,250.59653 L715.039029,249.705145 L716.821799,248.798651 L717.275046,249.690037 L723.515423,261.962778 L724.321195,263.547463 L722.548497,263.413168 L708.819667,262.373105 L707.822524,262.297564 L707.973606,260.303278 L708.970749,260.37882 L718.892,261.13 L712.144259,256.631357 L673.4453,230.83205 L672.61325,230.27735 L673.72265,228.61325 Z" fill="#011C32" fill-rule="nonzero"></path>
            <path id="Line" d="M714.309343,60.8190816 L714.745131,61.0642122 L722.745131,65.5642122 L723.519864,66 L722.745131,66.4357878 L714.745131,70.9357878 L714.309343,71.1809184 L713.819082,70.3093429 L714.254869,70.0642122 L720.591,66.5 L649.5,66.5 L649.5,65.5 L720.591,65.5 L714.254869,61.9357878 L713.819082,61.6906571 L714.309343,60.8190816 Z" fill="#000000" fill-rule="nonzero"></path>
            <path id="Line" d="M649.965428,111.293739 L650.335844,111.629583 L719.808562,174.618181 L724.292,178.683 L721.992035,171.786778 L721.833841,171.312463 L722.78247,170.996074 L722.940665,171.470389 L725.844731,180.17765 L726.125966,181.020876 L725.259304,180.823342 L716.310037,178.783581 L715.822539,178.672468 L716.044765,177.697473 L716.532263,177.808586 L723.62,179.424 L719.136873,175.359014 L649.664156,112.370417 L649.293739,112.034572 L649.965428,111.293739 Z" fill="#000000" fill-rule="nonzero"></path>
            <path id="Line" d="M235.286043,396.874252 L237.281817,397.004191 L237.216848,398.002078 L236.322337,411.741159 L236.206836,413.515181 L234.750736,412.495246 L223.473834,404.596259 L222.654778,404.022546 L223.802205,402.384434 L224.621261,402.958147 L232.77,408.666 L230.922324,404.813273 L230.489725,403.911686 L232.292897,403.046487 L232.725496,403.948073 L234.574,407.803 L235.221073,397.872139 L235.286043,396.874252 Z M227.101701,392.227454 L227.534301,393.12904 L230.995098,400.341729 L231.427698,401.243315 L229.624525,402.108514 L229.191926,401.206928 L225.731129,393.994239 L225.298529,393.092653 L227.101701,392.227454 Z M221.910506,381.40842 L222.343105,382.310006 L225.803902,389.522695 L226.236502,390.424281 L224.43333,391.289481 L224.00073,390.387894 L220.539933,383.175205 L220.107334,382.273619 L221.910506,381.40842 Z M216.71931,370.589386 L217.15191,371.490972 L220.612707,378.703662 L221.045307,379.605248 L219.242134,380.470447 L218.809535,379.568861 L215.348738,372.356172 L214.916138,371.454586 L216.71931,370.589386 Z M211.528115,359.770353 L211.960714,360.671939 L215.421511,367.884628 L215.854111,368.786214 L214.050939,369.651413 L213.618339,368.749827 L210.157542,361.537138 L209.724943,360.635552 L211.528115,359.770353 Z M206.336919,348.951319 L206.769519,349.852905 L210.230316,357.065594 L210.662916,357.96718 L208.859743,358.83238 L208.427144,357.930793 L204.966347,350.718104 L204.533747,349.816518 L206.336919,348.951319 Z M201.145724,338.132285 L201.578323,339.033871 L205.03912,346.246561 L205.47172,347.148147 L203.668548,348.013346 L203.235948,347.11176 L199.775151,339.899071 L199.342551,338.997485 L201.145724,338.132285 Z M195.954528,327.313252 L196.387128,328.214838 L199.847925,335.427527 L200.280525,336.329113 L198.477352,337.194312 L198.044753,336.292726 L194.583956,329.080037 L194.151356,328.178451 L195.954528,327.313252 Z M190.763333,316.494218 L191.195932,317.395804 L194.656729,324.608493 L195.089329,325.510079 L193.286157,326.375279 L192.853557,325.473693 L189.39276,318.261003 L188.96016,317.359417 L190.763333,316.494218 Z M185.572137,305.675184 L186.004737,306.576771 L189.465534,313.78946 L189.898133,314.691046 L188.094961,315.556245 L187.662362,314.654659 L184.201565,307.44197 L183.768965,306.540384 L185.572137,305.675184 Z M180.380942,294.856151 L180.813541,295.757737 L184.274338,302.970426 L184.706938,303.872012 L182.903766,304.737211 L182.471166,303.835625 L179.010369,296.622936 L178.577769,295.72135 L180.380942,294.856151 Z M175.189746,284.037117 L175.622346,284.938703 L179.083143,292.151392 L179.515742,293.052978 L177.71257,293.918178 L177.279971,293.016592 L173.819174,285.803902 L173.386574,284.902316 L175.189746,284.037117 Z M169.998551,273.218083 L170.43115,274.11967 L173.891947,281.332359 L174.324547,282.233945 L172.521375,283.099144 L172.088775,282.197558 L168.627978,274.984869 L168.195378,274.083283 L169.998551,273.218083 Z M164.807355,262.39905 L165.239955,263.300636 L168.700752,270.513325 L169.133351,271.414911 L167.330179,272.28011 L166.897579,271.378524 L163.436782,264.165835 L163.004183,263.264249 L164.807355,262.39905 Z M159.61616,251.580016 L160.048759,252.481602 L163.509556,259.694291 L163.942156,260.595878 L162.138984,261.461077 L161.706384,260.559491 L158.245587,253.346802 L157.812987,252.445215 L159.61616,251.580016 Z M154.424964,240.760982 L154.857564,241.662569 L158.318361,248.875258 L158.75096,249.776844 L156.947788,250.642043 L156.515188,249.740457 L153.054391,242.527768 L152.621792,241.626182 L154.424964,240.760982 Z M149.233769,229.941949 L149.666368,230.843535 L153.127165,238.056224 L153.559765,238.95781 L151.756593,239.823009 L151.323993,238.921423 L147.863196,231.708734 L147.430596,230.807148 L149.233769,229.941949 Z M144.042573,219.122915 L144.475173,220.024501 L147.93597,227.23719 L148.368569,228.138777 L146.565397,229.003976 L146.132797,228.10239 L142.672,220.889701 L142.239401,219.988114 L144.042573,219.122915 Z M138.851378,208.303882 L139.283977,209.205468 L142.744774,216.418157 L143.177374,217.319743 L141.374202,218.184942 L140.941602,217.283356 L137.480805,210.070667 L137.048205,209.169081 L138.851378,208.303882 Z M133.660182,197.484848 L134.092782,198.386434 L137.553579,205.599123 L137.986178,206.500709 L136.183006,207.365909 L135.750406,206.464322 L132.289609,199.251633 L131.85701,198.350047 L133.660182,197.484848 Z M128.468987,186.665814 L128.901586,187.5674 L132.362383,194.780089 L132.794983,195.681676 L130.991811,196.546875 L130.559211,195.645289 L127.098414,188.4326 L126.665814,187.531013 L128.468987,186.665814 Z" fill="#DA4167" fill-rule="nonzero"></path>
            <path id="Line" d="M332,248 L332,287.932 L336.878424,279.259739 L337.368686,278.388163 L339.111837,279.368686 L338.621576,280.240261 L331.871576,292.240261 L331,293.789729 L330.128424,292.240261 L323.378424,280.240261 L322.888163,279.368686 L324.631314,278.388163 L325.121576,279.259739 L330,287.932 L330,248 L332,248 Z" fill="#DA4167" fill-rule="nonzero"></path>
            <path id="Line" d="M579,248 L579,287.932 L583.878424,279.259739 L584.368686,278.388163 L586.111837,279.368686 L585.621576,280.240261 L578.871576,292.240261 L578,293.789729 L577.128424,292.240261 L570.378424,280.240261 L569.888163,279.368686 L571.631314,278.388163 L572.121576,279.259739 L577,287.932 L577,248 L579,248 Z" fill="#DA4167" fill-rule="nonzero"></path>
            <path id="Line" d="M469.368686,402.888163 L470.240261,403.378424 L482.240261,410.128424 L483.789729,411 L482.240261,411.871576 L470.240261,418.621576 L469.368686,419.111837 L468.388163,417.368686 L469.259739,416.878424 L477.932,412 L436.067,412 L444.740261,416.878424 L445.611837,417.368686 L444.631314,419.111837 L443.759739,418.621576 L431.759739,411.871576 L430.210271,411 L431.759739,410.128424 L443.759739,403.378424 L444.631314,402.888163 L445.611837,404.631314 L444.740261,405.121576 L436.067,410 L477.932,410 L469.259739,405.121576 L468.388163,404.631314 L469.368686,402.888163 Z" fill="#DA4167" fill-rule="nonzero"></path>
            <path id="Line" d="M444.631314,129.888163 L445.611837,131.631314 L444.740261,132.121576 L436.067,137 L482,137 L482,139 L436.067,139 L444.740261,143.878424 L445.611837,144.368686 L444.631314,146.111837 L443.759739,145.621576 L431.759739,138.871576 L430.210271,138 L431.759739,137.128424 L443.759739,130.378424 L444.631314,129.888163 Z" fill="#011C32" fill-rule="nonzero"></path>
            <path id="Line" d="M223.368686,129.888163 L224.240261,130.378424 L236.240261,137.128424 L237.789729,138 L236.240261,138.871576 L224.240261,145.621576 L223.368686,146.111837 L222.388163,144.368686 L223.259739,143.878424 L231.932,139 L152,139 L152,137 L231.932,137 L223.259739,132.121576 L222.388163,131.631314 L223.368686,129.888163 Z" fill="#011C32" fill-rule="nonzero"></path>
            <text id="Conversation" font-family="Helvetica" font-size="18" font-weight="normal" fill="#000000" fill-opacity="0.85">
                <tspan x="279.471191" y="18">Conversation</tspan>
            </text>
            <text id="Intent" font-family="Helvetica" font-size="16" font-weight="normal" fill="#000000" fill-opacity="0.85">
                <tspan x="176.484375" y="127">Intent</tspan>
            </text>
            <text id="Agent-Task" font-family="Helvetica" font-size="16" font-weight="normal" fill="#000000" fill-opacity="0.85">
                <tspan x="347.0625" y="272">Agent Task</tspan>
            </text>
            <text id="Normal-Task" font-family="Helvetica" font-size="16" font-weight="normal" fill="#000000" fill-opacity="0.85">
                <tspan x="433.21875" y="102">Normal</tspan>
                <tspan x="442.550781" y="121">Task</tspan>
            </text>
            <g id="Group-3" transform="translate(105.000000, 246.000000)">
                <use id="Rectangle" stroke="#000000" mask="url(#mask-2)" stroke-width="2" fill="#FFFFFF" stroke-dasharray="2,2" xlink:href="#path-1"></use>
                <text id="AutoDev-Pair" font-family="Helvetica" font-size="14" font-weight="normal" fill="#000000">
                    <tspan x="18.2587891" y="25">AutoDev Pair</tspan>
                </text>
            </g>
            <text id="C++-C#-Go-Java-JavaS" stroke="#979797" font-family="Helvetica" font-size="12" font-weight="normal" fill="#000000" fill-opacity="0.85">
                <tspan x="733" y="24">C++</tspan>
                <tspan x="733" y="38">C#</tspan>
                <tspan x="733" y="52">Go</tspan>
                <tspan x="733" y="66">Java</tspan>
                <tspan x="733" y="80">JavaScript</tspan>
                <tspan x="733" y="94">Kotlin</tspan>
                <tspan x="733" y="108">Python</tspan>
                <tspan x="733" y="122">Rust</tspan>
                <tspan x="733" y="136">Scala</tspan>
            </text>
            <text id="Android-HarmonyOS-Da" stroke="#979797" font-family="Helvetica" font-size="12" font-weight="normal" fill="#000000" fill-opacity="0.85">
                <tspan x="733" y="180">Android</tspan>
                <tspan x="733" y="194">HarmonyOS</tspan>
                <tspan x="733" y="208">Database</tspan>
            </text>
            <g id="Extensions" fill="#000000">
                <use fill-opacity="1" filter="url(#filter-4)" xlink:href="#text-3"></use>
                <use fill-rule="evenodd" xlink:href="#text-3"></use>
                <use fill-opacity="1" xlink:href="#text-3"></use>
            </g>
        </g>
    </g>
</svg>