<?xml version="1.0" encoding="UTF-8"?>
<svg width="882px" height="553px" viewBox="0 0 882 553" version="1.1" xmlns="http://www.w3.org/2000/svg" xmlns:xlink="http://www.w3.org/1999/xlink">
    <!-- Generator: Sketch 62 (91390) - https://sketch.com -->
    <title>Group 4</title>
    <desc>Created with Sketch.</desc>
    <defs>
        <rect id="path-1" x="0" y="0" width="112" height="38"></rect>
        <mask id="mask-2" maskContentUnits="userSpaceOnUse" maskUnits="objectBoundingBox" x="0" y="0" width="112" height="38" fill="white">
            <use xlink:href="#path-1"></use>
        </mask>
    </defs>
    <g id="Page-1" stroke="none" stroke-width="1" fill="none" fill-rule="evenodd">
        <g id="Group-4" transform="translate(0.000000, -4.000000)">
            <text id="AI-Agents-lang-(DevI" font-family="Helvetica" font-size="18" font-weight="normal">
                <tspan x="520.452637" y="531" fill="#000000">AI Agents lang</tspan>
                <tspan x="542.992188" y="553" font-family="Helvetica-Bold, Helvetica" font-weight="bold" fill="#000000">(Dev</tspan>
                <tspan x="582.006836" y="553" font-family="Helvetica-Bold, Helvetica" font-weight="bold" fill="#DA4167">Ins</tspan>
                <tspan x="608.013672" y="553" font-family="Helvetica-Bold, Helvetica" font-weight="bold" fill="#000000">)</tspan>
            </text>
            <text id="Custom-AI-Agents" font-family="Helvetica" font-size="18" font-weight="normal" fill="#000000">
                <tspan x="261.452637" y="542">Custom AI Agents</tspan>
            </text>
            <text id="Project-Context" font-family="Helvetica" font-size="18" font-weight="normal" fill="#000000">
                <tspan x="513.472168" y="18">Project Context</tspan>
            </text>
            <g id="custom-agents" transform="translate(246.000000, 301.000000)">
                <rect id="Rectangle" stroke="#979797" fill="#011C32" x="0.5" y="0.5" width="169" height="206" rx="16"></rect>
                <g id="kanban" transform="translate(18.000000, 19.000000)">
                    <rect id="Rectangle" stroke="#979797" fill="#000000" x="0.5" y="0.5" width="134" height="36" rx="8"></rect>
                    <text id="Kanban" font-family="Helvetica" font-size="12" font-weight="normal" fill="#FFFFFF">
                        <tspan x="47.3134766" y="23">Kanban</tspan>
                    </text>
                </g>
                <g id="cicd" transform="translate(18.000000, 65.000000)">
                    <rect id="Rectangle" stroke="#979797" fill="#000000" x="0.5" y="0.5" width="134" height="36" rx="8"></rect>
                    <text id="CI/CD" font-family="Helvetica" font-size="12" font-weight="normal" fill="#FFFFFF">
                        <tspan x="51.6669922" y="23">CI/CD</tspan>
                    </text>
                </g>
                <g id="ops" transform="translate(18.000000, 111.000000)">
                    <rect id="Rectangle" stroke="#979797" fill="#000000" x="0.5" y="0.5" width="134" height="36" rx="8"></rect>
                    <text id="Ops" font-family="Helvetica" font-size="12" font-weight="normal" fill="#FFFFFF">
                        <tspan x="56.9960938" y="23">Ops</tspan>
                    </text>
                </g>
                <g id="know" transform="translate(18.000000, 157.000000)">
                    <rect id="Rectangle" stroke="#979797" fill="#000000" x="0.5" y="0.5" width="134" height="36" rx="8"></rect>
                    <text id="Knowledges" font-family="Helvetica" font-size="12" font-weight="normal" fill="#FFFFFF">
                        <tspan x="35.3105469" y="23">Knowledges</tspan>
                    </text>
                </g>
            </g>
            <g id="portal" transform="translate(246.000000, 33.000000)">
                <g id="custom-agents">
                    <rect id="Rectangle" stroke="#979797" fill="#C6E0CD" x="0.5" y="0.5" width="169" height="206" rx="16"></rect>
                    <g id="cicd" transform="translate(18.000000, 34.000000)">
                        <rect id="Rectangle" stroke="#979797" fill="#000000" x="0.5" y="0.5" width="134" height="36" rx="8"></rect>
                        <text id="BuiltIn-Actions" font-family="Helvetica" font-size="12" font-weight="normal" fill="#FFFFFF">
                            <tspan x="30.3095703" y="23">BuiltIn Actions</tspan>
                        </text>
                    </g>
                    <g id="ops" transform="translate(18.000000, 85.000000)">
                        <rect id="Rectangle" stroke="#979797" fill="#000000" x="0.5" y="0.5" width="134" height="36" rx="8"></rect>
                        <text id="Custom-Actions" font-family="Helvetica" font-size="12" font-weight="normal" fill="#FFFFFF">
                            <tspan x="26.3134766" y="23">Custom Actions</tspan>
                        </text>
                    </g>
                    <g id="know" transform="translate(18.000000, 136.000000)">
                        <rect id="Rectangle" stroke="#979797" fill="#000000" x="0.5" y="0.5" width="134" height="36" rx="8"></rect>
                        <text id="Custom-Prompts" font-family="Helvetica" font-size="12" font-weight="normal" fill="#FFFFFF">
                            <tspan x="23.3222656" y="23">Custom Prompts</tspan>
                        </text>
                    </g>
                </g>
            </g>
            <g id="Group-2" transform="translate(493.000000, 300.000000)">
                <rect id="Rectangle" stroke="#979797" fill-opacity="0.8" fill="#48A178" x="0.5" y="0.5" width="169" height="206" rx="16"></rect>
                <g id="editing" transform="translate(18.000000, 13.000000)">
                    <rect id="Rectangle" stroke="#979797" fill="#013D4F" x="0.5" y="0.5" width="134" height="36" rx="8"></rect>
                    <text id="File-Editing" font-family="Helvetica" font-size="12" font-weight="normal" fill="#FFFFFF">
                        <tspan x="38.3193359" y="23">File Editing</tspan>
                    </text>
                </g>
                <g id="editing" transform="translate(18.000000, 60.000000)">
                    <rect id="Rectangle" stroke="#979797" fill="#013D4F" x="0.5" y="0.5" width="134" height="36" rx="8"></rect>
                    <text id="Run-Test" font-family="Helvetica" font-size="12" font-weight="normal" fill="#FFFFFF">
                        <tspan x="44.4277344" y="23">Run Test</tspan>
                    </text>
                </g>
                <g id="editing" transform="translate(18.000000, 107.000000)">
                    <rect id="Rectangle" stroke="#979797" fill="#013D4F" x="0.5" y="0.5" width="134" height="36" rx="8"></rect>
                    <text id="Git" font-family="Helvetica" font-size="12" font-weight="normal" fill="#FFFFFF">
                        <tspan x="60.3330078" y="23">Git</tspan>
                    </text>
                </g>
                <g id="editing" transform="translate(18.000000, 154.000000)">
                    <rect id="Rectangle" stroke="#979797" fill="#013D4F" x="0.5" y="0.5" width="134" height="36" rx="8"></rect>
                    <text id="Architecture" font-family="Helvetica" font-size="12" font-weight="normal" fill="#FFFFFF">
                        <tspan x="35.9873047" y="23">Architecture</tspan>
                    </text>
                </g>
            </g>
            <g id="Group" transform="translate(736.000000, 237.000000)">
                <rect id="Rectangle" stroke="#979797" fill="#48A178" x="0.5" y="0.5" width="145" height="62" rx="16"></rect>
                <text id="IDE" font-family="Helvetica" font-size="24" font-weight="normal" fill="#FFFFFF">
                    <tspan x="53.4960938" y="40">IDE</tspan>
                </text>
            </g>
            <g id="Group" transform="translate(0.000000, 105.000000)">
                <rect id="Rectangle" stroke="#979797" fill="#011C32" x="0.5" y="0.5" width="145" height="62" rx="16"></rect>
                <text id="user" font-family="Helvetica" font-size="24" font-weight="normal" fill="#FFFFFF">
                    <tspan x="50.15625" y="40">user</tspan>
                </text>
            </g>
            <g id="context" transform="translate(488.000000, 33.000000)">
                <rect id="Rectangle" stroke="#979797" fill="#48A178" x="0.5" y="0.5" width="173" height="206" rx="16"></rect>
                <g id="..." transform="translate(20.000000, 13.000000)">
                    <rect id="Rectangle" stroke="#979797" fill="#000000" x="0.5" y="0.5" width="134" height="36" rx="8"></rect>
                    <text id="AST-Tree" font-family="Helvetica" font-size="12" font-weight="normal" fill="#FFFFFF">
                        <tspan x="42.7578125" y="23">AST Tree</tspan>
                    </text>
                </g>
                <g id="sdks" transform="translate(20.000000, 61.000000)">
                    <rect id="Rectangle" stroke="#979797" fill="#000000" x="0.5" y="0.5" width="134" height="36" rx="8"></rect>
                    <text id="Libraries-/-Deps" font-family="Helvetica" font-size="12" font-weight="normal" fill="#FFFFFF">
                        <tspan x="25.9824219" y="23">Libraries / Deps</tspan>
                    </text>
                </g>
                <g id="libs" transform="translate(20.000000, 109.000000)">
                    <rect id="Rectangle" stroke="#979797" fill="#000000" x="0.5" y="0.5" width="134" height="36" rx="8"></rect>
                    <text id="SDK-Version" font-family="Helvetica" font-size="12" font-weight="normal" fill="#FFFFFF">
                        <tspan x="33.9804688" y="23">SDK Version</tspan>
                    </text>
                </g>
                <g id="ast" transform="translate(20.000000, 157.000000)">
                    <rect id="Rectangle" stroke="#979797" fill="#000000" x="0.5" y="0.5" width="134" height="36" rx="8"></rect>
                    <text id="…" font-family="Helvetica" font-size="12" font-weight="normal" fill="#FFFFFF">
                        <tspan x="62" y="23">…</tspan>
                    </text>
                </g>
            </g>
            <path id="Line" d="M802.253755,313.355867 L801.515643,314.973174 L795.799256,327.498566 L795.384068,328.408301 L793.564597,327.577924 L793.979786,326.668189 L798.111,317.615 L791.575851,322.383299 L687.602853,398.232453 L681.068,402.999 L690.94914,401.829889 L691.942202,401.712295 L692.177391,403.698418 L691.184329,403.816013 L677.511688,405.435076 L675.746245,405.644133 L676.484357,404.026826 L682.200744,391.501434 L682.615932,390.591699 L684.435403,391.422076 L684.020214,392.331811 L679.888,401.384 L686.424149,396.616701 L790.397147,320.767547 L796.931,316 L787.05086,317.170111 L786.057798,317.287705 L785.822609,315.301582 L786.815671,315.183987 L800.488312,313.564924 L802.253755,313.355867 Z" fill="#DA4167" fill-rule="nonzero"></path>
            <path id="Line" d="M677.818197,128.597521 L678.610338,129.207859 L791.774974,216.400284 L798.18,221.335 L794.287884,212.17793 L793.896699,211.257618 L795.737323,210.475247 L796.128508,211.395559 L801.514418,224.066568 L802.209859,225.702678 L800.450506,225.447389 L786.825032,223.470283 L785.835396,223.326684 L786.122595,221.347412 L787.112231,221.491012 L796.961,222.92 L790.554298,217.984566 L677.389662,130.792141 L676.597521,130.181803 L677.818197,128.597521 Z" fill="#011C32" fill-rule="nonzero"></path>
            <path id="Line" d="M235.286043,395.874252 L237.281817,396.004191 L237.216848,397.002078 L236.322337,410.741159 L236.206836,412.515181 L234.750736,411.495246 L223.473834,403.596259 L222.654778,403.022546 L223.802205,401.384434 L224.621261,401.958147 L232.77,407.666 L230.922324,403.813273 L230.489725,402.911686 L232.292897,402.046487 L232.725496,402.948073 L234.574,406.803 L235.221073,396.872139 L235.286043,395.874252 Z M227.101701,391.227454 L227.534301,392.12904 L230.995098,399.341729 L231.427698,400.243315 L229.624525,401.108514 L229.191926,400.206928 L225.731129,392.994239 L225.298529,392.092653 L227.101701,391.227454 Z M221.910506,380.40842 L222.343105,381.310006 L225.803902,388.522695 L226.236502,389.424281 L224.43333,390.289481 L224.00073,389.387894 L220.539933,382.175205 L220.107334,381.273619 L221.910506,380.40842 Z M216.71931,369.589386 L217.15191,370.490972 L220.612707,377.703662 L221.045307,378.605248 L219.242134,379.470447 L218.809535,378.568861 L215.348738,371.356172 L214.916138,370.454586 L216.71931,369.589386 Z M211.528115,358.770353 L211.960714,359.671939 L215.421511,366.884628 L215.854111,367.786214 L214.050939,368.651413 L213.618339,367.749827 L210.157542,360.537138 L209.724943,359.635552 L211.528115,358.770353 Z M206.336919,347.951319 L206.769519,348.852905 L210.230316,356.065594 L210.662916,356.96718 L208.859743,357.83238 L208.427144,356.930793 L204.966347,349.718104 L204.533747,348.816518 L206.336919,347.951319 Z M201.145724,337.132285 L201.578323,338.033871 L205.03912,345.246561 L205.47172,346.148147 L203.668548,347.013346 L203.235948,346.11176 L199.775151,338.899071 L199.342551,337.997485 L201.145724,337.132285 Z M195.954528,326.313252 L196.387128,327.214838 L199.847925,334.427527 L200.280525,335.329113 L198.477352,336.194312 L198.044753,335.292726 L194.583956,328.080037 L194.151356,327.178451 L195.954528,326.313252 Z M190.763333,315.494218 L191.195932,316.395804 L194.656729,323.608493 L195.089329,324.510079 L193.286157,325.375279 L192.853557,324.473693 L189.39276,317.261003 L188.96016,316.359417 L190.763333,315.494218 Z M185.572137,304.675184 L186.004737,305.576771 L189.465534,312.78946 L189.898133,313.691046 L188.094961,314.556245 L187.662362,313.654659 L184.201565,306.44197 L183.768965,305.540384 L185.572137,304.675184 Z M180.380942,293.856151 L180.813541,294.757737 L184.274338,301.970426 L184.706938,302.872012 L182.903766,303.737211 L182.471166,302.835625 L179.010369,295.622936 L178.577769,294.72135 L180.380942,293.856151 Z M175.189746,283.037117 L175.622346,283.938703 L179.083143,291.151392 L179.515742,292.052978 L177.71257,292.918178 L177.279971,292.016592 L173.819174,284.803902 L173.386574,283.902316 L175.189746,283.037117 Z M169.998551,272.218083 L170.43115,273.11967 L173.891947,280.332359 L174.324547,281.233945 L172.521375,282.099144 L172.088775,281.197558 L168.627978,273.984869 L168.195378,273.083283 L169.998551,272.218083 Z M164.807355,261.39905 L165.239955,262.300636 L168.700752,269.513325 L169.133351,270.414911 L167.330179,271.28011 L166.897579,270.378524 L163.436782,263.165835 L163.004183,262.264249 L164.807355,261.39905 Z M159.61616,250.580016 L160.048759,251.481602 L163.509556,258.694291 L163.942156,259.595878 L162.138984,260.461077 L161.706384,259.559491 L158.245587,252.346802 L157.812987,251.445215 L159.61616,250.580016 Z M154.424964,239.760982 L154.857564,240.662569 L158.318361,247.875258 L158.75096,248.776844 L156.947788,249.642043 L156.515188,248.740457 L153.054391,241.527768 L152.621792,240.626182 L154.424964,239.760982 Z M149.233769,228.941949 L149.666368,229.843535 L153.127165,237.056224 L153.559765,237.95781 L151.756593,238.823009 L151.323993,237.921423 L147.863196,230.708734 L147.430596,229.807148 L149.233769,228.941949 Z M144.042573,218.122915 L144.475173,219.024501 L147.93597,226.23719 L148.368569,227.138777 L146.565397,228.003976 L146.132797,227.10239 L142.672,219.889701 L142.239401,218.988114 L144.042573,218.122915 Z M138.851378,207.303882 L139.283977,208.205468 L142.744774,215.418157 L143.177374,216.319743 L141.374202,217.184942 L140.941602,216.283356 L137.480805,209.070667 L137.048205,208.169081 L138.851378,207.303882 Z M133.660182,196.484848 L134.092782,197.386434 L137.553579,204.599123 L137.986178,205.500709 L136.183006,206.365909 L135.750406,205.464322 L132.289609,198.251633 L131.85701,197.350047 L133.660182,196.484848 Z M128.468987,185.665814 L128.901586,186.5674 L132.362383,193.780089 L132.794983,194.681676 L130.991811,195.546875 L130.559211,194.645289 L127.098414,187.4326 L126.665814,186.531013 L128.468987,185.665814 Z" fill="#DA4167" fill-rule="nonzero"></path>
            <path id="Line" d="M332,247 L332,286.932 L336.878424,278.259739 L337.368686,277.388163 L339.111837,278.368686 L338.621576,279.240261 L331.871576,291.240261 L331,292.789729 L330.128424,291.240261 L323.378424,279.240261 L322.888163,278.368686 L324.631314,277.388163 L325.121576,278.259739 L330,286.932 L330,247 L332,247 Z" fill="#DA4167" fill-rule="nonzero"></path>
            <path id="Line" d="M579,247 L579,286.932 L583.878424,278.259739 L584.368686,277.388163 L586.111837,278.368686 L585.621576,279.240261 L578.871576,291.240261 L578,292.789729 L577.128424,291.240261 L570.378424,279.240261 L569.888163,278.368686 L571.631314,277.388163 L572.121576,278.259739 L577,286.932 L577,247 L579,247 Z" fill="#DA4167" fill-rule="nonzero"></path>
            <path id="Line" d="M469.368686,401.888163 L470.240261,402.378424 L482.240261,409.128424 L483.789729,410 L482.240261,410.871576 L470.240261,417.621576 L469.368686,418.111837 L468.388163,416.368686 L469.259739,415.878424 L477.931,411 L436.067,411 L444.740261,415.878424 L445.611837,416.368686 L444.631314,418.111837 L443.759739,417.621576 L431.759739,410.871576 L430.210271,410 L431.759739,409.128424 L443.759739,402.378424 L444.631314,401.888163 L445.611837,403.631314 L444.740261,404.121576 L436.067,409 L477.934,409 L469.259739,404.121576 L468.388163,403.631314 L469.368686,401.888163 Z" fill="#DA4167" fill-rule="nonzero"></path>
            <path id="Line" d="M444.631314,128.888163 L445.611837,130.631314 L444.740261,131.121576 L436.067,136 L482,136 L482,138 L436.067,138 L444.740261,142.878424 L445.611837,143.368686 L444.631314,145.111837 L443.759739,144.621576 L431.759739,137.871576 L430.210271,137 L431.759739,136.128424 L443.759739,129.378424 L444.631314,128.888163 Z" fill="#011C32" fill-rule="nonzero"></path>
            <path id="Line" d="M223.368686,128.888163 L224.240261,129.378424 L236.240261,136.128424 L237.789729,137 L236.240261,137.871576 L224.240261,144.621576 L223.368686,145.111837 L222.388163,143.368686 L223.259739,142.878424 L231.932,138 L152,138 L152,136 L231.932,136 L223.259739,131.121576 L222.388163,130.631314 L223.368686,128.888163 Z" fill="#011C32" fill-rule="nonzero"></path>
            <text id="Conversation" font-family="Helvetica" font-size="16" font-weight="normal" fill="#000000" fill-opacity="0.85">
                <tspan x="285.363281" y="17">Conversation</tspan>
            </text>
            <text id="Intent" font-family="Helvetica" font-size="16" font-weight="normal" fill="#000000" fill-opacity="0.85">
                <tspan x="176.484375" y="126">Intent</tspan>
            </text>
            <text id="Agent-Task" font-family="Helvetica" font-size="16" font-weight="normal" fill="#000000" fill-opacity="0.85">
                <tspan x="347.0625" y="271">Agent Task</tspan>
            </text>
            <text id="Normal-Task" font-family="Helvetica" font-size="16" font-weight="normal" fill="#000000" fill-opacity="0.85">
                <tspan x="433.21875" y="101">Normal</tspan>
                <tspan x="442.550781" y="120">Task</tspan>
            </text>
            <g id="Group-3" transform="translate(105.000000, 245.000000)">
                <use id="Rectangle" stroke="#000000" mask="url(#mask-2)" stroke-width="2" fill="#FFFFFF" stroke-dasharray="2,2" xlink:href="#path-1"></use>
                <text id="AutoDev-Pair" font-family="Helvetica" font-size="14" font-weight="normal" fill="#000000">
                    <tspan x="18.2587891" y="25">AutoDev Pair</tspan>
                </text>
            </g>
        </g>
    </g>
</svg>