<?xml version="1.0" encoding="UTF-8"?>
<svg width="16px" height="16px" viewBox="0 0 16 16" version="1.1" xmlns="http://www.w3.org/2000/svg" xmlns:xlink="http://www.w3.org/1999/xlink">
    <!-- Generator: Sketch 62 (91390) - https://sketch.com -->
    <title>autodev-dark</title>
    <desc>Created with Sketch.</desc>
    <g id="Page-1" stroke="none" stroke-width="1" fill="none" fill-rule="evenodd">
        <g id="autodev-dark" fill="#666666" fill-rule="nonzero">
            <g id="Group" transform="translate(8.000000, 8.000000) scale(-1, 1) rotate(-180.000000) translate(-8.000000, -8.000000) translate(0.000000, -0.000000)">
                <path d="M4.89110204,0.138797146 L5.0300408,0.277594292 L5.0300408,2.39282365 L6.07918368,2.39282365 L6.093551,1.31131498 L6.10791836,0.22980632 L6.24212244,0.114984709 C6.34697961,0.0270744138 6.40771175,0.00509683995 6.66199075,0.000976044851 L6.7835102,0.000163098879 C7.17159184,0.000163098879 7.20032652,0.00489296636 7.33436736,0.138960245 L7.47330612,0.27775739 L7.47330612,2.39298675 L8.5270204,2.39298675 L8.5270204,0.27775739 L8.6659592,0.138960245 C8.78510658,0.0197893307 8.82104912,0.0028109387 9.10012754,0.000509208571 L9.21681632,0.000163098879 C9.57616328,0.000163098879 9.63836736,0.0145158002 9.75820408,0.114984709 L9.89224492,0.22980632 L9.90661224,1.31131498 L9.9209796,2.39282365 L10.9701224,2.39282365 L10.9701224,0.277594292 L11.1090612,0.138797146 C11.222204,0.0257696229 11.2657219,0.00427370031 11.4994898,0.00066577472 L11.6120816,-4.4408921e-15 C12.3039006,-4.4408921e-15 12.3559381,0.0350678005 12.3591553,1.21069878 L12.3593469,2.38320082 L12.7377959,2.39755352 C13.1449796,2.41663609 13.2839184,2.48366972 13.4803265,2.74691131 C13.556898,2.84738022 13.5856327,2.9670948 13.6,3.2588787 L13.6143673,3.6369419 L14.6204082,3.6369419 C15.9617959,3.6369419 16,3.66091743 16,4.38344548 C16,4.71845056 15.9903673,4.7567788 15.8610612,4.88595312 L15.7221224,5.02475024 L13.6047347,5.02475024 L13.6047347,6.07282364 L14.6873469,6.08717636 L15.7699592,6.10152904 L15.884898,6.23543324 C15.972898,6.34018348 15.9948979,6.40085372 15.9990229,6.65487354 L15.9998367,6.77626912 C15.9998367,7.12087893 15.9960957,7.18184972 15.9010086,7.28518952 L15.7219592,7.46536188 L13.6045714,7.46536188 L13.6045714,8.51832824 L15.7219592,8.51832824 L15.860898,8.6571254 C15.9801904,8.77629632 15.9971862,8.81221831 15.9994902,9.09089949 L15.9998367,9.207421 C15.9998367,9.56640164 15.9854694,9.62854228 15.884898,9.74825688 L15.7699592,9.88216108 L14.6873469,9.89651376 L13.6047347,9.91086644 L13.6047347,10.9589399 L15.7221224,10.9589399 L15.8610612,11.097737 C15.9903673,11.2318043 16,11.2605097 16,11.6289501 C16,12.2972867 15.9648965,12.3438041 14.7796358,12.3465857 L13.6047347,12.3467482 L13.6047347,12.7008359 C13.6047347,12.98316 13.5856327,13.0788991 13.4945306,13.2129664 C13.3028571,13.5000204 13.1113469,13.5910296 12.7136327,13.5910296 L12.3591837,13.5910296 L12.3591837,14.5960449 C12.3591837,15.886852 12.3417065,15.9780418 11.7280791,15.9835312 L11.6406531,15.9838532 C11.2718367,15.9838532 11.243102,15.9742304 11.108898,15.8450561 L10.9699592,15.7062589 L10.9699592,13.5911927 L9.92081632,13.5911927 L9.906449,14.6727013 L9.89208164,15.75421 L9.7580408,15.8690316 C9.65318367,15.9569419 9.59245153,15.9789195 9.33817253,15.9830403 L9.21665308,15.9838532 C8.82857144,15.9838532 8.79983672,15.9791233 8.66579592,15.8450561 L8.52685716,15.7062589 L8.52685716,13.5911927 L7.4729796,13.5911927 L7.4729796,15.7062589 L7.3340408,15.8450561 C7.21474828,15.964082 7.17878962,15.9811731 6.89982408,15.9835017 L6.78318368,15.9838532 C6.42383672,15.9838532 6.36163264,15.9695005 6.24179592,15.8690316 L6.10759184,15.75421 L6.09322448,14.6727013 L6.07885716,13.5911927 L5.02971428,13.5911927 L5.02971428,15.7062589 L4.89077552,15.8450561 C4.75657144,15.9742304 4.72783672,15.9838532 4.34938776,15.9838532 C4.12930612,15.9836901 3.91379592,15.9597146 3.86595918,15.9310092 C3.66955102,15.8161876 3.64081633,15.6534149 3.64081633,14.5958818 L3.64081633,13.5908665 L3.28636735,13.5908665 C3.0037551,13.5908665 2.90791837,13.5717839 2.77861224,13.4855046 C2.49126531,13.2892966 2.41926531,13.1457696 2.40016327,12.7246483 L2.38579592,12.3465851 L1.37959184,12.3465851 C0.0965252885,12.3465851 0.00578557926,12.3291258 0.000320626385,11.7161238 L-9.2805582e-17,11.628787 C-9.2805582e-17,11.2603466 0.00963265304,11.2316412 0.138938776,11.0975739 L0.277877551,10.9587768 L2.39510204,10.9587768 L2.39510204,9.91070336 L1.3124898,9.89635068 L0.229877551,9.88199796 L0.114938776,9.74809376 C0.0269387755,9.64334352 0.00493877551,9.58267328 0.00081377551,9.32865349 L-9.2805582e-17,9.20725792 C-9.2805582e-17,8.81957188 0.00473469388,8.79086648 0.138938776,8.65696228 L0.277877551,8.51816516 L2.39510204,8.51816516 L2.39510204,7.46536188 L0.277877551,7.46536188 L0.138938776,7.32656472 C0.0196462586,7.2075388 0.0026505417,7.17163289 0.000346462866,6.89283896 L-9.2805582e-17,6.77626912 C-9.2805582e-17,6.41728848 0.0143673469,6.3551478 0.114938776,6.23543324 L0.229877551,6.10152904 L1.3124898,6.08717636 L2.39510204,6.07282364 L2.39510204,5.02475024 L0.277877551,5.02475024 L0.138938776,4.88595312 C0.024,4.76692716 0.00361803981,4.73102125 0.00050771255,4.46562964 L-9.2805582e-17,4.35474008 C-9.2805582e-17,3.65602446 0.0383673469,3.6369419 1.38922449,3.6369419 L2.39526531,3.6369419 L2.39526531,3.28285423 C2.39526531,3.00053007 2.41436735,2.90479103 2.50546939,2.77561672 C2.69714286,2.48856269 2.84081633,2.41663609 3.26236735,2.39755352 L3.64081633,2.38320082 L3.64081633,1.37818552 C3.64081633,0.0964268934 3.66277474,0.00577968162 4.29765277,0.000320299548 L4.38808164,-4.4408921e-15 C4.72342856,-4.4408921e-15 4.76179592,0.00962283384 4.89110204,0.138797146 Z M8.0856,6.4 C8.0296,6.4 7.9764,6.41586668 7.926,6.4476 L7.926,6.4476 L7.890825,6.473675 C7.858275,6.502025 7.8336,6.5372 7.8168,6.5792 L7.8168,6.5792 L7.5012,7.3628 L5.494,7.3628 L5.1736,6.5792 L5.14342223,6.52444445 C5.12060741,6.49125927 5.0924,6.46471112 5.0588,6.4448 C5.0084,6.41493332 4.95706668,6.4 4.9048,6.4 C4.80026668,6.4 4.72,6.4448 4.664,6.5344 C4.608,6.624 4.6024,6.7192 4.6472,6.82 L4.6472,6.82 L6.2208,10.5776 L6.258656,10.64816 C6.31480534,10.7317867 6.39365334,10.7736 6.4952,10.7736 C6.6296,10.7736 6.72106668,10.7082667 6.7696,10.5776 L6.7696,10.5776 L8.3488,6.8088 L8.370675,6.73232501 C8.383625,6.65777501 8.36979999,6.589 8.3292,6.526 C8.27506668,6.442 8.19386668,6.4 8.0856,6.4 Z M7.3072,7.8448 L6.5056,9.8352 L5.6912,7.8448 L7.3072,7.8448 Z M11.1264,5.8288 L8.5,5.8288 L8.441025,5.83405 C8.384675,5.84455 8.33619999,5.8708 8.2956,5.9128 C8.24146668,5.9688 8.2144,6.036 8.2144,6.1144 C8.2144,6.19653332 8.24146668,6.26466668 8.2956,6.3188 C8.34973332,6.37293332 8.41786668,6.4 8.5,6.4 L8.5,6.4 L11.1264,6.4 L11.1979556,6.39097777 C11.2435852,6.37894814 11.2850667,6.35488888 11.3224,6.3188 C11.3784,6.26466668 11.4064,6.19653332 11.4064,6.1144 C11.4064,6.036 11.3784,5.9688 11.3224,5.9128 C11.2664,5.8568 11.2010667,5.8288 11.1264,5.8288 L11.1264,5.8288 Z" id="Combined-Shape"></path>
            </g>
        </g>
    </g>
</svg>