<svg width="16" height="16" viewBox="0 0 48 48" fill="none" xmlns="http://www.w3.org/2000/svg">
    <rect x="-3.05176e-05" width="48" height="48" rx="24" fill="white"/>
    <path fill-rule="evenodd" clip-rule="evenodd"
          d="M3.44296 3.44299C-3.05176e-05 6.88598 -3.05176e-05 12.4274 -3.05176e-05 23.5102V24.4898C-3.05176e-05 35.5726 -3.05176e-05 41.114 3.44296 44.557C6.88595 48 12.4274 48 23.5102 48H24.4898C35.5726 48 41.114 48 44.557 44.557C48 41.114 48 35.5726 48 24.4898V24.4898V23.5102V23.5102C48 12.4274 48 6.88598 44.557 3.44299C41.114 0 35.5726 0 24.4898 0H23.5102C12.4274 0 6.88595 0 3.44296 3.44299ZM38.3864 12.0135C35.2747 11.879 32.2015 12.7511 29.6141 14.5031C27.0267 16.2551 25.0598 18.7955 23.9997 21.7549C22.9396 18.7955 20.9728 16.2551 18.3853 14.5031C15.7979 12.7511 12.7248 11.879 9.61301 12.0135C9.50853 14.5283 10.0398 17.0285 11.1567 19.2782C12.2736 21.528 13.9393 23.4531 15.9967 24.872C17.0522 25.6045 17.9148 26.5863 18.5096 27.7321C19.1044 28.878 19.4135 30.1532 19.41 31.4471V36H28.5904V31.4471C28.5867 30.1532 28.8956 28.8781 29.4902 27.7322C30.0849 26.5864 30.9474 25.6046 32.0028 24.872C34.0607 23.4537 35.7268 21.5286 36.8438 19.2788C37.9607 17.0289 38.4917 14.5284 38.3864 12.0135ZM16.5185 31.4471C16.5228 30.6289 16.3291 29.822 15.9544 29.0967C15.5797 28.3713 15.0352 27.7495 14.3684 27.2854C13.4622 26.6605 12.6157 25.9514 11.8401 25.1674C11.0014 24.3182 10.2507 23.3848 9.59972 22.3816V36H16.5185V31.4471ZM32.045 29.0967C31.6703 29.822 31.4767 30.6289 31.481 31.4471V36H38.3997V22.3816C37.7487 23.3848 36.998 24.3182 36.1593 25.1674C35.3837 25.9514 34.5373 26.6605 33.631 27.2854C32.9642 27.7495 32.4197 28.3713 32.045 29.0967Z"
          fill="#48A178"/>
</svg>
